<svg width="83" height="95" viewBox="0 0 83 95" fill="none" xmlns="http://www.w3.org/2000/svg">
<g clip-path="url(#clip0)">
<rect x="7.5" y="0.5" width="69" height="64" rx="22.5" fill="white"/>
<path d="M46 30.5L52.5 29.5H53L53.5 34.5L52.5 36L47 35.5L45 34.5V32.5L46 30.5Z" fill="#FFC700"/>
<path d="M48 21.5L48.5 24.5H32L31 23L32 21.5H48Z" fill="#FFC700"/>
<path d="M46 30.5L52.5 29.5H53L53.5 34.5L52.5 36L47 35.5L45 34.5V32.5L46 30.5Z" stroke="black" stroke-linecap="round" stroke-linejoin="round"/>
<path d="M48 21.5L48.5 24.5H32L31 23L32 21.5H48Z" stroke="black" stroke-linecap="round" stroke-linejoin="round"/>
<path d="M52.5 23.913H49.5652V21.9565C49.5652 20.8804 48.6848 20 47.6087 20H32.9348C31.2717 20 30 21.2717 30 22.9348V24.8913V26.8478V42.0652C30 43.7283 31.2717 45 32.9348 45H51.5217C53.1848 45 54.4565 43.7283 54.4565 42.0652V36.6304V28.8043V25.8696C54.4565 24.7935 53.5761 23.913 52.5 23.913ZM32.9348 21.9565H47.6087V23.913H32.9348C32.3478 23.913 31.9565 23.5217 31.9565 22.9348C31.9565 22.3478 32.3478 21.9565 32.9348 21.9565ZM52.5 34.6739H47.6087C46.5326 34.6739 45.6522 33.7935 45.6522 32.7174C45.6522 31.6413 46.5326 30.7609 47.6087 30.7609H52.5V34.6739ZM47.6087 28.8043C45.4565 28.8043 43.6957 30.5652 43.6957 32.7174C43.6957 34.8696 45.4565 36.6304 47.6087 36.6304H52.5V42.0652C52.5 42.6522 52.1087 43.0435 51.5217 43.0435H32.9348C32.3478 43.0435 31.9565 42.6522 31.9565 42.0652V26.8478V25.6739C32.25 25.7717 32.5435 25.8696 32.9348 25.8696H52.5V28.8043H47.6087Z" fill="#565656"/>
<path d="M46.1411 32.7174C46.1411 33.5 46.8259 34.1848 47.6085 34.1848C48.3911 34.1848 49.0759 33.5 49.0759 32.7174C49.0759 31.9348 48.3911 31.25 47.6085 31.25C46.8259 31.25 46.1411 31.9348 46.1411 32.7174Z" fill="#565656"/>
<rect x="7.5" y="0.5" width="69" height="64" rx="22.5" stroke="#E0E3E5"/>
<path d="M33.2525 73.314V79.567H34.3185V73.314H33.2525ZM26.8045 80.139V84.806H34.3185V80.139H33.2655V81.569H27.8575V80.139H26.8045ZM27.8575 82.401H33.2655V83.948H27.8575V82.401ZM28.0525 73.86C26.2975 73.86 25.0235 74.952 25.0235 76.538C25.0235 78.15 26.2975 79.229 28.0525 79.229C29.8205 79.229 31.1075 78.15 31.1075 76.538C31.1075 74.952 29.8205 73.86 28.0525 73.86ZM28.0525 74.744C29.2355 74.744 30.0675 75.485 30.0675 76.538C30.0675 77.604 29.2355 78.345 28.0525 78.345C26.8955 78.345 26.0635 77.604 26.0635 76.538C26.0635 75.485 26.8955 74.744 28.0525 74.744ZM37.5805 77.955C39.5435 77.799 41.2725 77.201 41.9875 76.122C42.7025 77.201 44.4185 77.799 46.3685 77.955L46.6935 77.149C44.5225 77.006 42.7675 76.291 42.5855 75.134H46.1735V74.328H42.5205V73.223H41.4545V74.328H37.7885V75.134H41.3895C41.2075 76.291 39.4265 77.006 37.2685 77.149L37.5805 77.955ZM47.2395 79.294V78.475H36.7225V79.294H41.4415V80.373H37.9705V81.166H44.8475V82.154H38.0095V84.832H46.2515V84.026H39.0495V82.921H45.9005V80.373H42.5205V79.294H47.2395ZM51.0085 81.517H56.8715V83.948H51.0085V81.517ZM49.9685 84.806H57.9245V80.659H49.9685V84.806ZM57.5735 78.215C57.8855 76.759 57.8855 75.693 57.8855 74.783V73.925H50.0075V74.783H56.8325C56.8325 75.693 56.8325 76.759 56.4945 78.215H48.6555V79.073H59.2505V78.215H57.5735Z" fill="black"/>
</g>
<defs>
<clipPath id="clip0">
<rect width="83" height="95" fill="white"/>
</clipPath>
</defs>
</svg>
