<svg width="83" height="95" viewBox="0 0 83 95" fill="none" xmlns="http://www.w3.org/2000/svg">
<g clip-path="url(#clip0)">
<rect x="7.5" y="0.5" width="69" height="64" rx="22.5" fill="white"/>
<path d="M43.5 31V21H50V31.5L46.5 29.5L43.5 31Z" fill="#FFC700" stroke="#FFC700" stroke-linecap="round" stroke-linejoin="round"/>
<path d="M53.7692 23C53.7692 21.3 52.4692 20 50.7692 20H49.7692H43.7692H32C30.3 20 29 21.3 29 23V42C29 43.7 30.3 45 32 45H52.7692C53.2692 45 53.6692 44.7 53.7692 44.2C53.8692 43.7 53.6692 43.3 53.2692 43.1C52.6692 42.8 52.3692 42.4 52.3692 42C52.3692 41.6 52.7692 41.2 53.2692 40.9C53.3692 40.9 53.3692 40.8 53.4692 40.7C53.4692 40.7 53.4692 40.7 53.5692 40.7C53.6692 40.6 53.7692 40.5 53.7692 40.4V40.3C53.7692 40.2 53.7692 40.1 53.8692 40V23H53.7692ZM48.7692 22V29.6L47.4692 28.3C47.2692 28.1 47.0692 28 46.7692 28C46.4692 28 46.2692 28.1 46.0692 28.3L44.7692 29.6V22H48.7692ZM32 22H42.7692V32C42.7692 32.4 42.9692 32.8 43.3692 32.9C43.7692 33 44.1692 33 44.4692 32.7L46.7692 30.4L49.0692 32.7C49.2692 32.9 49.4692 33 49.7692 33C49.8692 33 50.0692 33 50.1692 32.9C50.5692 32.7 50.7692 32.4 50.7692 32V22C51.3692 22 51.7692 22.4 51.7692 23V39H32C31.6 39 31.3 39.1 31 39.2V23C31 22.4 31.4 22 32 22ZM50.4692 43H32C31.4 43 31 42.6 31 42C31 41.4 31.4 41 32 41H50.4692C50.3692 41.3 50.2692 41.7 50.2692 42C50.2692 42.3 50.3692 42.7 50.4692 43Z" fill="#565656"/>
<rect x="7.5" y="0.5" width="69" height="64" rx="22.5" stroke="#E0E3E5"/>
<path d="M25.3745 74.549V75.433H29.6515C29.4045 78.189 27.8055 80.425 24.8285 81.92L25.4135 82.752C29.1835 80.867 30.7045 77.864 30.7045 74.549H25.3745ZM35.5925 78.033H33.7205V73.301H32.6545V84.962H33.7205V78.917H35.5925V78.033ZM45.1855 73.301V84.988H46.2515V73.301H45.1855ZM40.1025 74.198C38.3735 74.198 37.1385 75.784 37.1385 78.267C37.1385 80.75 38.3735 82.336 40.1025 82.336C41.8315 82.336 43.0665 80.75 43.0665 78.267C43.0665 75.784 41.8315 74.198 40.1025 74.198ZM40.1025 75.16C41.2335 75.16 42.0395 76.382 42.0395 78.267C42.0395 80.165 41.2335 81.387 40.1025 81.387C38.9585 81.387 38.1525 80.165 38.1525 78.267C38.1525 76.382 38.9585 75.16 40.1025 75.16ZM58.0155 78.891H51.0605V75.251H57.8985V74.367H50.0075V79.762H58.0155V78.891ZM48.6555 82.505V83.389H59.2375V82.505H48.6555Z" fill="black"/>
</g>
<defs>
<clipPath id="clip0">
<rect width="83" height="95" fill="white"/>
</clipPath>
</defs>
</svg>
