<svg width="83" height="95" viewBox="0 0 83 95" fill="none" xmlns="http://www.w3.org/2000/svg">
<g clip-path="url(#clip0)">
<rect x="7.5" y="0.5" width="69" height="64" rx="22.5" fill="white"/>
<path d="M48.8382 39.2222C48.8382 39.2222 38.0343 39.5926 33.75 39.2222V42H52.75L51.6324 37C51.4461 37.3704 48.8382 39.2222 48.8382 39.2222Z" fill="#FFC700" stroke="#FFC700" stroke-linecap="round" stroke-linejoin="round"/>
<path d="M47.15 34.9403H47.1624L47.1748 34.94C48.6259 34.904 50.0262 35.4254 51.0693 36.3793C52.1078 37.329 52.7073 38.6284 52.75 39.991V41.827C52.738 42.1333 52.6022 42.431 52.359 42.6535C52.1115 42.88 51.7736 43.0082 51.4184 42.9995L51.4063 42.9993H51.3942H34.1077H34.0952L34.0827 42.9996C33.7273 43.0084 33.3891 42.8804 33.1413 42.6538C32.898 42.4313 32.762 42.1335 32.75 41.827V39.991C32.7927 38.6284 33.3922 37.329 34.4307 36.3793C35.4738 35.4254 36.8741 34.904 38.3252 34.94L38.3376 34.9403H38.35H38.9757C40.1741 35.4142 41.4564 35.658 42.7509 35.658C44.0455 35.658 45.3277 35.4142 46.5262 34.9403H47.15ZM45.3949 30.573C44.6168 31.127 43.6843 31.4523 42.7116 31.505C41.3464 31.536 40.0299 31.0444 39.0487 30.1473C38.0691 29.2517 37.504 28.0268 37.4635 26.7426C37.4663 25.8257 37.746 24.9264 38.2728 24.1545C38.8026 23.3783 39.5605 22.7637 40.4566 22.392C41.3529 22.0201 42.3447 21.9093 43.3079 22.0747C44.271 22.2402 45.1582 22.6736 45.8613 23.3164C46.5641 23.9589 47.0517 24.7817 47.2698 25.6807C47.4877 26.5794 47.4281 27.5199 47.0971 28.3876C46.766 29.2556 46.1762 30.0167 45.3949 30.573Z" stroke="#565656" stroke-width="2"/>
<rect x="7.5" y="0.5" width="69" height="64" rx="22.5" stroke="#E0E3E5"/>
<path d="M14.2995 75.329H17.5625V81.14H14.2995V75.329ZM13.2595 81.998H18.6025V74.471H13.2595V81.998ZM23.6855 77.955H21.7615V73.314H20.6955V84.962H21.7615V78.852H23.6855V77.955ZM33.2265 73.301V84.988H34.2925V73.301H33.2265ZM28.1435 74.198C26.4145 74.198 25.1795 75.784 25.1795 78.267C25.1795 80.75 26.4145 82.336 28.1435 82.336C29.8725 82.336 31.1075 80.75 31.1075 78.267C31.1075 75.784 29.8725 74.198 28.1435 74.198ZM28.1435 75.16C29.2745 75.16 30.0805 76.382 30.0805 78.267C30.0805 80.165 29.2745 81.387 28.1435 81.387C26.9995 81.387 26.1935 80.165 26.1935 78.267C26.1935 76.382 26.9995 75.16 28.1435 75.16ZM38.7505 75.641H40.2065V81.114C39.7125 81.14 39.2315 81.153 38.7505 81.166V75.641ZM41.1815 75.641H42.1435V74.783H36.8135V75.641H37.7755V81.192C37.3335 81.205 36.9435 81.205 36.5925 81.205L36.6965 82.089C38.2175 82.089 40.6615 82.037 42.4685 81.699L42.4035 80.919C42.0265 80.971 41.5975 81.01 41.1815 81.049V75.641ZM43.3915 77.747H41.7925V78.683H43.3915V84.351H44.3925V73.587H43.3915V77.747ZM45.6405 73.314V84.962H46.6675V73.314H45.6405ZM57.1445 73.301V84.988H58.2105V73.301H57.1445ZM52.0615 74.198C50.3325 74.198 49.0975 75.784 49.0975 78.267C49.0975 80.75 50.3325 82.336 52.0615 82.336C53.7905 82.336 55.0255 80.75 55.0255 78.267C55.0255 75.784 53.7905 74.198 52.0615 74.198ZM52.0615 75.16C53.1925 75.16 53.9985 76.382 53.9985 78.267C53.9985 80.165 53.1925 81.387 52.0615 81.387C50.9175 81.387 50.1115 80.165 50.1115 78.267C50.1115 76.382 50.9175 75.16 52.0615 75.16ZM64.7875 75.381H67.5305V74.497H61.0175V75.381H63.7215V76.863C63.7215 78.878 62.3045 81.075 60.6275 81.868L61.2515 82.726C62.5775 82.05 63.7215 80.581 64.2545 78.878C64.8135 80.477 65.9575 81.816 67.3095 82.44L67.9075 81.582C66.1915 80.854 64.7875 78.839 64.7875 76.863V75.381ZM69.1035 73.314V84.962H70.1695V73.314H69.1035Z" fill="black"/>
<rect x="57" y="46" width="20" height="20" rx="10" fill="black"/>
<path d="M60.75 56C60.75 55.4615 60.816 54.9398 60.9396 54.4412C61.2711 54.4592 61.601 54.3819 61.8927 54.2176C62.1845 54.0533 62.4268 53.8085 62.5928 53.5103C62.7589 53.2121 62.8422 52.872 62.8336 52.5278C62.825 52.1835 62.7248 51.8484 62.5441 51.5595C63.2695 50.819 64.1646 50.2823 65.1452 50C65.2958 50.3072 65.5254 50.5652 65.8086 50.7454C66.0918 50.9256 66.4175 51.0209 66.7497 51.0209C67.0819 51.0209 67.4076 50.9256 67.6908 50.7454C67.974 50.5652 68.2036 50.3072 68.3542 50C69.3348 50.2823 70.2299 50.819 70.9553 51.5595C70.7744 51.8484 70.6741 52.1836 70.6654 52.5281C70.6567 52.8725 70.7401 53.2128 70.9062 53.5111C71.0724 53.8095 71.3148 54.0543 71.6068 54.2186C71.8987 54.3828 72.2288 54.4601 72.5604 54.4418C72.684 54.9398 72.75 55.4615 72.75 56C72.75 56.5385 72.684 57.0602 72.5604 57.5588C72.2288 57.5406 71.8989 57.6179 71.6071 57.7821C71.3152 57.9464 71.0728 58.1911 70.9067 58.4894C70.7406 58.7876 70.6572 59.1277 70.6658 59.4721C70.6744 59.8164 70.7746 60.1516 70.9553 60.4405C70.2299 61.181 69.3348 61.7177 68.3542 62C68.2036 61.6928 67.974 61.4348 67.6908 61.2546C67.4076 61.0744 67.0819 60.9791 66.7497 60.9791C66.4175 60.9791 66.0918 61.0744 65.8086 61.2546C65.5254 61.4348 65.2958 61.6928 65.1452 62C64.1646 61.7177 63.2695 61.181 62.5441 60.4405C62.725 60.1516 62.8253 59.8164 62.834 59.4719C62.8427 59.1275 62.7593 58.7872 62.5932 58.4889C62.427 58.1905 62.1846 57.9457 61.8926 57.7814C61.6007 57.6172 61.2706 57.5399 60.939 57.5582C60.816 57.0608 60.75 56.5391 60.75 56ZM63.6325 57.8676C64.0106 58.5468 64.1186 59.3281 63.971 60.0614C64.2158 60.242 64.4762 60.3982 64.7492 60.5283C65.2992 60.0171 66.0119 59.7347 66.7503 59.7352C67.5063 59.7352 68.2132 60.0284 68.7514 60.5283C69.0244 60.3982 69.2848 60.242 69.5296 60.0614C69.3781 59.3119 69.4986 58.5307 69.8681 57.8676C70.2369 57.2042 70.8287 56.7054 71.5301 56.4669C71.5579 56.1563 71.5579 55.8437 71.5301 55.5331C70.8285 55.2947 70.2364 54.7959 69.8675 54.1324C69.498 53.4693 69.3775 52.6881 69.529 51.9386C69.2843 51.758 69.0237 51.6017 68.7508 51.4717C68.2009 51.9827 67.4885 52.2652 66.7503 52.2648C66.0119 52.2653 65.2992 51.9829 64.7492 51.4717C64.4763 51.6017 64.2157 51.758 63.971 51.9386C64.1225 52.6881 64.002 53.4693 63.6325 54.1324C63.2637 54.7958 62.6719 55.2946 61.9705 55.5331C61.9427 55.8437 61.9427 56.1563 61.9705 56.4669C62.6721 56.7053 63.2642 57.2041 63.6331 57.8676H63.6325ZM66.7503 57.8676C66.2729 57.8676 65.815 57.6708 65.4774 57.3206C65.1399 56.9704 64.9502 56.4953 64.9502 56C64.9502 55.5047 65.1399 55.0296 65.4774 54.6794C65.815 54.3292 66.2729 54.1324 66.7503 54.1324C67.2277 54.1324 67.6856 54.3292 68.0232 54.6794C68.3607 55.0296 68.5504 55.5047 68.5504 56C68.5504 56.4953 68.3607 56.9704 68.0232 57.3206C67.6856 57.6708 67.2277 57.8676 66.7503 57.8676ZM66.7503 56.6225C66.9094 56.6225 67.0621 56.5569 67.1746 56.4402C67.2871 56.3235 67.3503 56.1651 67.3503 56C67.3503 55.8349 67.2871 55.6765 67.1746 55.5598C67.0621 55.4431 66.9094 55.3775 66.7503 55.3775C66.5912 55.3775 66.4385 55.4431 66.326 55.5598C66.2135 55.6765 66.1503 55.8349 66.1503 56C66.1503 56.1651 66.2135 56.3235 66.326 56.4402C66.4385 56.5569 66.5912 56.6225 66.7503 56.6225Z" fill="white"/>
</g>
<defs>
<clipPath id="clip0">
<rect width="83" height="95" fill="white"/>
</clipPath>
</defs>
</svg>
