<svg width="83" height="95" viewBox="0 0 83 95" fill="none" xmlns="http://www.w3.org/2000/svg">
<g clip-path="url(#clip0)">
<rect x="7.5" y="0.5" width="69" height="64" rx="22.5" fill="white"/>
<path d="M51.25 26L46.25 31L37.25 40L40.25 43.5L51.75 32L51.25 26Z" fill="#FFC700"/>
<path d="M52.8496 25.0813C52.8496 24.6748 52.6463 24.3699 52.4431 24.065C52.4431 21.8293 51.0203 20 49.0894 20C47.565 20 46.4472 21.1179 45.939 22.7439L43.8049 22.5407C43.5 22.5407 43.1951 22.6423 42.9919 22.8455L31.6098 34.3293C30.7967 35.1423 30.7967 36.3618 31.6098 37.1748L38.8252 44.3902C39.2317 44.7967 39.7398 45 40.248 45C40.7561 45 41.2642 44.7967 41.6707 44.3902L53.1545 32.9065C53.3577 32.7033 53.4594 32.3984 53.4594 32.0935L52.8496 25.0813ZM49.1911 22.0325C49.5976 22.0325 50.1057 22.439 50.3089 23.1504L48.1748 22.9472C48.378 22.3374 48.7846 22.0325 49.1911 22.0325ZM40.248 42.9675L33.0325 35.752L44.2114 24.5732L45.939 24.7764C46.1423 26.7073 47.4634 28.1301 49.1911 28.1301C49.8008 28.1301 50.2073 27.7236 50.2073 27.1138C50.2073 26.5041 49.8008 26.0976 49.1911 26.0976C48.7846 26.0976 48.2764 25.6911 48.0732 24.9797L50.8171 25.1829L51.4268 31.7886L40.248 42.9675Z" fill="#565656"/>
<path d="M44.5164 28.6381C44.1099 28.2316 43.5001 28.2316 43.0936 28.6381L36.5895 35.1422C36.183 35.5487 36.183 36.1585 36.5895 36.565C36.7928 36.7682 37.0977 36.8698 37.3009 36.8698C37.5042 36.8698 37.8091 36.7682 38.0123 36.565L44.5164 30.0609C44.9229 29.6544 44.9229 29.0446 44.5164 28.6381Z" fill="#565656"/>
<path d="M45.9391 31.4838L39.435 37.9879C39.0285 38.3944 39.0285 39.0042 39.435 39.4107C39.6383 39.6139 39.9431 39.7155 40.1464 39.7155C40.3496 39.7155 40.6545 39.6139 40.8578 39.4107L47.3618 32.9066C47.7683 32.5001 47.7683 31.8903 47.3618 31.4838C46.9553 31.0773 46.3456 31.0773 45.9391 31.4838Z" fill="#565656"/>
<rect x="7.5" y="0.5" width="69" height="64" rx="22.5" stroke="#E0E3E5"/>
<path d="M19.6726 84H20.8166V78.995C20.8166 77.994 20.7256 76.98 20.6736 76.018H20.7256L21.7526 77.981L25.2236 84H26.4586V74.458H25.3146V79.424C25.3146 80.412 25.4056 81.478 25.4706 82.44H25.4056L24.3916 80.477L20.9206 74.458H19.6726V84ZM29.0544 84H30.2634V79.723H33.9034V78.709H30.2634V75.485H34.5534V74.458H29.0544V84ZM38.2162 84H39.4252V75.485H42.3112V74.458H35.3302V75.485H38.2162V84ZM44.9065 75.329H48.1695V81.14H44.9065V75.329ZM43.8665 81.998H49.2095V74.471H43.8665V81.998ZM54.2925 77.955H52.3685V73.314H51.3025V84.962H52.3685V78.852H54.2925V77.955ZM65.2375 73.314H64.2235V81.218H65.2375V73.314ZM61.9225 77.578V80.178H62.9235V73.509H61.9225V76.72H60.1675C60.4145 75.966 60.5315 75.147 60.5315 74.289H56.0075V75.16H59.4785C59.4395 75.628 59.3485 76.07 59.2185 76.499L55.4615 76.746L55.6305 77.617L58.8675 77.279C58.2565 78.41 57.1645 79.359 55.4745 80.087L55.9945 80.867C57.8795 80.035 59.1015 78.93 59.8035 77.578H61.9225ZM61.8575 80.542H60.7915V80.906C60.7915 82.466 58.8805 83.753 56.8265 84.078L57.2425 84.923C58.9975 84.611 60.6095 83.701 61.3245 82.388C62.0395 83.701 63.6775 84.611 65.4195 84.923L65.8485 84.078C63.7815 83.753 61.8575 82.466 61.8575 80.906V80.542Z" fill="black"/>
</g>
<defs>
<clipPath id="clip0">
<rect width="83" height="95" fill="white"/>
</clipPath>
</defs>
</svg>
