<svg width="83" height="95" viewBox="0 0 83 95" fill="none" xmlns="http://www.w3.org/2000/svg">
<g clip-path="url(#clip0)">
<rect x="7.5" y="0.5" width="69" height="64" rx="22.5" fill="white"/>
<rect x="33.75" y="29" width="2" height="9" fill="#FFC700"/>
<rect x="49.75" y="29" width="2" height="9" fill="#FFC700"/>
<path d="M55 33.5C55 32.1 54.2 30.9 53 30.3C52.9 29.2 52.1 28.2 51 28C50.8 23.5 47.1 20 42.5 20C37.9 20 34.3 23.6 34 28C32.9 28.2 32.1 29.2 32 30.3C30.8 30.9 30 32.1 30 33.5C30 34.9 30.8 36.1 32 36.7C32.1 38 33.2 39 34.5 39C35.9 39 37 37.9 37 36.5V30.5C37 29.7 36.6 29 36 28.5C36 24.9 38.9 22 42.5 22C46.1 22 49 24.9 49 28.5C48.4 29 48 29.7 48 30.5V36.5C48 37.7 48.8 38.7 50 38.9C49.8 41 48.7 41.9 44.8 42C44.5 41.4 43.8 41 43.1 41H40.1C39 41 38.1 41.9 38.1 43C38.1 44.1 39 45 40.1 45H43.1C43.8 45 44.5 44.6 44.8 44C49.1 43.9 51.9 42.8 52.1 38.5C52.7 38.1 53.1 37.4 53.1 36.7C54.2 36.1 55 34.9 55 33.5ZM35 36.5C35 36.8 34.8 37 34.5 37C34.2 37 34 36.8 34 36.5V30.5C34 30.2 34.2 30 34.5 30C34.8 30 35 30.2 35 30.5V36.5ZM50 30.5C50 30.2 50.2 30 50.5 30C50.8 30 51 30.2 51 30.5V36.5C51 36.8 50.8 37 50.5 37C50.2 37 50 36.8 50 36.5V30.5Z" fill="#565656"/>
<rect x="7.5" y="0.5" width="69" height="64" rx="22.5" stroke="#E0E3E5"/>
<path d="M26.909 77.084H21.163V74.705H26.909V77.084ZM27.962 73.847H20.123V77.942H27.962V73.847ZM21.163 81.374H20.097V84.702H28.157V83.831H21.163V81.374ZM18.745 79.268V80.126H23.594V82.479H24.66V80.126H29.34V79.268H18.745ZM34.513 74.159C32.706 74.159 31.393 75.264 31.393 76.902C31.393 78.527 32.706 79.645 34.513 79.645C36.333 79.645 37.633 78.527 37.633 76.902C37.633 75.264 36.333 74.159 34.513 74.159ZM34.513 75.069C35.722 75.069 36.593 75.81 36.593 76.902C36.593 77.981 35.722 78.735 34.513 78.735C33.317 78.735 32.433 77.981 32.433 76.902C32.433 75.81 33.317 75.069 34.513 75.069ZM39.167 73.301V84.988H40.233V73.301H39.167ZM30.938 82.427C33.044 82.427 35.865 82.401 38.491 81.92L38.4 81.127C35.852 81.517 32.927 81.53 30.808 81.53L30.938 82.427ZM46.108 81.478C45.055 81.478 44.288 80.724 44.288 79.684C44.288 78.631 45.055 77.877 46.108 77.877C47.174 77.877 47.941 78.631 47.941 79.684C47.941 80.724 47.174 81.478 46.108 81.478ZM46.108 76.993C44.47 76.993 43.287 78.111 43.287 79.684C43.287 81.27 44.47 82.362 46.108 82.362C47.772 82.362 48.955 81.27 48.955 79.684C48.955 78.111 47.772 76.993 46.108 76.993ZM46.628 73.444H45.562V75.173H42.624V76.031H49.501V75.173H46.628V73.444ZM53.583 78.098H51.672V73.314H50.606V84.962H51.672V78.995H53.583V78.098ZM55.337 74.562V75.42H59.718C59.497 78.189 57.937 80.425 54.804 81.92L55.376 82.791C59.25 80.893 60.797 77.929 60.797 74.562H55.337ZM63.15 73.301V84.962H64.216V73.301H63.15Z" fill="black"/>
</g>
<defs>
<clipPath id="clip0">
<rect width="83" height="95" fill="white"/>
</clipPath>
</defs>
</svg>
