<svg width="83" height="95" viewBox="0 0 83 95" fill="none" xmlns="http://www.w3.org/2000/svg">
<g clip-path="url(#clip0)">
<rect x="7.5" y="0.5" width="69" height="64" rx="22.5" fill="white"/>
<path d="M51 21H34L31 29L32 30.5L35.5 30L37.5 30.5L40.5 30L42.5 30.5L45 30L47 30.5L49.5 30L52 30.5L54.5 29L51 21Z" fill="#FFC700"/>
<path d="M55 28.9721C55 28.8735 55 28.8735 55 28.9721C55 28.8735 55 28.7749 55 28.7749C55 28.6763 55 28.6763 55 28.5777L52.6042 21.4789C52.3958 20.5916 51.5625 20 50.625 20H34.4792C33.5417 20 32.7083 20.5916 32.3958 21.3803L30 28.5777C30 28.6763 30 28.6763 30 28.7749C30 28.7749 30 28.7749 30 28.8735C30 28.8735 30 28.8735 30 28.9721C30 28.9721 30 28.9721 30 29.0707C30 30.0566 30.625 30.9439 31.5625 31.4369V42.6766C31.5625 43.7612 32.5 44.6485 33.6458 44.6485H51.3542C52.5 44.6485 53.4375 43.7612 53.4375 42.6766V31.3383C54.375 30.8453 54.8958 29.958 55 28.9721ZM50.625 21.9719L52.9167 28.9721C52.8125 29.465 52.2917 29.8594 51.6667 29.8594C50.9375 29.8594 50.4167 29.465 50.4167 28.8735C50.4167 28.8735 50.4167 28.8735 50.4167 28.7749V28.6763L49.375 21.9719H50.625ZM37.8125 21.9719H39.7917L39.1667 28.7749C39.1667 29.3664 38.6458 29.7608 37.9167 29.7608C37.2917 29.8594 36.6667 29.465 36.6667 28.8735L37.8125 21.9719ZM41.875 21.9719H43.125L43.75 28.8735C43.75 29.3664 43.2292 29.8594 42.5 29.8594C41.7708 29.8594 41.25 29.465 41.25 28.8735L41.875 21.9719ZM45.2083 21.9719H47.2917L48.4375 28.8735C48.4375 29.3664 47.9167 29.8594 47.1875 29.8594C46.4583 29.8594 45.9375 29.465 45.9375 28.8735L45.2083 21.9719ZM34.4792 21.9719H35.8333L34.5833 28.6763V28.7749V28.8735C34.5833 29.465 34.0625 29.8594 33.3333 29.8594C32.7083 29.8594 32.1875 29.465 32.0833 28.9721L34.4792 21.9719ZM33.6458 31.8313C34.375 31.7327 35.1042 31.5355 35.625 31.0425C36.25 31.5355 36.9792 31.8313 37.9167 31.8313C38.2292 31.8313 38.5417 31.7327 38.8542 31.7327V35.7751C38.8542 35.1835 38.4375 34.7891 37.8125 34.7891C37.1875 34.7891 36.7708 35.1835 36.7708 35.7751V36.761C36.7708 37.3526 37.1875 37.7469 37.8125 37.7469C38.4375 37.7469 38.8542 37.3526 38.8542 36.761V42.6766H33.6458V31.8313ZM40.9375 42.6766V31.4369C41.3542 31.6341 41.9792 31.8313 42.5 31.8313C43.4375 31.8313 44.1667 31.5355 44.7917 31.0425C45.4167 31.5355 46.1458 31.8313 47.0833 31.8313C48.0208 31.8313 48.75 31.5355 49.375 31.0425C49.8958 31.4369 50.625 31.7327 51.3542 31.8313V42.6766H40.9375Z" fill="#565656"/>
<path d="M46.8748 34.4927C47.2915 34.0984 47.2915 33.5068 46.8748 33.1124C46.4582 32.7181 45.8332 32.7181 45.4165 33.1124L42.2915 36.0703C41.8748 36.4646 41.8748 37.0562 42.2915 37.4506C42.4998 37.6478 42.8123 37.7464 43.0207 37.7464C43.229 37.7464 43.5415 37.6478 43.7498 37.4506L46.8748 34.4927Z" fill="#565656"/>
<path d="M47.4998 35.0919L43.3331 39.0357C42.9165 39.4301 42.9165 40.0216 43.3331 40.416C43.5415 40.6132 43.854 40.7118 44.0623 40.7118C44.2706 40.7118 44.5831 40.6132 44.7915 40.416L48.9581 36.4722C49.3748 36.0779 49.3748 35.4863 48.9581 35.0919C48.5415 34.6975 47.9165 34.6975 47.4998 35.0919Z" fill="#565656"/>
<rect x="7.5" y="0.5" width="69" height="64" rx="22.5" stroke="#E0E3E5"/>
<path d="M24.582 82.635V80.23H28.144V79.359H21.202V77.604H27.767V76.759H21.202V75.121H28.027V74.25H20.123V80.23H23.516V82.635H18.758V83.506H29.353V82.635H24.582ZM33.122 81.062H32.056V84.702H40.181V83.831H33.122V81.062ZM39.622 79.047C39.947 77.292 39.947 76.031 39.947 74.926V73.925H32.069V74.783H38.894V74.926C38.894 75.329 38.894 75.771 38.868 76.252L31.783 76.486L31.926 77.357L38.829 77.045C38.777 77.643 38.699 78.306 38.543 79.047H30.717V79.918H41.312V79.047H39.622ZM46.147 74.406H45.12V76.629C45.12 78.631 44.158 80.724 42.559 81.66L43.222 82.453C44.379 81.738 45.224 80.425 45.64 78.878C46.056 80.295 46.836 81.53 47.941 82.206L48.552 81.374C47.018 80.438 46.147 78.462 46.147 76.59V74.406ZM49.215 77.487H47.291V78.371H49.215V84.39H50.216V73.561H49.215V77.487ZM51.581 73.301V84.962H52.595V73.301H51.581ZM64.216 73.301H63.15V79.281H64.216V73.301ZM55.948 76.317C55.948 75.303 56.793 74.588 57.924 74.588C59.068 74.588 59.9 75.303 59.9 76.317C59.9 77.318 59.068 78.033 57.924 78.033C56.793 78.033 55.948 77.318 55.948 76.317ZM60.94 76.317C60.94 74.77 59.666 73.717 57.924 73.717C56.182 73.717 54.921 74.77 54.921 76.317C54.921 77.851 56.182 78.891 57.924 78.891C59.666 78.891 60.94 77.851 60.94 76.317ZM57.742 83.961V82.674H64.216V79.853H56.663V80.698H63.163V81.881H56.689V84.806H64.606V83.961H57.742Z" fill="black"/>
</g>
<defs>
<clipPath id="clip0">
<rect width="83" height="95" fill="white"/>
</clipPath>
</defs>
</svg>
