<svg width="83" height="95" viewBox="0 0 83 95" fill="none" xmlns="http://www.w3.org/2000/svg">
<g clip-path="url(#clip0)">
<rect x="7.5" y="0.5" width="69" height="64" rx="22.5" fill="white"/>
<path d="M31.25 43.5V39.5C36.5833 39.6667 47.95 39.9 50.75 39.5C52.8707 39.197 53.5955 36.5804 53.75 34.3872V32.5C53.7904 33.0256 53.7995 33.6847 53.75 34.3872V43.5H31.25Z" fill="#FFC700"/>
<path d="M52.9253 20H31.9935C30.8971 20 30 20.9926 30 22.2059V24.4118V27.7206V42.7941C30 44.0074 30.8971 45 31.9935 45H52.9253C54.0218 45 54.9188 44.0074 54.9188 42.7941V27.7206V24.4118V22.2059C54.9188 20.9926 54.0218 20 52.9253 20ZM52.9253 22.2059V23.3088H31.9935V22.2059H52.9253ZM31.9935 25.5147H52.9253V26.6176H31.9935V25.5147ZM31.9935 42.7941V28.8235H52.9253V42.7941H31.9935Z" fill="#565656"/>
<path d="M50.2912 33.75H45.8414C45.3074 33.75 44.9514 34 44.9514 34.375C44.9514 34.75 45.3074 35 45.8414 35H50.2912C50.8251 35 51.1811 34.75 51.1811 34.375C51.1811 34 50.8251 33.75 50.2912 33.75Z" fill="#565656"/>
<rect x="7.5" y="0.5" width="69" height="64" rx="22.5" stroke="#E0E3E5"/>
<path d="M19.278 74.562V75.42H23.529C23.334 78.15 21.891 80.373 18.758 81.907L19.343 82.739C23.217 80.828 24.595 77.877 24.595 74.562H19.278ZM27.299 73.314V77.981H24.569V78.852H27.299V84.962H28.365V73.314H27.299ZM32.147 78.67H35.462V74.575H31.081V75.446H34.422V77.799H31.12V82.167H31.887C33.33 82.167 34.643 82.115 36.255 81.842L36.177 80.958C34.695 81.218 33.473 81.27 32.147 81.283V78.67ZM39.609 73.301V77.903H37.958V73.561H36.957V84.364H37.958V78.774H39.609V84.949H40.636V73.301H39.609ZM44.327 74.718H43.261V81.933H44.002C45.263 81.933 46.602 81.868 48.175 81.569L48.071 80.646C46.68 80.919 45.445 80.997 44.327 81.01V74.718ZM51.555 73.301V78.046H49.904V73.561H48.903V84.364H49.904V78.93H51.555V84.949H52.582V73.301H51.555ZM56.455 81.686H63.176V84.975H64.255V80.815H56.455V81.686ZM60.693 77.63C60.771 77.357 60.823 77.071 60.823 76.746C60.823 76.434 60.771 76.148 60.693 75.875H63.176V77.63H60.693ZM57.82 78.657C56.689 78.657 55.844 77.864 55.844 76.746C55.844 75.654 56.689 74.861 57.82 74.861C58.964 74.861 59.809 75.654 59.809 76.746C59.809 77.864 58.964 78.657 57.82 78.657ZM63.176 73.314V75.017H60.238C59.692 74.354 58.834 73.951 57.82 73.951C56.104 73.951 54.83 75.108 54.83 76.746C54.83 78.397 56.104 79.567 57.82 79.567C58.834 79.567 59.679 79.164 60.225 78.501H63.176V80.178H64.255V73.301L63.176 73.314Z" fill="black"/>
</g>
<defs>
<clipPath id="clip0">
<rect width="83" height="95" fill="white"/>
</clipPath>
</defs>
</svg>
