<svg width="50" height="50" viewBox="0 0 50 50" fill="none" xmlns="http://www.w3.org/2000/svg">
<path d="M18.7778 19C18.7778 19.0255 18.7869 19.1696 19.0374 19.4195C19.2869 19.6683 19.6987 19.9381 20.2838 20.185C21.4475 20.6759 23.1147 21 25 21C26.8853 21 28.5525 20.6759 29.7162 20.185C30.3013 19.9381 30.7131 19.6683 30.9626 19.4195C31.2131 19.1696 31.2222 19.0255 31.2222 19C31.2222 18.9745 31.2131 18.8304 30.9626 18.5805C30.7131 18.3317 30.3013 18.0619 29.7162 17.815C28.5525 17.3241 26.8853 17 25 17C23.1147 17 21.4475 17.3241 20.2838 17.815C19.6987 18.0619 19.2869 18.3317 19.0374 18.5805C18.7869 18.8304 18.7778 18.9745 18.7778 19ZM17 19C17 18.1971 17.3889 17.5519 17.858 17.084C18.3282 16.615 18.9578 16.2384 19.6596 15.9424C21.0696 15.3475 22.958 15 25 15C27.042 15 28.9304 15.3475 30.3404 15.9424C31.0422 16.2384 31.6718 16.615 32.142 17.084C32.6111 17.5519 33 18.1971 33 19V23V27V31C33 31.8029 32.6111 32.4481 32.142 32.916C31.6718 33.385 31.0422 33.7616 30.3404 34.0576C28.9304 34.6525 27.042 35 25 35C22.958 35 21.0696 34.6525 19.6596 34.0576C18.9578 33.7616 18.3282 33.385 17.858 32.916C17.3889 32.4481 17 31.8029 17 31V27V23V19ZM18.7778 23C18.7778 23.0255 18.7869 23.1696 19.0374 23.4195C19.2869 23.6683 19.6987 23.9381 20.2838 24.185C21.4475 24.6759 23.1147 25 25 25C26.8853 25 28.5525 24.6759 29.7162 24.185C30.3013 23.9381 30.7131 23.6683 30.9626 23.4195C31.2131 23.1696 31.2222 23.0255 31.2222 23V21.6162C30.9475 21.7798 30.651 21.9266 30.3404 22.0576C28.9304 22.6525 27.042 23 25 23C22.958 23 21.0696 22.6525 19.6596 22.0576C19.349 21.9266 19.0525 21.7798 18.7778 21.6162V23ZM18.7778 25.6162V27C18.7778 27.0255 18.7869 27.1696 19.0374 27.4195C19.2869 27.6683 19.6987 27.9381 20.2838 28.185C21.4475 28.6759 23.1147 29 25 29C26.8853 29 28.5525 28.6759 29.7162 28.185C30.3013 27.9381 30.7131 27.6683 30.9626 27.4195C31.2131 27.1696 31.2222 27.0255 31.2222 27V25.6162C30.9475 25.7798 30.651 25.9266 30.3404 26.0576C28.9304 26.6525 27.042 27 25 27C22.958 27 21.0696 26.6525 19.6596 26.0576C19.349 25.9266 19.0525 25.7798 18.7778 25.6162ZM18.7778 29.6162V31C18.7778 31.0255 18.7869 31.1696 19.0374 31.4195C19.2869 31.6683 19.6987 31.9381 20.2838 32.185C21.4475 32.6759 23.1147 33 25 33C26.8853 33 28.5525 32.6759 29.7162 32.185C30.3013 31.9381 30.7131 31.6683 30.9626 31.4195C31.2131 31.1696 31.2222 31.0255 31.2222 31V29.6162C30.9475 29.7798 30.651 29.9266 30.3404 30.0576C28.9304 30.6525 27.042 31 25 31C22.958 31 21.0696 30.6525 19.6596 30.0576C19.349 29.9266 19.0525 29.7798 18.7778 29.6162Z" fill="black"/>
</svg>
