<svg width="50" height="50" viewBox="0 0 50 50" fill="none" xmlns="http://www.w3.org/2000/svg">
<path d="M21 16C21 15.4477 21.4477 15 22 15H28C28.5523 15 29 15.4477 29 16H31C32.1046 16 33 16.8954 33 18V33C33 34.1046 32.1046 35 31 35H19C17.8954 35 17 34.1046 17 33V18C17 16.8954 17.8954 16 19 16H21ZM21 18H19V33H31V18H29V19C29 19.5523 28.5523 20 28 20H22C21.4477 20 21 19.5523 21 19V18ZM27 17H23V18H27V17ZM28.7071 23.7929C29.0976 24.1834 29.0976 24.8166 28.7071 25.2071L24.7071 29.2071C24.3166 29.5976 23.6834 29.5976 23.2929 29.2071L21.2929 27.2071C20.9024 26.8166 20.9024 26.1834 21.2929 25.7929C21.6834 25.4024 22.3166 25.4024 22.7071 25.7929L24 27.0858L27.2929 23.7929C27.6834 23.4024 28.3166 23.4024 28.7071 23.7929Z" fill="black"/>
</svg>
