<svg width="50" height="50" viewBox="0 0 50 50" fill="none" xmlns="http://www.w3.org/2000/svg">
<rect x="8.5" y="8.5" width="33" height="33" stroke="black"/>
<rect x="0.5" y="0.5" width="49" height="49" stroke="black"/>
<circle cx="25" cy="25" r="15.5" stroke="black"/>
<circle cx="25" cy="25" r="10.5" stroke="black"/>
<line x1="25.5" y1="2.18557e-08" x2="25.5" y2="50" stroke="black"/>
<line y1="24.5" x2="50" y2="24.5" stroke="black"/>
<path d="M32.7778 35H17.2222C15.9949 35 15 34.0051 15 32.7778V17.2222C15 15.9949 15.9949 15 17.2222 15H32.7778C34.0051 15 35 15.9949 35 17.2222V32.7778C35 34.0051 34.0051 35 32.7778 35ZM17.2222 17.2222V32.7778H32.7778V17.2222H17.2222ZM30.5556 30.5556H28.3333V22.7778H30.5556V30.5556ZM26.1111 30.5556H23.8889V19.4444H26.1111V30.5556ZM21.6667 30.5556H19.4444V25H21.6667V30.5556Z" fill="black"/>
</svg>
