<svg width="120" height="32" viewBox="0 0 120 32" fill="none" xmlns="http://www.w3.org/2000/svg">
<path d="M38.5791 11.3537H44.0228C44.7045 11.3537 45.2855 11.4322 45.7659 11.5893C46.2463 11.7399 46.639 11.9756 46.9442 12.2964C47.2558 12.6107 47.483 13.0101 47.6258 13.4946C47.7686 13.9725 47.8402 14.5389 47.8402 15.1934C47.8402 15.75 47.7817 16.2018 47.6648 16.5488C47.5544 16.8958 47.4148 17.1708 47.2461 17.3737C47.0773 17.5767 46.889 17.724 46.6813 17.8156C46.4735 17.9007 46.2787 17.963 46.097 18.0022V18.0218C46.2138 18.035 46.3534 18.0645 46.5158 18.1102C46.678 18.1495 46.8468 18.215 47.0221 18.3066C47.1974 18.3918 47.3695 18.5096 47.5382 18.6602C47.7071 18.8042 47.8596 18.9908 47.9959 19.22C48.1323 19.4491 48.2426 19.7274 48.3271 20.0547C48.4114 20.3755 48.4536 20.752 48.4536 21.184C48.4536 22.0482 48.3692 22.7522 48.2005 23.2955C48.0316 23.8389 47.7751 24.2645 47.4311 24.5722C47.0935 24.8799 46.6618 25.0894 46.1359 25.2007C45.6166 25.3119 45.0063 25.3676 44.3052 25.3676H38.5791V11.3537ZM43.565 17.2657C43.9156 17.2657 44.2143 17.2428 44.461 17.1969C44.7077 17.1511 44.909 17.0594 45.0648 16.9219C45.227 16.7779 45.3439 16.5783 45.4153 16.3228C45.4867 16.0675 45.5224 15.7303 45.5224 15.3113C45.5224 14.9643 45.4803 14.6763 45.3959 14.4471C45.3114 14.2114 45.188 14.0249 45.0258 13.8873C44.8635 13.7499 44.6622 13.6516 44.4221 13.5928C44.1883 13.5339 43.9222 13.5044 43.6235 13.5044H40.9162V17.2657H43.565ZM44.0228 23.2169C44.3214 23.2169 44.5908 23.194 44.8311 23.1482C45.0777 23.0958 45.2855 22.9977 45.4542 22.8535C45.6296 22.7095 45.7627 22.5099 45.8535 22.2546C45.951 21.9926 45.9996 21.6489 45.9996 21.2233C45.9996 20.7977 45.9573 20.4573 45.8731 20.202C45.7951 19.9402 45.6686 19.7405 45.4932 19.6029C45.3245 19.4655 45.1069 19.3771 44.8408 19.3378C44.5811 19.292 44.2694 19.2691 43.9059 19.2691H40.9162V23.2169H44.0228ZM50.4987 20.0744C50.4987 18.9941 50.6381 18.107 50.9173 17.4129C51.1966 16.7189 51.5666 16.1723 52.0275 15.773C52.4885 15.3735 53.0144 15.0985 53.6051 14.9479C54.1958 14.7908 54.8029 14.7124 55.4261 14.7124C56.2116 14.7124 56.8608 14.8203 57.3738 15.0364C57.8931 15.2524 58.3054 15.5568 58.6104 15.9497C58.9156 16.336 59.1299 16.8008 59.2532 17.3442C59.3765 17.8876 59.4382 18.4867 59.4382 19.1414C59.4382 19.4491 59.4252 19.7666 59.3993 20.0939C59.3799 20.4214 59.3506 20.7585 59.3117 21.1055H52.8748C52.8813 21.5703 52.9299 21.9632 53.0207 22.2839C53.1182 22.5982 53.274 22.8569 53.4882 23.0597C53.7089 23.2562 53.9979 23.4002 54.355 23.4919C54.7185 23.577 55.1697 23.6195 55.7085 23.6195C56.1629 23.6195 56.5881 23.6098 56.9842 23.5902C57.3802 23.5639 57.7276 23.5344 58.0262 23.5017C58.3768 23.469 58.6949 23.4265 58.9806 23.374V25.0042C58.6494 25.1287 58.2891 25.2399 57.8996 25.3382C57.5686 25.4232 57.1822 25.4986 56.7408 25.564C56.2994 25.636 55.8287 25.6721 55.3288 25.6721C54.5627 25.6721 53.881 25.5738 53.2837 25.3775C52.6865 25.1877 52.18 24.8734 51.7646 24.4346C51.3556 23.9895 51.0407 23.4101 50.82 22.6964C50.6057 21.9828 50.4987 21.1088 50.4987 20.0744ZM57.3056 19.3574V18.9843C57.3056 18.5914 57.2797 18.251 57.2277 17.963C57.1822 17.6682 57.0849 17.4261 56.9356 17.2362C56.7862 17.0464 56.5752 16.9056 56.3025 16.8139C56.0299 16.7223 55.6663 16.6764 55.2119 16.6764C54.725 16.6764 54.3257 16.7353 54.0141 16.8531C53.7089 16.9644 53.4688 17.1347 53.2934 17.3639C53.1247 17.5864 53.0078 17.8647 52.9428 18.1987C52.8845 18.5325 52.8552 18.9188 52.8552 19.3574H57.3056ZM61.0743 20.0744C61.0743 18.9941 61.2139 18.107 61.493 17.4129C61.7722 16.7189 62.1422 16.1723 62.6032 15.773C63.0641 15.3735 63.59 15.0985 64.1807 14.9479C64.7714 14.7908 65.3785 14.7124 66.0017 14.7124C66.7872 14.7124 67.4365 14.8203 67.9494 15.0364C68.4687 15.2524 68.8811 15.5568 69.1861 15.9497C69.4912 16.336 69.7055 16.8008 69.8288 17.3442C69.9522 17.8876 70.0138 18.4867 70.0138 19.1414C70.0138 19.4491 70.0008 19.7666 69.9749 20.0939C69.9555 20.4214 69.9262 20.7585 69.8873 21.1055H63.4504C63.4569 21.5703 63.5056 21.9632 63.5964 22.2839C63.6938 22.5982 63.8496 22.8569 64.0638 23.0597C64.2846 23.2562 64.5735 23.4002 64.9306 23.4919C65.2941 23.577 65.7454 23.6195 66.2841 23.6195C66.7386 23.6195 67.1638 23.6098 67.5598 23.5902C67.9559 23.5639 68.3032 23.5344 68.6018 23.5017C68.9524 23.469 69.2705 23.4265 69.5562 23.374V25.0042C69.225 25.1287 68.8647 25.2399 68.4753 25.3382C68.1442 25.4232 67.7578 25.4986 67.3164 25.564C66.875 25.636 66.4043 25.6721 65.9044 25.6721C65.1383 25.6721 64.4566 25.5738 63.8594 25.3775C63.2621 25.1877 62.7557 24.8734 62.3402 24.4346C61.9312 23.9895 61.6164 23.4101 61.3956 22.6964C61.1813 21.9828 61.0743 21.1088 61.0743 20.0744ZM67.8812 19.3574V18.9843C67.8812 18.5914 67.8553 18.251 67.8033 17.963C67.7578 17.6682 67.6605 17.4261 67.5112 17.2362C67.3619 17.0464 67.1509 16.9056 66.8782 16.8139C66.6055 16.7223 66.242 16.6764 65.7875 16.6764C65.3006 16.6764 64.9013 16.7353 64.5897 16.8531C64.2846 16.9644 64.0444 17.1347 63.8691 17.3639C63.7003 17.5864 63.5835 17.8647 63.5185 18.1987C63.4601 18.5325 63.4308 18.9188 63.4308 19.3574H67.8812ZM72.351 10.1064H74.659V15.4489C74.964 15.3179 75.2952 15.1968 75.6522 15.0855C75.9639 14.9938 76.3274 14.9087 76.7429 14.8301C77.1584 14.7516 77.6096 14.7124 78.0965 14.7124C78.7847 14.7124 79.3527 14.8367 79.8006 15.0855C80.2551 15.3277 80.6154 15.6846 80.8816 16.1559C81.1478 16.6208 81.3328 17.1904 81.4367 17.8647C81.547 18.5325 81.6022 19.292 81.6022 20.143C81.6022 21.1645 81.5211 22.0254 81.3588 22.7259C81.1964 23.4265 80.9628 23.996 80.6577 24.4346C80.3525 24.8734 79.9727 25.1877 79.5182 25.3775C79.0703 25.5738 78.5607 25.6721 77.9893 25.6721C77.4959 25.6721 77.0351 25.6131 76.6066 25.4952C76.1846 25.384 75.8146 25.2563 75.4964 25.1123C75.1264 24.9421 74.7888 24.7521 74.4836 24.5427L74.3474 25.3676H72.351V10.1064ZM74.659 23.0304C74.8667 23.1351 75.1036 23.2268 75.3698 23.3053C75.597 23.3774 75.8697 23.4428 76.1879 23.5017C76.5059 23.5541 76.8631 23.5803 77.259 23.5803C77.6486 23.5803 77.9666 23.5246 78.2134 23.4133C78.46 23.2955 78.6516 23.109 78.7879 22.8535C78.9307 22.5917 79.0281 22.2512 79.0801 21.8322C79.1385 21.4066 79.1678 20.8829 79.1678 20.2609C79.1678 19.567 79.145 18.9974 79.0995 18.5521C79.0541 18.1004 78.9567 17.7436 78.8074 17.4817C78.6646 17.2199 78.4503 17.0398 78.1647 16.9416C77.8855 16.8368 77.509 16.7845 77.0351 16.7845C76.7365 16.7845 76.4476 16.8041 76.1683 16.8434C75.8891 16.8826 75.636 16.9251 75.4088 16.971C75.1491 17.03 74.8991 17.0922 74.659 17.1576V23.0304ZM84.3095 10.1064H86.6174V25.3676H84.3095V10.1064ZM89.159 20.1823C89.159 19.305 89.2532 18.5292 89.4414 17.8549C89.6297 17.174 89.9218 16.6011 90.3179 16.1363C90.7203 15.6715 91.2268 15.3179 91.8371 15.0757C92.4473 14.8334 93.1777 14.7124 94.0281 14.7124C94.8786 14.7124 95.609 14.8334 96.2192 15.0757C96.8359 15.3179 97.3423 15.6715 97.7384 16.1363C98.1344 16.6011 98.4265 17.174 98.6147 17.8549C98.803 18.5292 98.8971 19.305 98.8971 20.1823C98.8971 21.0596 98.803 21.842 98.6147 22.5294C98.4265 23.2103 98.1344 23.7833 97.7384 24.2481C97.3423 24.713 96.8359 25.0664 96.2192 25.3087C95.609 25.551 94.8786 25.6721 94.0281 25.6721C93.1777 25.6721 92.4473 25.551 91.8371 25.3087C91.2268 25.0664 90.7203 24.713 90.3179 24.2481C89.9218 23.7833 89.6297 23.2103 89.4414 22.5294C89.2532 21.842 89.159 21.0596 89.159 20.1823ZM94.0281 23.6981C94.541 23.6981 94.9565 23.6229 95.2746 23.4723C95.5927 23.3152 95.8394 23.0892 96.0147 22.7947C96.19 22.4935 96.3069 22.1268 96.3652 21.6948C96.4302 21.256 96.4627 20.752 96.4627 20.1823C96.4627 19.6193 96.4302 19.1217 96.3652 18.6897C96.3069 18.251 96.19 17.8844 96.0147 17.5898C95.8394 17.2885 95.5927 17.0627 95.2746 16.9121C94.9565 16.755 94.541 16.6764 94.0281 16.6764C93.5218 16.6764 93.1095 16.755 92.7914 16.9121C92.4733 17.0627 92.2233 17.2885 92.0415 17.5898C91.8663 17.8844 91.7461 18.251 91.6812 18.6897C91.6227 19.1217 91.5936 19.6193 91.5936 20.1823C91.5936 20.752 91.6227 21.256 91.6812 21.6948C91.7461 22.1268 91.8663 22.4935 92.0415 22.7947C92.2233 23.0892 92.4733 23.3152 92.7914 23.4723C93.1095 23.6229 93.5218 23.6981 94.0281 23.6981ZM100.728 20.1823C100.728 19.2003 100.845 18.3656 101.079 17.6782C101.319 16.9907 101.64 16.4341 102.043 16.0087C102.452 15.5765 102.929 15.2622 103.474 15.0658C104.019 14.8694 104.601 14.7712 105.217 14.7712C105.691 14.7712 106.116 14.8039 106.493 14.8694C106.869 14.9284 107.191 14.9938 107.457 15.0658C107.769 15.1509 108.038 15.2459 108.265 15.3506V16.9612C108.045 16.9416 107.804 16.9187 107.545 16.8924C107.324 16.8794 107.074 16.8663 106.795 16.8531C106.516 16.8336 106.224 16.8238 105.918 16.8238C105.431 16.8238 105.013 16.8663 104.662 16.9514C104.312 17.0366 104.026 17.2001 103.805 17.4424C103.584 17.6782 103.422 18.0152 103.318 18.454C103.214 18.886 103.162 19.4557 103.162 20.1627C103.162 20.8829 103.221 21.4656 103.338 21.9108C103.461 22.3559 103.646 22.7029 103.893 22.9518C104.14 23.194 104.448 23.3577 104.818 23.4428C105.188 23.5214 105.626 23.5607 106.133 23.5607C106.451 23.5607 106.743 23.5541 107.009 23.541C107.282 23.5214 107.519 23.4985 107.72 23.4723C107.954 23.446 108.165 23.4133 108.353 23.374V25.0042C108.145 25.1221 107.892 25.2269 107.593 25.3185C107.34 25.3971 107.022 25.4691 106.639 25.5345C106.256 25.6001 105.808 25.6328 105.295 25.6328C104.665 25.6328 104.071 25.5444 103.513 25.3676C102.961 25.1974 102.478 24.9029 102.062 24.4838C101.653 24.0648 101.328 23.5083 101.088 22.8142C100.848 22.1138 100.728 21.2365 100.728 20.1823ZM110.836 10.1064H113.144V18.7878H114.663L117.341 15.0069H119.98L116.475 19.8386L120 25.3676H117.361L114.391 20.7225H113.144V25.3676H110.836V10.1064Z" fill="white"/>
<path fill-rule="evenodd" clip-rule="evenodd" d="M21.8264 18.6943C21.3513 18.6943 20.9124 18.9499 20.6748 19.3648L18.8186 22.607C18.5811 23.0219 18.5811 23.533 18.8186 23.9479L20.6748 27.1902C20.9124 27.605 21.3513 27.8606 21.8264 27.8606H25.5387C26.0138 27.8606 26.4526 27.605 26.6902 27.1902L28.5465 23.9479C28.7839 23.533 28.7839 23.0219 28.5465 22.607L26.6902 19.3648C26.4526 18.9499 26.0138 18.6943 25.5387 18.6943H21.8264ZM25.5387 20.0352H21.8264L19.9701 23.2775L21.8264 26.5197H25.5387L27.3949 23.2775L25.5387 20.0352Z" fill="white"/>
<path fill-rule="evenodd" clip-rule="evenodd" d="M18.2231 3.44063C17.9474 3.90471 17.7441 4.39185 17.5991 5.01848C16.6464 5.05802 15.6529 5.27868 14.6722 5.64363C14.9407 1.61043 12.1059 -1.20698 8.43015 0.515692C7.14953 1.11491 6.12868 2.3925 6.68164 3.85444C4.9204 3.73582 3.23909 4.28098 1.95343 5.00242C1.0261 5.52608 0.353735 6.20493 0.111898 6.91508C-0.18194 7.79647 0.083994 8.64475 1.13518 9.3015C2.4043 10.0862 5.11659 10.5837 9.91652 10.2724C9.87926 15.0446 12.5425 17.5742 16.8848 18.3148L16.0306 19.8071C12.0864 18.654 8.47092 16.3157 8.95407 11.5865L7.47551 11.634L7.31439 11.961C6.0106 14.6069 5.59716 19.2669 8.07291 21.3823L8.9097 25.7643L13.347 22.0583C12.8367 21.8783 12.3412 21.6679 11.8581 21.4232L9.8403 23.1403L9.59235 20.6386C7.67593 19.3036 7.53745 17.1991 7.92573 15.0319C8.95871 18.3905 12.0738 20.1641 15.2637 21.1466L14.4275 22.6072C14.1899 23.022 14.1899 23.5332 14.4275 23.948L18.4795 31.0259C18.717 31.4408 19.156 31.6963 19.631 31.6963H27.7351C28.2102 31.6963 28.6491 31.4408 28.8867 31.0259L32.9387 23.948C33.1762 23.5332 33.1762 23.022 32.9387 22.6072L28.8867 15.5294C28.6491 15.1146 28.2102 14.859 27.7351 14.859H21.3926C25.1777 12.5691 23.7161 5.99659 19.112 5.12446C19.2137 4.77789 19.3375 4.48886 19.5003 4.22067C19.7813 3.74809 20.1822 3.29782 20.7232 2.69026L20.7241 2.68932L19.6161 1.68065C19.0163 2.35521 18.5705 2.85879 18.2231 3.44063ZM20.0562 9.83431C18.8613 9.82513 18.6363 8.58972 18.8053 7.64005L17.3306 7.37622C16.9909 9.282 17.8815 11.3336 20.0483 11.3463C20.8059 11.3498 21.5212 11.0363 22.0364 10.476C22.2968 12.5313 20.8812 13.8869 18.9196 14.1017C14.9224 14.5422 13.6742 10.8174 14.4139 7.38273C15.7699 6.75592 17.1626 6.42755 18.395 6.53963C21.7197 6.84324 21.921 9.84379 20.0562 9.83431ZM18.4155 15.6414C13.7138 15.7375 11.9767 11.1099 13.0378 6.71996C13.5642 3.74573 12.4006 0.318605 9.05861 1.88489C8.54269 2.12563 8.15415 2.47656 8.05102 2.86737C7.83564 3.67055 8.74815 4.74964 12.1919 5.7105L11.9985 7.21662C11.1702 6.98617 10.4108 6.68621 9.67983 6.39746C7.46346 5.52196 5.5079 4.74948 2.68132 6.32999C2.06747 6.67113 1.64572 7.05767 1.52966 7.4072C1.46624 7.59595 1.57694 7.80803 1.921 8.02522C3.06062 8.7335 5.80695 9.1407 11.0101 8.71931L11.3659 8.68565L11.4302 8.64821C11.0711 13.5024 12.6419 16.2778 17.6859 16.9156L18.4155 15.6414ZM20.0915 17.0044L16.5001 23.2776L20.0915 29.551H27.2746L30.8662 23.2776L27.2746 17.0044H20.0915Z" fill="white"/>
</svg>
