<svg width="382" height="225" viewBox="0 0 382 225" fill="none" xmlns="http://www.w3.org/2000/svg">
<g filter="url(#filter0_i)">
<rect width="382" height="225" fill="white"/>
<rect width="382" height="225" fill="white"/>
<path d="M1.358 26H4.802C7.084 26 8.75 25.02 8.75 22.976C8.75 21.576 7.896 20.778 6.72 20.526V20.456C7.644 20.148 8.19 19.21 8.19 18.23C8.19 16.368 6.664 15.682 4.55 15.682H1.358V26ZM2.982 19.994V16.956H4.41C5.866 16.956 6.594 17.362 6.594 18.44C6.594 19.406 5.936 19.994 4.368 19.994H2.982ZM2.982 24.726V21.212H4.62C6.258 21.212 7.154 21.73 7.154 22.892C7.154 24.152 6.23 24.726 4.62 24.726H2.982ZM12.3994 26H14.0234V17.054H17.0614V15.682H9.37541V17.054H12.3994V26ZM22.4658 26.182C23.7958 26.182 24.8458 25.65 25.6718 24.698L24.8038 23.676C24.1878 24.348 23.4738 24.768 22.5218 24.768C20.7018 24.768 19.5538 23.27 19.5538 20.82C19.5538 18.398 20.7858 16.914 22.5638 16.914C23.4038 16.914 24.0478 17.292 24.5798 17.838L25.4618 16.802C24.8318 16.116 23.8238 15.5 22.5358 15.5C19.9318 15.5 17.8878 17.516 17.8878 20.876C17.8878 24.25 19.8758 26.182 22.4658 26.182Z" fill="#737373"/>
<path d="M1.68 39.93L1.876 41.148L9.338 40.742C9.268 41.568 9.128 42.492 8.904 43.542L10.332 43.71C10.892 41.036 10.878 39.286 10.878 37.746V36.584H2.044V37.746H9.45C9.45 38.32 9.45 38.95 9.422 39.636L1.68 39.93ZM6.426 45.306V42.128H4.97V45.306H0.7V46.496H12.138V45.306H6.426ZM24.0089 35.436H22.5669V44.62H24.0089V35.436ZM15.2449 39.44C15.2449 38.278 16.0709 37.522 17.1909 37.522C18.2969 37.522 19.1369 38.278 19.1369 39.44C19.1369 40.588 18.2969 41.358 17.1909 41.358C16.0709 41.358 15.2449 40.588 15.2449 39.44ZM20.5369 39.44C20.5369 37.592 19.0949 36.276 17.1909 36.276C15.2869 36.276 13.8309 37.592 13.8309 39.44C13.8309 41.274 15.2869 42.604 17.1909 42.604C19.0949 42.604 20.5369 41.274 20.5369 39.44ZM17.2049 46.664V43.696H15.7489V47.84H24.3729V46.664H17.2049ZM40.5783 41.414C38.0863 40.994 36.0563 39.118 36.0563 37.158V36.206H34.5303V37.158C34.5303 39.104 32.5003 40.994 29.9943 41.414L30.6103 42.618C32.6683 42.212 34.4603 40.952 35.3003 39.272C36.1123 40.952 37.9043 42.212 39.9763 42.618L40.5783 41.414ZM36.0003 45.32V42.366H34.5583V45.32H29.6163V46.51H41.0683V45.32H36.0003ZM42.9573 37.032V38.208H46.4993C46.3033 40.756 45.1553 42.828 42.4253 44.41L43.2653 45.432C46.8213 43.388 47.9273 40.406 47.9273 37.032H42.9573ZM51.8753 35.436V40.378H50.4333V35.772H49.0753V47.49H50.4333V41.554H51.8753V48.078H53.2473V35.436H51.8753ZM56.7462 41.68C57.3482 41.68 57.8242 41.204 57.8242 40.56C57.8242 39.902 57.3482 39.412 56.7462 39.412C56.1442 39.412 55.6682 39.902 55.6682 40.56C55.6682 41.204 56.1442 41.68 56.7462 41.68ZM56.7462 47.182C57.3482 47.182 57.8242 46.72 57.8242 46.062C57.8242 45.39 57.3482 44.914 56.7462 44.914C56.1442 44.914 55.6682 45.39 55.6682 46.062C55.6682 46.72 56.1442 47.182 56.7462 47.182ZM9.66 55.422V68.106H11.116V55.422H9.66ZM1.386 56.472V65.096H7.462V56.472H6.02V59.692H2.814V56.472H1.386ZM2.814 60.84H6.02V63.934H2.814V60.84ZM23.7709 62.114H16.4769V60.378H23.3929V59.244H16.4769V57.62H23.6729V56.458H15.0069V63.276H23.7709V62.114ZM13.5929 65.348V66.524H25.0589V65.348H13.5929ZM27.4378 59.93L27.6338 61.148L35.0958 60.742C35.0258 61.568 34.8858 62.492 34.6618 63.542L36.0898 63.71C36.6498 61.036 36.6358 59.286 36.6358 57.746V56.584H27.8018V57.746H35.2078C35.2078 58.32 35.2078 58.95 35.1798 59.636L27.4378 59.93ZM32.1838 65.306V62.128H30.7278V65.306H26.4578V66.496H37.8958V65.306H32.1838ZM49.7667 55.436H48.3247V64.62H49.7667V55.436ZM41.0027 59.44C41.0027 58.278 41.8287 57.522 42.9487 57.522C44.0547 57.522 44.8947 58.278 44.8947 59.44C44.8947 60.588 44.0547 61.358 42.9487 61.358C41.8287 61.358 41.0027 60.588 41.0027 59.44ZM46.2947 59.44C46.2947 57.592 44.8527 56.276 42.9487 56.276C41.0447 56.276 39.5887 57.592 39.5887 59.44C39.5887 61.274 41.0447 62.604 42.9487 62.604C44.8527 62.604 46.2947 61.274 46.2947 59.44ZM42.9627 66.664V63.696H41.5067V67.84H50.1307V66.664H42.9627ZM57.9416 56.99C59.7896 56.99 60.9516 57.508 60.9516 58.39C60.9516 59.286 59.7896 59.804 57.9416 59.804C56.0796 59.804 54.9176 59.286 54.9176 58.39C54.9176 57.508 56.0796 56.99 57.9416 56.99ZM57.9416 60.966C60.6716 60.966 62.4496 60 62.4496 58.39C62.4496 56.794 60.6716 55.828 57.9416 55.828C55.2116 55.828 53.4336 56.794 53.4336 58.39C53.4336 60 55.2116 60.966 57.9416 60.966ZM55.1136 64.158H53.6576V67.84H62.3796V66.664H55.1136V64.158ZM52.2156 61.988V63.164H63.6536V61.988H52.2156ZM68.1551 67H74.8051V65.628H72.2291C71.7251 65.628 71.0811 65.67 70.5491 65.726C72.7331 63.64 74.3151 61.582 74.3151 59.594C74.3151 57.732 73.0971 56.5 71.2071 56.5C69.8631 56.5 68.9531 57.074 68.0711 58.04L68.9811 58.936C69.5271 58.306 70.1991 57.788 71.0111 57.788C72.1731 57.788 72.7611 58.558 72.7611 59.678C72.7611 61.372 71.1931 63.374 68.1551 66.062V67ZM79.5134 67.182C81.5294 67.182 82.8454 65.39 82.8454 61.806C82.8454 58.25 81.5294 56.5 79.5134 56.5C77.4974 56.5 76.1814 58.236 76.1814 61.806C76.1814 65.39 77.4974 67.182 79.5134 67.182ZM79.5134 65.908C78.4634 65.908 77.7214 64.788 77.7214 61.806C77.7214 58.852 78.4634 57.774 79.5134 57.774C80.5634 57.774 81.3054 58.852 81.3054 61.806C81.3054 64.788 80.5634 65.908 79.5134 65.908ZM87.4978 67.182C89.5138 67.182 90.8298 65.39 90.8298 61.806C90.8298 58.25 89.5138 56.5 87.4978 56.5C85.4818 56.5 84.1658 58.236 84.1658 61.806C84.1658 65.39 85.4818 67.182 87.4978 67.182ZM87.4978 65.908C86.4478 65.908 85.7058 64.788 85.7058 61.806C85.7058 58.852 86.4478 57.774 87.4978 57.774C88.5478 57.774 89.2898 58.852 89.2898 61.806C89.2898 64.788 88.5478 65.908 87.4978 65.908ZM93.5922 59.888C93.5922 58.544 94.2922 57.746 95.1742 57.746C96.2942 57.746 97.0642 58.67 97.2182 60.7C96.6302 61.582 95.9022 61.96 95.2582 61.96C94.1802 61.96 93.5922 61.204 93.5922 59.888ZM94.8942 67.182C96.8822 67.182 98.7302 65.558 98.7302 61.498C98.7302 58.082 97.1342 56.5 95.1602 56.5C93.4942 56.5 92.0942 57.844 92.0942 59.888C92.0942 62.044 93.2562 63.122 94.9782 63.122C95.7622 63.122 96.6442 62.66 97.2462 61.918C97.1482 64.858 96.0702 65.866 94.8242 65.866C94.1802 65.866 93.5502 65.558 93.1442 65.096L92.2622 66.09C92.8642 66.706 93.7042 67.182 94.8942 67.182ZM109.221 64.774H110.663V55.436H109.221V56.976H105.861V58.124H109.221V59.37H105.861V60.518H109.221V64.774ZM107.261 61.386C105.511 61.694 103.985 61.792 102.347 61.806V56.304H100.905V62.996H101.885C103.761 62.996 105.441 62.912 107.401 62.562L107.261 61.386ZM103.901 66.664V63.948H102.459V67.84H110.985V66.664H103.901ZM120.736 58.726H123.41V57.564H120.75V55.688H119.294V57.564H116.578V58.726H119.308V59.454C119.308 61.526 118.118 63.668 116.186 64.578L116.984 65.698C118.44 65.012 119.49 63.626 120.036 61.974C120.596 63.528 121.674 64.816 123.102 65.474L123.858 64.368C121.94 63.486 120.736 61.428 120.736 59.454V58.726ZM125.258 55.408V60.406H122.752V61.582H125.258V68.106H126.7V55.408H125.258ZM134.805 55.702C132.047 55.702 130.297 56.612 130.297 58.124C130.297 59.622 132.047 60.546 134.805 60.546C137.563 60.546 139.313 59.622 139.313 58.124C139.313 56.612 137.563 55.702 134.805 55.702ZM134.805 56.822C136.681 56.822 137.815 57.284 137.815 58.124C137.815 58.95 136.681 59.412 134.805 59.412C132.929 59.412 131.781 58.95 131.781 58.124C131.781 57.284 132.929 56.822 134.805 56.822ZM130.451 63.696V67.924H139.131V63.696H130.451ZM137.717 64.844V66.776H131.879V64.844H137.717ZM129.079 61.47V62.618H140.517V61.47H129.079ZM153.11 59.86H154.44V63.206H155.812V55.45H154.44V58.684H153.11V55.674H151.752V62.8H153.11V59.86ZM151.458 61.232C149.82 60.588 148.994 59.202 148.994 57.802V56.206H147.594V57.802C147.594 59.244 146.74 60.826 145.046 61.596L145.802 62.702C147.02 62.17 147.846 61.19 148.308 60.028C148.784 61.036 149.568 61.876 150.688 62.31L151.458 61.232ZM151.598 66.972C149.82 66.972 148.756 66.538 148.756 65.768C148.756 64.984 149.82 64.55 151.598 64.55C153.376 64.55 154.44 64.984 154.44 65.768C154.44 66.538 153.376 66.972 151.598 66.972ZM151.598 63.444C148.966 63.444 147.314 64.312 147.314 65.768C147.314 67.21 148.966 68.078 151.598 68.078C154.23 68.078 155.882 67.21 155.882 65.768C155.882 64.312 154.23 63.444 151.598 63.444ZM168.397 55.436H166.955V64.62H168.397V55.436ZM158.877 56.388V57.564H163.175C162.923 59.622 161.117 61.274 158.177 62.142L158.751 63.29C162.503 62.156 164.729 59.748 164.729 56.388H158.877ZM161.551 66.678V63.864H160.109V67.84H168.691V66.678H161.551ZM182.965 55.422V68.106H184.421V55.422H182.965ZM177.687 56.36C175.811 56.36 174.439 58.096 174.439 60.812C174.439 63.556 175.811 65.278 177.687 65.278C179.577 65.278 180.949 63.556 180.949 60.812C180.949 58.096 179.577 56.36 177.687 56.36ZM177.687 57.662C178.793 57.662 179.563 58.852 179.563 60.812C179.563 62.8 178.793 63.99 177.687 63.99C176.595 63.99 175.825 62.8 175.825 60.812C175.825 58.852 176.595 57.662 177.687 57.662ZM197.692 56.822H193.324V55.408H191.882V56.822H187.458V57.97H197.692V56.822ZM195.312 60.728C195.312 61.414 194.374 61.792 192.61 61.792C190.846 61.792 189.894 61.414 189.894 60.728C189.894 60.042 190.846 59.678 192.61 59.678C194.374 59.678 195.312 60.042 195.312 60.728ZM188.396 60.728C188.396 62.1 189.978 62.87 192.61 62.87C195.242 62.87 196.824 62.1 196.824 60.728C196.824 59.356 195.242 58.586 192.61 58.586C189.978 58.586 188.396 59.356 188.396 60.728ZM198.35 63.626H186.884V64.788H191.882V68.092H193.324V64.788H198.35V63.626ZM203.537 56.766V57.942H207.961C207.667 60.854 206.001 63.08 202.907 64.662L203.705 65.768C207.835 63.682 209.403 60.434 209.403 56.766H203.537ZM214.625 60.42H212.707V55.422H211.265V68.064H212.707V61.624H214.625V60.42ZM223.22 61.386C221.288 60.77 220.238 59.3 220.238 57.732V57.494H222.884V56.332H216.094V57.494H218.782V57.746C218.782 59.468 217.676 61.092 215.688 61.778L216.416 62.912C217.928 62.394 218.992 61.316 219.552 59.972C220.098 61.148 221.106 62.058 222.52 62.506L223.22 61.386ZM221.596 66.944C219.832 66.944 218.81 66.496 218.81 65.684C218.81 64.858 219.832 64.424 221.596 64.424C223.36 64.424 224.382 64.858 224.382 65.684C224.382 66.496 223.36 66.944 221.596 66.944ZM221.596 63.29C218.992 63.29 217.382 64.172 217.382 65.684C217.382 67.182 218.992 68.078 221.596 68.078C224.2 68.078 225.81 67.182 225.81 65.684C225.81 64.172 224.2 63.29 221.596 63.29ZM225.67 58.516V55.436H224.228V62.996H225.67V59.706H227.462V58.516H225.67ZM236.765 60.308H233.685V57.382H236.765V60.308ZM238.179 56.234H232.257V61.456H238.179V56.234ZM234.441 62.94H233.041V67.756H233.699C234.721 67.756 235.813 67.7 236.961 67.308L236.723 66.16C235.967 66.412 235.169 66.524 234.441 66.566V62.94ZM239.677 67.084C239.033 67.084 238.557 66.79 238.557 66.3C238.557 65.796 239.033 65.516 239.677 65.516C240.307 65.516 240.783 65.796 240.783 66.3C240.783 66.79 240.307 67.084 239.677 67.084ZM239.677 64.508C238.277 64.508 237.283 65.208 237.283 66.3C237.283 67.392 238.277 68.078 239.677 68.078C241.063 68.078 242.057 67.392 242.057 66.3C242.057 65.208 241.063 64.508 239.677 64.508ZM240.377 62.044H238.977V63.052H236.499V64.116H242.841V63.052H240.377V62.044ZM241.693 58.194V55.436L240.251 55.422V61.82H241.693V59.384H243.485V58.194H241.693ZM250.414 56.99C252.262 56.99 253.424 57.508 253.424 58.39C253.424 59.286 252.262 59.804 250.414 59.804C248.552 59.804 247.39 59.286 247.39 58.39C247.39 57.508 248.552 56.99 250.414 56.99ZM250.414 60.966C253.144 60.966 254.922 60 254.922 58.39C254.922 56.794 253.144 55.828 250.414 55.828C247.684 55.828 245.906 56.794 245.906 58.39C245.906 60 247.684 60.966 250.414 60.966ZM247.586 64.158H246.13V67.84H254.852V66.664H247.586V64.158ZM244.688 61.988V63.164H256.126V61.988H244.688ZM271.142 55.436H269.7V64.62H271.142V55.436ZM262.378 59.44C262.378 58.278 263.204 57.522 264.324 57.522C265.43 57.522 266.27 58.278 266.27 59.44C266.27 60.588 265.43 61.358 264.324 61.358C263.204 61.358 262.378 60.588 262.378 59.44ZM267.67 59.44C267.67 57.592 266.228 56.276 264.324 56.276C262.42 56.276 260.964 57.592 260.964 59.44C260.964 61.274 262.42 62.604 264.324 62.604C266.228 62.604 267.67 61.274 267.67 59.44ZM264.338 66.664V63.696H262.882V67.84H271.506V66.664H264.338ZM274.319 56.766V57.942H278.827C278.575 60.854 277.007 63.08 273.689 64.676L274.459 65.824C278.799 63.724 280.311 60.532 280.311 56.766H274.319ZM282.593 55.436V68.078H284.035V55.436H282.593ZM295.066 57.592H287.94V60.434H296.718V59.426H289.354V58.53H296.494V55.744H287.912V56.738H295.066V57.592ZM289.256 65.978H296.536V63.15H287.8V64.144H295.108V65.04H287.828V67.938H296.914V66.944H289.256V65.978ZM286.47 61.232V62.296H297.936V61.232H286.47ZM305.307 65.544H312.517V62.268H303.837V63.402H311.075V64.494H303.865V67.924H312.881V66.776H305.307V65.544ZM312.167 60C312.545 58.404 312.545 57.186 312.545 56.444V55.87H308.443V57.018H311.145C311.117 57.746 311.047 58.726 310.697 60H307.211C307.645 58.46 307.645 57.228 307.645 56.472V55.87H303.501V57.018H306.245C306.217 57.76 306.133 58.712 305.755 60H302.493V61.162H313.959V60H312.167ZM324.122 57.858C324.122 59.37 324.122 61.162 323.632 63.64L325.088 63.794C325.578 61.176 325.578 59.426 325.578 57.858V56.612H316.576V57.788H324.122V57.858ZM321.098 65.236V60.784H319.642V65.236H315.386V66.426H326.81V65.236H321.098ZM341.825 55.45H340.383V62.632H341.825V55.45ZM335.007 57.326C336.127 57.326 336.953 58.04 336.953 59.118C336.953 60.21 336.127 60.91 335.007 60.91C333.887 60.91 333.061 60.21 333.061 59.118C333.061 58.04 333.887 57.326 335.007 57.326ZM335.007 62.1C336.939 62.1 338.353 60.882 338.353 59.118C338.353 57.354 336.939 56.136 335.007 56.136C333.075 56.136 331.647 57.354 331.647 59.118C331.647 60.882 333.075 62.1 335.007 62.1ZM340.481 63.178H339.067V63.738C339.067 64.69 338.535 65.88 337.415 66.636C336.309 65.936 335.819 64.802 335.819 63.738V63.178H334.419V63.738C334.419 64.97 333.579 66.272 331.969 66.846L332.669 67.91C333.845 67.476 334.657 66.664 335.119 65.67C335.511 66.692 336.253 67.56 337.443 68.022C338.591 67.546 339.347 66.636 339.753 65.642C340.187 66.664 341.013 67.476 342.231 67.91L342.945 66.846C341.307 66.314 340.481 65.04 340.481 63.738V63.178ZM354.438 59.062H347.2V55.884H345.758V60.238H354.438V59.062ZM347.116 64.074H345.674V67.798H354.508V66.636H347.116V64.074ZM344.274 61.75V62.912H355.754V61.75H344.274ZM361.88 59.16C361.88 58.082 362.692 57.368 363.826 57.368C364.96 57.368 365.786 58.082 365.786 59.16C365.786 60.28 364.96 60.98 363.826 60.98C362.692 60.98 361.88 60.28 361.88 59.16ZM367.2 59.16C367.2 57.396 365.758 56.164 363.826 56.164C361.908 56.164 360.466 57.396 360.466 59.16C360.466 60.952 361.908 62.198 363.826 62.198C365.758 62.198 367.2 60.952 367.2 59.16ZM363.532 64.424H368.768V66.776H363.532V64.424ZM362.104 67.924H370.182V63.276H362.104V67.924ZM371.974 58.39H370.182V55.436H368.74V62.688H370.182V59.58H371.974V58.39ZM11.578 77.158H7.14V75.604H5.698V77.158H1.232V78.32H11.578V77.158ZM3.668 81.47C3.668 80.644 4.676 80.168 6.398 80.168C8.134 80.168 9.142 80.644 9.142 81.47C9.142 82.31 8.134 82.786 6.398 82.786C4.676 82.786 3.668 82.31 3.668 81.47ZM7.14 85.516V83.892C9.31 83.724 10.612 82.87 10.612 81.47C10.612 79.944 8.988 79.048 6.398 79.048C3.822 79.048 2.198 79.944 2.198 81.47C2.198 82.87 3.528 83.738 5.698 83.892V85.516H0.7V86.706H12.166V85.516H7.14ZM21.1809 76.892H18.1569V75.478H16.7149V76.892H13.6629V78.054H21.1809V76.892ZM15.7629 81.05C15.7629 80.266 16.4489 79.79 17.4429 79.79C18.4369 79.79 19.1089 80.266 19.1089 81.05C19.1089 81.82 18.4369 82.296 17.4429 82.296C16.4489 82.296 15.7629 81.82 15.7629 81.05ZM18.1569 83.346C19.5569 83.122 20.4669 82.254 20.4669 81.05C20.4669 79.622 19.2349 78.684 17.4429 78.684C15.6369 78.684 14.4049 79.622 14.4049 81.05C14.4049 82.254 15.3149 83.108 16.7149 83.346V84.578C15.5389 84.62 14.4049 84.62 13.4389 84.62L13.6349 85.81C15.8049 85.81 18.7309 85.782 21.4329 85.306L21.3209 84.242C20.3129 84.396 19.2349 84.466 18.1569 84.522V83.346ZM25.2689 80.714H23.4769V75.422H22.0349V88.078H23.4769V81.904H25.2689V80.714ZM28.8098 78.096H30.1118V83.85C29.6778 83.864 29.2438 83.878 28.8098 83.892V78.096ZM31.3998 78.096H32.3378V76.934H26.5838V78.096H27.5078V83.92C27.0738 83.92 26.6818 83.92 26.3318 83.92L26.4998 85.11C28.1378 85.11 30.7138 85.054 32.6458 84.704L32.5758 83.654C32.2118 83.696 31.8198 83.724 31.3998 83.766V78.096ZM33.4998 78.978H32.0438V80.154H33.4998V81.596H32.0438V82.772H33.4998V87.448H34.8578V75.716H33.4998V78.978ZM35.9638 75.422V88.078H37.3498V75.422H35.9638ZM48.3247 75.436V82.226H49.7667V75.436H48.3247ZM41.5067 82.814V87.924H49.7667V82.814H48.3387V84.214H42.9347V82.814H41.5067ZM42.9347 85.334H48.3387V86.762H42.9347V85.334ZM42.9487 76.01C41.0167 76.01 39.5887 77.214 39.5887 78.95C39.5887 80.686 41.0167 81.89 42.9487 81.89C44.8807 81.89 46.2947 80.686 46.2947 78.95C46.2947 77.214 44.8807 76.01 42.9487 76.01ZM42.9487 77.2C44.0827 77.2 44.8947 77.9 44.8947 78.95C44.8947 80.014 44.0827 80.7 42.9487 80.7C41.8007 80.7 41.0027 80.014 41.0027 78.95C41.0027 77.9 41.8007 77.2 42.9487 77.2ZM54.3996 76.668H52.9716V84.886H54.0496C56.0096 84.886 58.0536 84.732 60.2236 84.284L60.0696 83.08C58.0816 83.486 56.1916 83.64 54.3996 83.654V76.668ZM61.2316 75.436V88.078H62.6736V75.436H61.2316ZM67.0545 77.802H71.4925V76.626H65.6125V84.984H66.6485C68.9305 84.984 70.6385 84.914 72.5565 84.564L72.4025 83.374C70.6385 83.682 69.0985 83.766 67.0545 83.78V77.802ZM76.8685 80.294H74.8945V75.422H73.4525V88.092H74.8945V81.484H76.8685V80.294ZM79.3594 87.182C79.9614 87.182 80.4374 86.72 80.4374 86.062C80.4374 85.39 79.9614 84.914 79.3594 84.914C78.7574 84.914 78.2814 85.39 78.2814 86.062C78.2814 86.72 78.7574 87.182 79.3594 87.182ZM5.138 96.486H3.696V98.558C3.696 100.896 2.464 103.29 0.49 104.256L1.372 105.418C2.814 104.676 3.878 103.206 4.424 101.456C4.97 103.108 5.978 104.48 7.336 105.18L8.218 104.032C6.314 103.094 5.138 100.812 5.138 98.558V96.486ZM12.474 100.448H10.5V95.436H9.058V108.078H10.5V101.638H12.474V100.448ZM19.2769 106.972C17.4289 106.972 16.3929 106.58 16.3929 105.81C16.3929 105.054 17.4289 104.648 19.2769 104.648C21.1249 104.648 22.1749 105.054 22.1749 105.81C22.1749 106.58 21.1249 106.972 19.2769 106.972ZM19.2769 103.542C16.5609 103.542 14.9229 104.368 14.9229 105.81C14.9229 107.266 16.5609 108.078 19.2769 108.078C22.0069 108.078 23.6309 107.266 23.6309 105.81C23.6309 104.368 22.0069 103.542 19.2769 103.542ZM17.7369 100.294C18.1989 100.364 18.7449 100.406 19.3049 100.406C19.8649 100.406 20.3829 100.364 20.8449 100.294V101.582H17.7369V100.294ZM19.3049 96.766C21.1809 96.766 22.3149 97.214 22.3149 98.026C22.3149 98.838 21.1809 99.3 19.3049 99.3C17.4149 99.3 16.2809 98.838 16.2809 98.026C16.2809 97.214 17.4149 96.766 19.3049 96.766ZM22.2869 101.582V99.916C23.2529 99.496 23.8129 98.852 23.8129 98.026C23.8129 96.542 22.0629 95.646 19.3049 95.646C16.5329 95.646 14.7969 96.542 14.7969 98.026C14.7969 98.852 15.3429 99.496 16.2949 99.902V101.582H13.5789V102.73H25.0169V101.582H22.2869ZM30.8958 97.886H33.5698V96.696H26.6958V97.886H29.4538V99.104C29.4538 101.204 28.1658 103.598 26.2338 104.522L27.0598 105.67C28.5158 104.956 29.6358 103.444 30.1958 101.68C30.7698 103.276 31.8478 104.676 33.2618 105.348L34.0598 104.214C32.1418 103.304 30.8958 101.064 30.8958 99.104V97.886ZM38.2318 100.42H36.2578V95.436H34.8158V108.078H36.2578V101.61H38.2318V100.42ZM42.1927 104.032C41.3247 104.032 40.7927 102.898 40.7927 100.896C40.7927 98.894 41.3247 97.774 42.1927 97.774C43.0607 97.774 43.5927 98.894 43.5927 100.896C43.5927 102.898 43.0607 104.032 42.1927 104.032ZM46.2387 100.224H44.8807C44.7267 97.858 43.7047 96.416 42.1927 96.416C40.5547 96.416 39.4767 98.124 39.4767 100.896C39.4767 103.668 40.5547 105.39 42.1927 105.39C43.7327 105.39 44.7687 103.878 44.8947 101.414H46.2387V107.476H47.5827V95.674H46.2387V100.224ZM48.7727 95.436V108.064H50.1447V95.436H48.7727ZM59.4482 96.318C57.4742 96.318 56.0182 97.564 56.0182 99.356C56.0182 101.148 57.4742 102.394 59.4482 102.394C61.4222 102.394 62.8922 101.148 62.8922 99.356C62.8922 97.564 61.4222 96.318 59.4482 96.318ZM59.4482 97.55C60.6242 97.55 61.4782 98.25 61.4782 99.356C61.4782 100.448 60.6242 101.162 59.4482 101.162C58.2862 101.162 57.4322 100.448 57.4322 99.356C57.4322 98.25 58.2862 97.55 59.4482 97.55ZM64.3202 95.422V108.092H65.7762V95.422H64.3202ZM55.6122 105.418C57.8522 105.418 60.8762 105.39 63.6622 104.858L63.5642 103.808C60.8482 104.214 57.6982 104.228 55.4302 104.228L55.6122 105.418ZM71.3331 104.046C70.4791 104.046 69.8771 103.36 69.8771 102.31C69.8771 101.26 70.4791 100.56 71.3331 100.56C72.1871 100.56 72.7891 101.26 72.7891 102.31C72.7891 103.36 72.1871 104.046 71.3331 104.046ZM71.3331 99.37C69.7371 99.37 68.5891 100.56 68.5891 102.31C68.5891 104.046 69.7371 105.25 71.3331 105.25C72.9291 105.25 74.0771 104.046 74.0771 102.31C74.0771 100.56 72.9291 99.37 71.3331 99.37ZM72.0471 95.8H70.6191V97.494H68.2251V98.656H74.4131V97.494H72.0471V95.8ZM77.6471 95.436V100.672H76.3031V95.702H74.9591V107.49H76.3031V101.862H77.6471V108.078H79.0191V95.436H77.6471ZM92.0745 101.442C90.1285 100.812 88.9805 99.258 88.9805 97.648V97.41H91.6825V96.248H84.7665V97.41H87.5105V97.648C87.5105 99.356 86.3765 100.994 84.3745 101.666L85.1305 102.8C86.6425 102.268 87.7065 101.218 88.2665 99.874C88.8265 101.12 89.8905 102.1 91.3465 102.562L92.0745 101.442ZM86.1665 104.858H93.2505V108.078H94.6925V103.696H86.1665V104.858ZM93.2505 95.422V103.066H94.6925V95.422H93.2505ZM104.673 101.148C102.783 100.49 101.705 98.922 101.705 97.354V97.284H104.337V96.108H97.5754V97.284H100.249V97.368C100.249 99.062 99.1014 100.742 97.1414 101.414L97.8834 102.548C99.3814 102.03 100.445 100.924 101.005 99.566C101.551 100.784 102.559 101.778 103.959 102.282L104.673 101.148ZM106.185 106.762H100.837V105.404H106.185V106.762ZM106.185 104.27H100.837V102.898H99.4094V107.924H107.627V102.898H106.185V104.27ZM106.171 95.436V98.39H103.945V99.58H106.171V102.338H107.627V95.436H106.171ZM124.141 101.414C121.649 100.994 119.619 99.118 119.619 97.158V96.206H118.093V97.158C118.093 99.104 116.063 100.994 113.557 101.414L114.173 102.618C116.231 102.212 118.023 100.952 118.863 99.272C119.675 100.952 121.467 102.212 123.539 102.618L124.141 101.414ZM119.563 105.32V102.366H118.121V105.32H113.179V106.51H124.631V105.32H119.563ZM131.756 97.06C133.562 97.06 134.752 97.676 134.752 98.684C134.752 99.706 133.562 100.322 131.756 100.322C129.936 100.322 128.746 99.706 128.746 98.684C128.746 97.676 129.936 97.06 131.756 97.06ZM131.756 101.484C134.416 101.484 136.236 100.392 136.236 98.684C136.236 96.99 134.416 95.898 131.756 95.898C129.082 95.898 127.262 96.99 127.262 98.684C127.262 100.392 129.082 101.484 131.756 101.484ZM137.51 102.562H126.044V103.752H128.844V108.078H130.314V103.752H133.198V108.078H134.668V103.752H137.524L137.51 102.562ZM143.823 101.904H146.399V100.742H141.317V97.76H146.343V96.584H139.875V101.904H142.381V104.242C141.191 104.27 140.043 104.284 138.993 104.284L139.175 105.474C141.555 105.488 144.495 105.446 147.225 105.012L147.113 103.948C146.063 104.074 144.943 104.144 143.823 104.186V101.904ZM147.883 95.408V108.106H149.339V95.408H147.883ZM160.552 97.858C160.552 99.37 160.552 101.162 160.062 103.64L161.518 103.794C162.008 101.176 162.008 99.426 162.008 97.858V96.612H153.006V97.788H160.552V97.858ZM157.528 105.236V100.784H156.072V105.236H151.816V106.426H163.24V105.236H157.528ZM171.675 97.998H173.761V96.808H168.049V97.998H170.275V98.908C170.275 101.162 169.435 103.444 167.643 104.564L168.511 105.628C169.729 104.858 170.541 103.5 170.989 101.904C171.437 103.374 172.221 104.62 173.411 105.32L174.251 104.27C172.487 103.248 171.675 101.064 171.675 98.908V97.998ZM174.699 99.874H172.837V101.05H174.699V107.462H176.057V95.674H174.699V99.874ZM177.247 95.422V108.064H178.619V95.422H177.247ZM184.12 103.99C183.042 103.99 182.3 102.814 182.3 100.812C182.3 98.852 183.042 97.662 184.12 97.662C185.212 97.662 185.954 98.852 185.954 100.812C185.954 102.814 185.212 103.99 184.12 103.99ZM189.762 95.422V100.14H187.298C187.102 97.816 185.814 96.36 184.12 96.36C182.258 96.36 180.928 98.096 180.928 100.812C180.928 103.556 182.258 105.278 184.12 105.278C185.856 105.278 187.144 103.766 187.312 101.316H189.762V108.106H191.218V95.422H189.762ZM198.483 101.904H201.059V100.742H195.977V97.76H201.003V96.584H194.535V101.904H197.041V104.242C195.851 104.27 194.703 104.284 193.653 104.284L193.835 105.474C196.215 105.488 199.155 105.446 201.885 105.012L201.773 103.948C200.723 104.074 199.603 104.144 198.483 104.186V101.904ZM202.543 95.408V108.106H203.999V95.408H202.543ZM212.818 101.848V99.552H215.52V101.848H212.818ZM211.404 103.794H208.366V97.76H211.404V103.794ZM215.52 95.422V98.39H212.818V96.612H206.952V104.928H212.818V103.01H215.52V108.106H216.976V95.422H215.52ZM219.747 109.8C221.189 109.254 222.043 108.12 222.043 106.65C222.043 105.572 221.581 104.914 220.797 104.914C220.181 104.914 219.677 105.32 219.677 105.95C219.677 106.622 220.181 106.986 220.755 106.986C220.811 106.986 220.853 106.986 220.909 106.972C220.909 107.784 220.349 108.498 219.383 108.89L219.747 109.8ZM233.403 98.824V100.014H235.699V104.69H237.141V95.45H235.699V98.824H233.403ZM234.187 101.778C232.297 101.12 231.219 99.538 231.219 97.984V97.55H233.851V96.388H227.089V97.55H229.763V97.984C229.763 99.692 228.615 101.358 226.655 102.044L227.397 103.178C228.895 102.66 229.959 101.554 230.519 100.182C231.051 101.428 232.073 102.422 233.473 102.898L234.187 101.778ZM230.393 106.664V103.892H228.951V107.84H237.463V106.664H230.393ZM245.232 107C243.328 107 242.334 106.692 242.334 106.02C242.334 105.376 243.328 105.054 245.232 105.054C247.15 105.054 248.144 105.376 248.144 106.02C248.144 106.692 247.15 107 245.232 107ZM245.232 103.99C242.488 103.99 240.878 104.69 240.878 106.02C240.878 107.364 242.488 108.078 245.232 108.078C247.99 108.078 249.586 107.364 249.586 106.02C249.586 104.69 247.99 103.99 245.232 103.99ZM245.974 102.044V101.008H249.684V99.902H242.432V98.922H249.292V97.844H242.432V96.892H249.6V95.786H240.99V101.008H244.518V102.044H239.52V103.206H250.958V102.044H245.974ZM259.945 101.428C258.055 100.77 256.977 99.188 256.977 97.62V97.382H259.609V96.22H252.847V97.382H255.521V97.634C255.521 99.342 254.373 101.008 252.413 101.68L253.155 102.814C254.653 102.296 255.717 101.204 256.277 99.846C256.823 101.064 257.831 102.058 259.231 102.548L259.945 101.428ZM254.373 104.774H261.457V108.078H262.899V103.612H254.373V104.774ZM261.457 95.422V98.6H259.245V99.79H261.457V102.982H262.899V95.422H261.457ZM275.722 95.436H274.28V104.62H275.722V95.436ZM266.958 99.44C266.958 98.278 267.784 97.522 268.904 97.522C270.01 97.522 270.85 98.278 270.85 99.44C270.85 100.588 270.01 101.358 268.904 101.358C267.784 101.358 266.958 100.588 266.958 99.44ZM272.25 99.44C272.25 97.592 270.808 96.276 268.904 96.276C267 96.276 265.544 97.592 265.544 99.44C265.544 101.274 267 102.604 268.904 102.604C270.808 102.604 272.25 101.274 272.25 99.44ZM268.918 106.664V103.696H267.462V107.84H276.086V106.664H268.918ZM286.327 100.924H283.289V97.522H286.327V100.924ZM290.359 98.558V99.888H287.727V98.558H290.359ZM287.727 101.064H290.359V102.884H291.801V95.436H290.359V97.382H287.727V96.374H281.875V102.072H287.727V101.064ZM287.587 106.958C285.795 106.958 284.773 106.496 284.773 105.656C284.773 104.83 285.795 104.368 287.587 104.368C289.379 104.368 290.415 104.83 290.415 105.656C290.415 106.496 289.379 106.958 287.587 106.958ZM287.587 103.234C284.955 103.234 283.331 104.13 283.331 105.656C283.331 107.182 284.955 108.078 287.587 108.078C290.233 108.078 291.857 107.182 291.857 105.656C291.857 104.13 290.233 103.234 287.587 103.234ZM295.482 105.18H302.79V108.078H304.232V104.018H295.482V105.18ZM297.064 97.088H302.762V99.174H297.064V97.088ZM300.634 101.736V100.322H304.176V95.94H295.65V100.322H299.178V101.736H294.194V102.898H305.646V101.736H300.634ZM314.675 96.892H311.651V95.478H310.209V96.892H307.157V98.054H314.675V96.892ZM309.257 101.05C309.257 100.266 309.943 99.79 310.937 99.79C311.931 99.79 312.603 100.266 312.603 101.05C312.603 101.82 311.931 102.296 310.937 102.296C309.943 102.296 309.257 101.82 309.257 101.05ZM311.651 103.346C313.051 103.122 313.961 102.254 313.961 101.05C313.961 99.622 312.729 98.684 310.937 98.684C309.131 98.684 307.899 99.622 307.899 101.05C307.899 102.254 308.809 103.108 310.209 103.346V104.578C309.033 104.62 307.899 104.62 306.933 104.62L307.129 105.81C309.299 105.81 312.225 105.782 314.927 105.306L314.815 104.242C313.807 104.396 312.729 104.466 311.651 104.522V103.346ZM318.763 100.714H316.971V95.422H315.529V108.078H316.971V101.904H318.763V100.714ZM322.304 98.096H323.606V103.85C323.172 103.864 322.738 103.878 322.304 103.892V98.096ZM324.894 98.096H325.832V96.934H320.078V98.096H321.002V103.92C320.568 103.92 320.176 103.92 319.826 103.92L319.994 105.11C321.632 105.11 324.208 105.054 326.14 104.704L326.07 103.654C325.706 103.696 325.314 103.724 324.894 103.766V98.096ZM326.994 98.978H325.538V100.154H326.994V101.596H325.538V102.772H326.994V107.448H328.352V95.716H326.994V98.978ZM329.458 95.422V108.078H330.844V95.422H329.458ZM334.609 99.258C334.609 98.152 335.449 97.452 336.597 97.452C337.745 97.452 338.571 98.152 338.571 99.258C338.571 100.364 337.745 101.05 336.597 101.05C335.449 101.05 334.609 100.364 334.609 99.258ZM337.325 102.226C338.893 101.946 339.971 100.812 339.971 99.258C339.971 97.466 338.543 96.22 336.597 96.22C334.651 96.22 333.209 97.466 333.209 99.258C333.209 100.812 334.315 101.96 335.883 102.24V104.228C334.749 104.256 333.657 104.256 332.705 104.256L332.901 105.446C335.071 105.446 337.969 105.432 340.615 104.97L340.489 103.906C339.481 104.046 338.403 104.13 337.325 104.172V102.226ZM344.521 100.532H342.673V95.436H341.231V108.064H342.673V101.736H344.521V100.532ZM349.428 96.304V97.466H353.74C353.572 99.174 352.018 100.588 348.882 101.204L349.456 102.366C353.222 101.568 355.35 99.566 355.35 96.304H349.428ZM352.088 105.782H358.654V104.746H352.088V103.738H358.808V102.66H350.646V107.924H359.074V106.846H352.088V105.782ZM358.738 98.222V95.436H357.296V102.128H358.738V99.412H360.53V98.222H358.738ZM367.459 96.99C369.307 96.99 370.469 97.508 370.469 98.39C370.469 99.286 369.307 99.804 367.459 99.804C365.597 99.804 364.435 99.286 364.435 98.39C364.435 97.508 365.597 96.99 367.459 96.99ZM367.459 100.966C370.189 100.966 371.967 100 371.967 98.39C371.967 96.794 370.189 95.828 367.459 95.828C364.729 95.828 362.951 96.794 362.951 98.39C362.951 100 364.729 100.966 367.459 100.966ZM364.631 104.158H363.175V107.84H371.897V106.664H364.631V104.158ZM361.733 101.988V103.164H373.171V101.988H361.733ZM1.792 120.63C4.004 120.392 5.74 119.482 6.426 118.18C7.098 119.482 8.834 120.392 11.06 120.63L11.564 119.496C9.226 119.258 7.602 118.278 7.406 117.144H11.102V115.982H1.764V117.144H5.432C5.236 118.278 3.612 119.258 1.274 119.496L1.792 120.63ZM9.296 125.838C9.296 126.566 8.246 126.972 6.398 126.972C4.55 126.972 3.514 126.566 3.514 125.838C3.514 125.082 4.55 124.69 6.398 124.69C8.246 124.69 9.296 125.082 9.296 125.838ZM12.138 122.422V121.274H0.7V122.422H5.698V123.584C3.402 123.724 2.044 124.522 2.044 125.838C2.044 127.266 3.682 128.078 6.398 128.078C9.128 128.078 10.752 127.266 10.752 125.838C10.752 124.522 9.422 123.738 7.14 123.598V122.422H12.138ZM15.1609 119.174C15.1609 118.082 15.9869 117.368 17.1069 117.368C18.2409 117.368 19.0669 118.082 19.0669 119.174C19.0669 120.28 18.2409 120.98 17.1069 120.98C15.9869 120.98 15.1609 120.28 15.1609 119.174ZM20.4809 119.174C20.4809 117.396 19.0389 116.164 17.1069 116.164C15.1889 116.164 13.7469 117.396 13.7469 119.174C13.7469 120.952 15.1889 122.198 17.1069 122.198C19.0389 122.198 20.4809 120.952 20.4809 119.174ZM19.3889 126.93C17.6249 126.93 16.6029 126.482 16.6029 125.656C16.6029 124.816 17.6249 124.368 19.3889 124.368C21.1529 124.368 22.1749 124.816 22.1749 125.656C22.1749 126.482 21.1529 126.93 19.3889 126.93ZM19.3889 123.22C16.7989 123.22 15.1749 124.13 15.1749 125.656C15.1749 127.168 16.7989 128.078 19.3889 128.078C21.9929 128.078 23.6029 127.168 23.6029 125.656C23.6029 124.13 21.9929 123.22 19.3889 123.22ZM23.4629 118.46V115.436H22.0209V122.87H23.4629V119.65H25.2549V118.46H23.4629ZM35.3003 127C33.3963 127 32.4023 126.692 32.4023 126.02C32.4023 125.376 33.3963 125.054 35.3003 125.054C37.2183 125.054 38.2123 125.376 38.2123 126.02C38.2123 126.692 37.2183 127 35.3003 127ZM35.3003 123.99C32.5563 123.99 30.9463 124.69 30.9463 126.02C30.9463 127.364 32.5563 128.078 35.3003 128.078C38.0583 128.078 39.6543 127.364 39.6543 126.02C39.6543 124.69 38.0583 123.99 35.3003 123.99ZM36.0423 122.044V121.008H39.7523V119.902H32.5003V118.922H39.3603V117.844H32.5003V116.892H39.6683V115.786H31.0583V121.008H34.5863V122.044H29.5883V123.206H41.0263V122.044H36.0423ZM46.3313 117.998H48.4173V116.808H42.7052V117.998H44.9313V118.908C44.9313 121.162 44.0913 123.444 42.2993 124.564L43.1673 125.628C44.3853 124.858 45.1973 123.5 45.6453 121.904C46.0933 123.374 46.8773 124.62 48.0673 125.32L48.9073 124.27C47.1433 123.248 46.3313 121.064 46.3313 118.908V117.998ZM49.3553 119.874H47.4933V121.05H49.3553V127.462H50.7133V115.674H49.3553V119.874ZM51.9033 115.422V128.064H53.2753V115.422H51.9033ZM55.9902 116.766V117.942H60.4142C60.1202 120.854 58.4542 123.08 55.3602 124.662L56.1582 125.768C60.2882 123.682 61.8562 120.434 61.8562 116.766H55.9902ZM67.0782 120.42H65.1602V115.422H63.7182V128.064H65.1602V121.624H67.0782V120.42ZM72.9516 118.894C72.9516 117.844 73.7496 117.158 74.8556 117.158C75.9616 117.158 76.7736 117.844 76.7736 118.894C76.7736 119.958 75.9616 120.658 74.8556 120.658C73.7496 120.658 72.9516 119.958 72.9516 118.894ZM80.4276 119.468V122.128H81.8696V115.45H80.4276V118.278H78.0756C77.7956 116.892 76.5216 115.968 74.8556 115.968C72.9656 115.968 71.5656 117.172 71.5656 118.894C71.5656 120.644 72.9656 121.848 74.8556 121.848C76.5356 121.848 77.8096 120.896 78.0896 119.468H80.4276ZM75.9616 126.818H74.1556V125.348H75.9616V126.818ZM75.9616 122.856V124.284H74.1556V122.856H72.8116V127.924H77.2916V122.856H75.9616ZM80.9456 122.758H79.5176V123.766C79.5176 125.012 78.8036 126.328 77.2916 126.958L78.0196 128.05C79.0836 127.602 79.7976 126.79 80.2176 125.838C80.6096 126.804 81.3376 127.616 82.4576 128.05L83.1716 126.958C81.6456 126.398 80.9456 125.11 80.9456 123.766V122.758ZM95.0985 119.216C92.5925 118.894 90.7305 117.508 90.7305 116.052V115.562H89.2465V116.052C89.2465 117.522 87.4125 118.894 84.8785 119.216L85.4105 120.336C87.4685 120.056 89.1765 119.104 89.9885 117.788C90.8145 119.104 92.5225 120.056 94.5805 120.336L95.0985 119.216ZM92.8025 126.776H87.1045V125.418H92.8025V126.776ZM92.8025 124.312H87.1045V123.024H85.6765V127.924H94.2445V123.024H92.8025V124.312ZM84.2625 121.092V122.24H95.7145V121.092H84.2625ZM99.3254 116.668H97.8974V124.886H98.9754C100.935 124.886 102.979 124.732 105.149 124.284L104.995 123.08C103.007 123.486 101.117 123.64 99.3254 123.654V116.668ZM106.157 115.436V128.078H107.599V115.436H106.157ZM111.98 117.802H116.418V116.626H110.538V124.984H111.574C113.856 124.984 115.564 124.914 117.482 124.564L117.328 123.374C115.564 123.682 114.024 123.766 111.98 123.78V117.802ZM121.794 120.294H119.82V115.422H118.378V128.092H119.82V121.484H121.794V120.294ZM124.285 127.182C124.887 127.182 125.363 126.72 125.363 126.062C125.363 125.39 124.887 124.914 124.285 124.914C123.683 124.914 123.207 125.39 123.207 126.062C123.207 126.72 123.683 127.182 124.285 127.182ZM2.282 139.44C2.282 138.292 3.122 137.536 4.228 137.536C5.334 137.536 6.188 138.292 6.188 139.44C6.188 140.602 5.334 141.358 4.228 141.358C3.122 141.358 2.282 140.602 2.282 139.44ZM7.602 139.44C7.602 137.592 6.146 136.29 4.228 136.29C2.324 136.29 0.868 137.592 0.868 139.44C0.868 141.288 2.324 142.604 4.228 142.604C6.146 142.604 7.602 141.288 7.602 139.44ZM4.032 143.752H2.576V147.84H11.088V146.664H4.032V143.752ZM10.584 139.188V135.436H9.142V144.704H10.584V140.378H12.376V139.188H10.584ZM20.3269 138.824V140.014H22.6229V144.69H24.0649V135.45H22.6229V138.824H20.3269ZM21.1109 141.778C19.2209 141.12 18.1429 139.538 18.1429 137.984V137.55H20.7749V136.388H14.0129V137.55H16.6869V137.984C16.6869 139.692 15.5389 141.358 13.5789 142.044L14.3209 143.178C15.8189 142.66 16.8829 141.554 17.4429 140.182C17.9749 141.428 18.9969 142.422 20.3969 142.898L21.1109 141.778ZM17.3169 146.664V143.892H15.8749V147.84H24.3869V146.664H17.3169ZM33.9478 136.878H30.9378V135.436H29.4958V136.878H26.4858V138.026H33.9478V136.878ZM28.5298 141.008C28.5298 140.21 29.2158 139.734 30.2098 139.734C31.2178 139.734 31.9038 140.21 31.9038 141.008C31.9038 141.806 31.2178 142.282 30.2098 142.282C29.2158 142.282 28.5298 141.806 28.5298 141.008ZM33.2758 141.008C33.2758 139.58 32.0298 138.614 30.2098 138.614C28.4038 138.614 27.1438 139.58 27.1438 141.008C27.1438 142.45 28.4038 143.402 30.2098 143.402C32.0298 143.402 33.2758 142.45 33.2758 141.008ZM29.7898 144.186H28.3338V147.84H36.8458V146.664H29.7898V144.186ZM36.3418 139.468V135.436H34.8998V144.914H36.3418V140.658H38.1338V139.468H36.3418ZM47.4653 140.966H44.3713V139.118H47.4653V140.966ZM48.8933 136.234H47.4653V137.984H44.3713V136.234H42.9293V142.114H48.8933V136.234ZM48.2913 146.958C46.5273 146.958 45.5053 146.51 45.5053 145.684C45.5053 144.872 46.5273 144.424 48.2913 144.424C50.0553 144.424 51.0773 144.872 51.0773 145.684C51.0773 146.51 50.0553 146.958 48.2913 146.958ZM48.2913 143.276C45.6873 143.276 44.0773 144.186 44.0773 145.684C44.0773 147.196 45.6873 148.092 48.2913 148.092C50.8953 148.092 52.5053 147.196 52.5053 145.684C52.5053 144.186 50.8953 143.276 48.2913 143.276ZM52.3653 138.516V135.436H50.9233V142.982H52.3653V139.706H54.1573V138.516H52.3653ZM63.0462 141.176C61.1002 140.532 59.9802 138.95 59.9802 137.242V136.01H58.5102V137.242C58.5102 139.006 57.3902 140.714 55.4022 141.4L56.1162 142.534C57.6142 142.016 58.6922 140.924 59.2662 139.552C59.8262 140.812 60.8762 141.806 62.3322 142.31L63.0462 141.176ZM57.2642 144.774H64.3482V148.078H65.7902V143.612H57.2642V144.774ZM64.3482 135.422V143.01H65.7902V135.422H64.3482ZM73.9651 136.15C71.3191 136.15 69.3171 137.578 69.3171 139.72C69.3171 141.876 71.3191 143.29 73.9651 143.29C76.5971 143.29 78.6131 141.876 78.6131 139.72C78.6131 137.578 76.5971 136.15 73.9651 136.15ZM73.9651 137.34C75.8271 137.34 77.2131 138.264 77.2131 139.72C77.2131 141.176 75.8271 142.1 73.9651 142.1C72.0891 142.1 70.7171 141.176 70.7171 139.72C70.7171 138.264 72.0891 137.34 73.9651 137.34ZM68.2531 145.292V146.482H79.7051V145.292H68.2531ZM87.558 145.404V143.248H91.506V142.086H83.932V140.322H91.226V136.318H82.49V137.48H89.798V139.174H82.518V143.248H86.116V145.404H81.132V146.594H92.584V145.404H87.558ZM98.7234 139.16C98.7234 138.082 99.5354 137.368 100.669 137.368C101.803 137.368 102.629 138.082 102.629 139.16C102.629 140.28 101.803 140.98 100.669 140.98C99.5354 140.98 98.7234 140.28 98.7234 139.16ZM104.043 139.16C104.043 137.396 102.601 136.164 100.669 136.164C98.7514 136.164 97.3094 137.396 97.3094 139.16C97.3094 140.952 98.7514 142.198 100.669 142.198C102.601 142.198 104.043 140.952 104.043 139.16ZM100.375 144.424H105.611V146.776H100.375V144.424ZM98.9474 147.924H107.025V143.276H98.9474V147.924ZM108.817 138.39H107.025V135.436H105.583V142.688H107.025V139.58H108.817V138.39ZM120.898 137.158H116.46V135.604H115.018V137.158H110.552V138.32H120.898V137.158ZM112.988 141.47C112.988 140.644 113.996 140.168 115.718 140.168C117.454 140.168 118.462 140.644 118.462 141.47C118.462 142.31 117.454 142.786 115.718 142.786C113.996 142.786 112.988 142.31 112.988 141.47ZM116.46 145.516V143.892C118.63 143.724 119.932 142.87 119.932 141.47C119.932 139.944 118.308 139.048 115.718 139.048C113.142 139.048 111.518 139.944 111.518 141.47C111.518 142.87 112.848 143.738 115.018 143.892V145.516H110.02V146.706H121.486V145.516H116.46ZM130.501 136.892H127.477V135.478H126.035V136.892H122.983V138.054H130.501V136.892ZM125.083 141.05C125.083 140.266 125.769 139.79 126.763 139.79C127.757 139.79 128.429 140.266 128.429 141.05C128.429 141.82 127.757 142.296 126.763 142.296C125.769 142.296 125.083 141.82 125.083 141.05ZM127.477 143.346C128.877 143.122 129.787 142.254 129.787 141.05C129.787 139.622 128.555 138.684 126.763 138.684C124.957 138.684 123.725 139.622 123.725 141.05C123.725 142.254 124.635 143.108 126.035 143.346V144.578C124.859 144.62 123.725 144.62 122.759 144.62L122.955 145.81C125.125 145.81 128.051 145.782 130.753 145.306L130.641 144.242C129.633 144.396 128.555 144.466 127.477 144.522V143.346ZM134.589 140.714H132.797V135.422H131.355V148.078H132.797V141.904H134.589V140.714ZM146.208 135.422H144.766V144.928H146.208V135.422ZM143.87 141.904C142.862 142.016 141.798 142.086 140.706 142.128V140.63H143.072V139.454H138.368V137.396H143.002V136.22H136.926V140.63H139.264V142.184C138.06 142.226 136.884 142.24 135.834 142.24L136.03 143.402C138.382 143.402 141.308 143.332 143.968 142.954L143.87 141.904ZM139.32 146.664V144.27H137.878V147.84H146.6V146.664H139.32ZM154.028 137.788H158.62V136.598H152.6V145.012H153.65C156.268 145.012 157.906 144.942 159.74 144.606L159.586 143.402C157.892 143.724 156.38 143.794 154.028 143.808V137.788ZM160.762 135.422V148.106H162.218V135.422H160.762ZM169.356 137.886H172.17V136.696H165.086V137.886H167.9V139.09C167.9 141.26 166.598 143.612 164.638 144.522L165.464 145.67C166.948 144.956 168.082 143.458 168.642 141.694C169.23 143.332 170.364 144.704 171.834 145.348L172.632 144.214C170.658 143.374 169.356 141.19 169.356 139.09V137.886ZM173.64 135.436V148.078H175.096V135.436H173.64ZM186.589 142.198H188.045V135.422H186.589V138.236H184.405V139.384H186.589V142.198ZM184.489 140.378C182.977 140.63 181.689 140.672 179.617 140.672V139.496H183.579V138.404H179.617V137.312H183.943V136.178H178.175V141.806H179.127C181.521 141.806 182.935 141.792 184.601 141.526L184.489 140.378ZM181.255 146.846V145.824H188.045V142.716H179.813V143.836H186.617V144.788H179.827V147.966H188.465V146.846H181.255ZM202.123 138.768H196.495V137.76H202.123V138.768ZM203.551 135.646H202.123V136.696H196.495V135.646H195.067V139.86H203.551V135.646ZM196.397 145.852H203.593V142.856H194.941V143.934H202.179V144.83H194.969V147.966H203.957V146.86H196.397V145.852ZM193.583 140.756V141.904H205.035V140.756H193.583ZM207.75 145.488H215.114V148.008H216.556V144.326H207.75V145.488ZM212.916 142.31V141.162H216.738V140.056H209.346V138.936H216.486V135.73H207.904V136.836H215.058V137.9H207.932V141.162H211.474V142.31H206.462V143.472H217.928V142.31H212.916ZM223.429 136.318C221.455 136.318 219.999 137.564 219.999 139.356C219.999 141.148 221.455 142.394 223.429 142.394C225.403 142.394 226.873 141.148 226.873 139.356C226.873 137.564 225.403 136.318 223.429 136.318ZM223.429 137.55C224.605 137.55 225.459 138.25 225.459 139.356C225.459 140.448 224.605 141.162 223.429 141.162C222.267 141.162 221.413 140.448 221.413 139.356C221.413 138.25 222.267 137.55 223.429 137.55ZM228.301 135.422V148.092H229.757V135.422H228.301ZM219.593 145.418C221.833 145.418 224.857 145.39 227.643 144.858L227.545 143.808C224.829 144.214 221.679 144.228 219.411 144.228L219.593 145.418ZM236.652 145.18H243.96V148.078H245.402V144.018H236.652V145.18ZM238.234 137.088H243.932V139.174H238.234V137.088ZM241.804 141.736V140.322H245.346V135.94H236.82V140.322H240.348V141.736H235.364V142.898H246.816V141.736H241.804ZM249.531 145.488H256.895V148.008H258.337V144.326H249.531V145.488ZM254.697 142.31V141.162H258.519V140.056H251.127V138.936H258.267V135.73H249.685V136.836H256.839V137.9H249.713V141.162H253.255V142.31H248.243V143.472H259.709V142.31H254.697ZM271.552 135.436H270.11V144.62H271.552V135.436ZM262.788 139.44C262.788 138.278 263.614 137.522 264.734 137.522C265.84 137.522 266.68 138.278 266.68 139.44C266.68 140.588 265.84 141.358 264.734 141.358C263.614 141.358 262.788 140.588 262.788 139.44ZM268.08 139.44C268.08 137.592 266.638 136.276 264.734 136.276C262.83 136.276 261.374 137.592 261.374 139.44C261.374 141.274 262.83 142.604 264.734 142.604C266.638 142.604 268.08 141.274 268.08 139.44ZM264.748 146.664V143.696H263.292V147.84H271.916V146.664H264.748ZM285.685 138.768H280.057V137.76H285.685V138.768ZM287.113 135.646H285.685V136.696H280.057V135.646H278.629V139.86H287.113V135.646ZM279.959 145.852H287.155V142.856H278.503V143.934H285.741V144.83H278.531V147.966H287.519V146.86H279.959V145.852ZM277.145 140.756V141.904H288.597V140.756H277.145ZM291.312 145.488H298.676V148.008H300.118V144.326H291.312V145.488ZM296.478 142.31V141.162H300.3V140.056H292.908V138.936H300.048V135.73H291.466V136.836H298.62V137.9H291.494V141.162H295.036V142.31H290.024V143.472H301.49V142.31H296.478ZM306.711 138.852H308.881V137.662H306.711V135.87H305.339V137.662H303.155V138.852H305.339V139.3C305.339 141.316 304.499 143.472 302.763 144.494L303.589 145.586C304.793 144.886 305.591 143.612 306.039 142.128C306.501 143.5 307.313 144.662 308.503 145.306L309.301 144.228C307.565 143.29 306.711 141.274 306.711 139.3V138.852ZM309.777 140.336H308.069V141.512H309.777V147.462H311.135V135.688H309.777V140.336ZM312.325 135.436V148.078H313.697V135.436H312.325ZM326.212 135.436H324.77V144.62H326.212V135.436ZM317.448 139.44C317.448 138.278 318.274 137.522 319.394 137.522C320.5 137.522 321.34 138.278 321.34 139.44C321.34 140.588 320.5 141.358 319.394 141.358C318.274 141.358 317.448 140.588 317.448 139.44ZM322.74 139.44C322.74 137.592 321.298 136.276 319.394 136.276C317.49 136.276 316.034 137.592 316.034 139.44C316.034 141.274 317.49 142.604 319.394 142.604C321.298 142.604 322.74 141.274 322.74 139.44ZM319.408 146.664V143.696H317.952V147.84H326.576V146.664H319.408ZM337.621 135.422V148.106H339.077V135.422H337.621ZM332.343 136.36C330.467 136.36 329.095 138.096 329.095 140.812C329.095 143.556 330.467 145.278 332.343 145.278C334.233 145.278 335.605 143.556 335.605 140.812C335.605 138.096 334.233 136.36 332.343 136.36ZM332.343 137.662C333.449 137.662 334.219 138.852 334.219 140.812C334.219 142.8 333.449 143.99 332.343 143.99C331.251 143.99 330.481 142.8 330.481 140.812C330.481 138.852 331.251 137.662 332.343 137.662ZM345.748 142.604C347.246 142.156 348.338 141.218 348.884 140C349.444 141.162 350.536 142.058 352.02 142.478L352.664 141.358C350.802 140.854 349.682 139.594 349.598 138.166H352.356V137.004H349.598V135.548H348.156V137.004H345.412V138.166H348.142C348.072 139.65 346.966 140.966 345.09 141.484L345.748 142.604ZM349.598 142.198H348.156V144.368C346.938 144.41 345.748 144.41 344.754 144.41L344.936 145.6C347.176 145.6 350.2 145.586 352.986 145.026L352.874 143.976C351.824 144.144 350.704 144.242 349.598 144.298V142.198ZM353.644 135.422V148.106H355.1V135.422H353.644ZM358.627 143.136C360.755 142.8 362.463 141.82 363.303 140.392C364.129 141.82 365.837 142.8 367.965 143.136L368.511 141.974C365.851 141.61 364.115 140.168 364.031 138.474H367.979V137.298H364.017V135.66H362.575V137.298H358.599V138.474H362.561C362.477 140.168 360.741 141.61 358.081 141.974L358.627 143.136ZM364.017 145.376V142.688H362.575V145.376H357.577V146.552H369.029V145.376H364.017ZM7.14 165.404V163.248H11.088V162.086H3.514V160.322H10.808V156.318H2.072V157.48H9.38V159.174H2.1V163.248H5.698V165.404H0.714V166.594H12.166V165.404H7.14ZM24.2554 161.428C22.3654 160.77 21.2874 159.188 21.2874 157.62V157.382H23.9194V156.22H17.1574V157.382H19.8314V157.634C19.8314 159.342 18.6834 161.008 16.7234 161.68L17.4654 162.814C18.9634 162.296 20.0274 161.204 20.5874 159.846C21.1334 161.064 22.1414 162.058 23.5414 162.548L24.2554 161.428ZM18.6834 164.774H25.7674V168.078H27.2094V163.612H18.6834V164.774ZM25.7674 155.422V158.6H23.5554V159.79H25.7674V162.982H27.2094V155.422H25.7674ZM35.3003 166.972C33.4523 166.972 32.4163 166.58 32.4163 165.81C32.4163 165.054 33.4523 164.648 35.3003 164.648C37.1483 164.648 38.1983 165.054 38.1983 165.81C38.1983 166.58 37.1483 166.972 35.3003 166.972ZM35.3003 163.542C32.5843 163.542 30.9463 164.368 30.9463 165.81C30.9463 167.266 32.5843 168.078 35.3003 168.078C38.0303 168.078 39.6543 167.266 39.6543 165.81C39.6543 164.368 38.0303 163.542 35.3003 163.542ZM33.7603 160.294C34.2223 160.364 34.7683 160.406 35.3283 160.406C35.8883 160.406 36.4063 160.364 36.8683 160.294V161.582H33.7603V160.294ZM35.3283 156.766C37.2043 156.766 38.3383 157.214 38.3383 158.026C38.3383 158.838 37.2043 159.3 35.3283 159.3C33.4383 159.3 32.3043 158.838 32.3043 158.026C32.3043 157.214 33.4383 156.766 35.3283 156.766ZM38.3103 161.582V159.916C39.2763 159.496 39.8363 158.852 39.8363 158.026C39.8363 156.542 38.0863 155.646 35.3283 155.646C32.5563 155.646 30.8203 156.542 30.8203 158.026C30.8203 158.852 31.3663 159.496 32.3183 159.902V161.582H29.6023V162.73H41.0403V161.582H38.3103ZM52.9113 155.422H51.4693V164.928H52.9113V155.422ZM50.5733 161.904C49.5653 162.016 48.5013 162.086 47.4093 162.128V160.63H49.7753V159.454H45.0713V157.396H49.7053V156.22H43.6292V160.63H45.9673V162.184C44.7633 162.226 43.5873 162.24 42.5373 162.24L42.7333 163.402C45.0853 163.402 48.0113 163.332 50.6713 162.954L50.5733 161.904ZM46.0233 166.664V164.27H44.5813V167.84H53.3033V166.664H46.0233ZM67.5487 163.92H68.9907V155.436H67.5487V158.894H65.0567V160.084H67.5487V163.92ZM59.3167 156.416V157.578H63.4607C63.2227 159.608 61.6127 161.204 58.7007 162.114L59.3027 163.234C62.9987 162.058 65.0007 159.762 65.0007 156.416H59.3167ZM65.5467 162.912H64.1047V163.402C64.1047 165.068 62.4387 166.496 60.0027 166.916L60.5627 168.05C62.5087 167.7 64.0627 166.734 64.8327 165.376C65.5887 166.72 67.1287 167.672 69.0607 168.022L69.6347 166.888C67.1987 166.482 65.5467 165.054 65.5467 163.402V162.912ZM80.3436 155.422V168.106H81.7996V155.422H80.3436ZM75.0656 156.36C73.1896 156.36 71.8176 158.096 71.8176 160.812C71.8176 163.556 73.1896 165.278 75.0656 165.278C76.9556 165.278 78.3276 163.556 78.3276 160.812C78.3276 158.096 76.9556 156.36 75.0656 156.36ZM75.0656 157.662C76.1716 157.662 76.9416 158.852 76.9416 160.812C76.9416 162.8 76.1716 163.99 75.0656 163.99C73.9736 163.99 73.2036 162.8 73.2036 160.812C73.2036 158.852 73.9736 157.662 75.0656 157.662ZM92.433 163.934H89.297V160.84H92.433V163.934ZM92.433 159.692H89.297V156.472H87.855V165.096H93.861V156.472H92.433V159.692ZM99.181 160.294H97.207V155.436H95.765V168.092H97.207V161.498H99.181V160.294ZM106.726 165.404V163.248H110.674V162.086H103.1V160.322H110.394V156.318H101.658V157.48H108.966V159.174H101.686V163.248H105.284V165.404H100.3V166.594H111.752V165.404H106.726ZM125.269 155.422V168.106H126.725V155.422H125.269ZM116.995 156.472V165.096H123.071V156.472H121.629V159.692H118.423V156.472H116.995ZM118.423 160.84H121.629V163.934H118.423V160.84ZM139.38 162.114H132.086V160.378H139.002V159.244H132.086V157.62H139.282V156.458H130.616V163.276H139.38V162.114ZM129.202 165.348V166.524H140.668V165.348H129.202ZM143.047 159.93L143.243 161.148L150.705 160.742C150.635 161.568 150.495 162.492 150.271 163.542L151.699 163.71C152.259 161.036 152.245 159.286 152.245 157.746V156.584H143.411V157.746H150.817C150.817 158.32 150.817 158.95 150.789 159.636L143.047 159.93ZM147.793 165.306V162.128H146.337V165.306H142.067V166.496H153.505V165.306H147.793ZM165.376 155.436H163.934V164.62H165.376V155.436ZM156.612 159.44C156.612 158.278 157.438 157.522 158.558 157.522C159.664 157.522 160.504 158.278 160.504 159.44C160.504 160.588 159.664 161.358 158.558 161.358C157.438 161.358 156.612 160.588 156.612 159.44ZM161.904 159.44C161.904 157.592 160.462 156.276 158.558 156.276C156.654 156.276 155.198 157.592 155.198 159.44C155.198 161.274 156.654 162.604 158.558 162.604C160.462 162.604 161.904 161.274 161.904 159.44ZM158.572 166.664V163.696H157.116V167.84H165.74V166.664H158.572ZM176.813 155.436V162.226H178.255V155.436H176.813ZM169.995 162.814V167.924H178.255V162.814H176.827V164.214H171.423V162.814H169.995ZM171.423 165.334H176.827V166.762H171.423V165.334ZM171.437 156.01C169.505 156.01 168.077 157.214 168.077 158.95C168.077 160.686 169.505 161.89 171.437 161.89C173.369 161.89 174.783 160.686 174.783 158.95C174.783 157.214 173.369 156.01 171.437 156.01ZM171.437 157.2C172.571 157.2 173.383 157.9 173.383 158.95C173.383 160.014 172.571 160.7 171.437 160.7C170.289 160.7 169.491 160.014 169.491 158.95C169.491 157.9 170.289 157.2 171.437 157.2ZM182.888 156.668H181.46V164.886H182.538C184.498 164.886 186.542 164.732 188.712 164.284L188.558 163.08C186.57 163.486 184.68 163.64 182.888 163.654V156.668ZM189.72 155.436V168.078H191.162V155.436H189.72ZM195.543 157.802H199.981V156.626H194.101V164.984H195.137C197.419 164.984 199.127 164.914 201.045 164.564L200.891 163.374C199.127 163.682 197.587 163.766 195.543 163.78V157.802ZM205.357 160.294H203.383V155.422H201.941V168.092H203.383V161.484H205.357V160.294ZM207.848 167.182C208.45 167.182 208.926 166.72 208.926 166.062C208.926 165.39 208.45 164.914 207.848 164.914C207.246 164.914 206.77 165.39 206.77 166.062C206.77 166.72 207.246 167.182 207.848 167.182ZM9.24 178.768H3.612V177.76H9.24V178.768ZM10.668 175.646H9.24V176.696H3.612V175.646H2.184V179.86H10.668V175.646ZM3.514 185.852H10.71V182.856H2.058V183.934H9.296V184.83H2.086V187.966H11.074V186.86H3.514V185.852ZM0.7 180.756V181.904H12.152V180.756H0.7ZM14.8669 185.488H22.2309V188.008H23.6729V184.326H14.8669V185.488ZM20.0329 182.31V181.162H23.8549V180.056H16.4629V178.936H23.6029V175.73H15.0209V176.836H22.1749V177.9H15.0489V181.162H18.5909V182.31H13.5789V183.472H25.0449V182.31H20.0329ZM30.2658 178.852H32.4358V177.662H30.2658V175.87H28.8938V177.662H26.7098V178.852H28.8938V179.3C28.8938 181.316 28.0538 183.472 26.3178 184.494L27.1438 185.586C28.3478 184.886 29.1458 183.612 29.5938 182.128C30.0558 183.5 30.8678 184.662 32.0578 185.306L32.8558 184.228C31.1198 183.29 30.2658 181.274 30.2658 179.3V178.852ZM33.3318 180.336H31.6238V181.512H33.3318V187.462H34.6898V175.688H33.3318V180.336ZM35.8798 175.436V188.078H37.2518V175.436H35.8798ZM49.7667 175.436H48.3247V184.62H49.7667V175.436ZM41.0027 179.44C41.0027 178.278 41.8287 177.522 42.9487 177.522C44.0547 177.522 44.8947 178.278 44.8947 179.44C44.8947 180.588 44.0547 181.358 42.9487 181.358C41.8287 181.358 41.0027 180.588 41.0027 179.44ZM46.2947 179.44C46.2947 177.592 44.8527 176.276 42.9487 176.276C41.0447 176.276 39.5887 177.592 39.5887 179.44C39.5887 181.274 41.0447 182.604 42.9487 182.604C44.8527 182.604 46.2947 181.274 46.2947 179.44ZM42.9627 186.664V183.696H41.5067V187.84H50.1307V186.664H42.9627ZM57.9416 176.99C59.7896 176.99 60.9516 177.508 60.9516 178.39C60.9516 179.286 59.7896 179.804 57.9416 179.804C56.0796 179.804 54.9176 179.286 54.9176 178.39C54.9176 177.508 56.0796 176.99 57.9416 176.99ZM57.9416 180.966C60.6716 180.966 62.4496 180 62.4496 178.39C62.4496 176.794 60.6716 175.828 57.9416 175.828C55.2116 175.828 53.4336 176.794 53.4336 178.39C53.4336 180 55.2116 180.966 57.9416 180.966ZM55.1136 184.158H53.6576V187.84H62.3796V186.664H55.1136V184.158ZM52.2156 181.988V183.164H63.6536V181.988H52.2156ZM70.1291 176.668H68.6871V184.928H69.7371C71.6411 184.928 73.6011 184.788 75.7431 184.368L75.5751 183.178C73.6571 183.57 71.8371 183.71 70.1291 183.724V176.668ZM79.9571 180.364H78.0391V175.436H76.5971V188.078H78.0391V181.554H79.9571V180.364ZM81.902 176.696V177.872H86.228C86.172 178.572 86.06 179.23 85.892 179.846L81.258 180.14L81.454 181.386L85.458 180.994C84.716 182.548 83.386 183.864 81.174 184.97L81.958 186.09C86.55 183.78 87.656 180.476 87.656 176.696H81.902ZM92.836 180.42H90.918V175.422H89.476V188.064H90.918V181.624H92.836V180.42ZM96.6989 177.592H102.719V181.344H96.6989V177.592ZM100.437 185.348V182.492H104.133V176.444H95.2849V182.492H98.9949V185.348H94.0109V186.524H105.463V185.348H100.437ZM113.33 185.404V183.024H117.068V181.876H109.774V180.224H116.676V179.09H109.774V177.564H116.956V176.388H108.304V183.024H111.874V185.404H106.89V186.594H118.342V185.404H113.33ZM127.337 176.486H125.895V178.558C125.895 180.896 124.663 183.29 122.689 184.256L123.571 185.418C125.013 184.676 126.077 183.206 126.623 181.456C127.169 183.108 128.177 184.48 129.535 185.18L130.417 184.032C128.513 183.094 127.337 180.812 127.337 178.558V176.486ZM134.673 180.448H132.699V175.436H131.257V188.078H132.699V181.638H134.673V180.448ZM142.232 185.404V183.024H145.97V181.876H138.676V180.224H145.578V179.09H138.676V177.564H145.858V176.388H137.206V183.024H140.776V185.404H135.792V186.594H147.244V185.404H142.232ZM153.333 176.486H151.891V178.558C151.891 180.994 150.575 183.416 148.559 184.326L149.413 185.53C150.939 184.788 152.059 183.29 152.633 181.456C153.207 183.164 154.313 184.564 155.769 185.25L156.609 184.102C154.621 183.206 153.333 180.882 153.333 178.558V176.486ZM157.617 175.422V188.106H159.073V175.422H157.617ZM163.482 181.26H167.808V176.556H162.026V177.732H166.38V180.098H162.054V185.096H163.09C165.428 185.096 167.122 185.012 169.068 184.662L168.914 183.486C167.136 183.808 165.554 183.892 163.482 183.906V181.26ZM173.31 180.35H171.364V175.408H169.908V188.092H171.364V181.554H173.31V180.35ZM184.579 179.062H177.341V175.884H175.899V180.238H184.579V179.062ZM177.257 184.074H175.815V187.798H184.649V186.636H177.257V184.074ZM174.415 181.75V182.912H185.895V181.75H174.415ZM194.876 176.486H193.434V178.558C193.434 180.896 192.202 183.29 190.228 184.256L191.11 185.418C192.552 184.676 193.616 183.206 194.162 181.456C194.708 183.108 195.716 184.48 197.074 185.18L197.956 184.032C196.052 183.094 194.876 180.812 194.876 178.558V176.486ZM202.212 180.448H200.238V175.436H198.796V188.078H200.238V181.638H202.212V180.448ZM210.681 180.826C208.945 181.148 207.419 181.218 205.249 181.232V179.734H209.547V176.094H203.807V177.27H208.119V178.628H203.835V182.408H204.857C207.279 182.408 208.931 182.338 210.835 182.002L210.681 180.826ZM206.537 184.69H211.787V186.776H206.537V184.69ZM205.123 187.924H213.201V183.556H205.123V187.924ZM214.993 178.572H213.201V175.45H211.759V182.968H213.201V179.762H214.993V178.572ZM225.156 175.422V188.106H226.612V175.422H225.156ZM219.878 176.36C218.002 176.36 216.63 178.096 216.63 180.812C216.63 183.556 218.002 185.278 219.878 185.278C221.768 185.278 223.14 183.556 223.14 180.812C223.14 178.096 221.768 176.36 219.878 176.36ZM219.878 177.662C220.984 177.662 221.754 178.852 221.754 180.812C221.754 182.8 220.984 183.99 219.878 183.99C218.786 183.99 218.016 182.8 218.016 180.812C218.016 178.852 218.786 177.662 219.878 177.662ZM234.698 179.566C234.698 178.194 236.056 177.326 237.946 177.326C239.822 177.326 241.18 178.194 241.18 179.566C241.18 180.938 239.822 181.806 237.946 181.806C236.056 181.806 234.698 180.938 234.698 179.566ZM238.66 185.348V182.94C240.97 182.73 242.594 181.442 242.594 179.566C242.594 177.508 240.62 176.178 237.946 176.178C235.258 176.178 233.298 177.508 233.298 179.566C233.298 181.442 234.908 182.716 237.218 182.926V185.348H232.234V186.524H243.686V185.348H238.66ZM252.266 179.72H249.354V177.186H252.266V179.72ZM247.912 179.72H246.19V180.882H255.416V179.72H253.708V177.186H255.486V176.024H246.12V177.186H247.912V179.72ZM247.996 184.256H246.54V187.84H255.262V186.664H247.996V184.256ZM245.098 182.072V183.248H256.55V182.072H245.098ZM268.953 181.414C266.461 180.994 264.431 179.118 264.431 177.158V176.206H262.905V177.158C262.905 179.104 260.875 180.994 258.369 181.414L258.985 182.618C261.043 182.212 262.835 180.952 263.675 179.272C264.487 180.952 266.279 182.212 268.351 182.618L268.953 181.414ZM264.375 185.32V182.366H262.933V185.32H257.991V186.51H269.443V185.32H264.375ZM281.832 181.61C279.34 181.162 277.31 179.216 277.31 177.2V176.248H275.784V177.2C275.784 179.202 273.754 181.148 271.262 181.61L271.878 182.8C273.936 182.38 275.714 181.064 276.54 179.328C277.366 181.064 279.144 182.38 281.202 182.8L281.832 181.61ZM270.87 185.264V186.454H282.322V185.264H270.87ZM287.608 176.766V177.942H292.116C291.864 180.854 290.296 183.08 286.978 184.676L287.748 185.824C292.088 183.724 293.6 180.532 293.6 176.766H287.608ZM295.882 175.436V188.078H297.324V175.436H295.882ZM310.609 178.768C308.075 178.516 306.227 177.27 306.227 175.856V175.492H304.743V175.856C304.743 177.27 302.895 178.516 300.361 178.768L300.851 179.874C302.951 179.622 304.673 178.754 305.485 177.494C306.297 178.754 308.019 179.622 310.119 179.874L310.609 178.768ZM311.211 181.708V180.56H299.759V181.708H304.743V182.772H301.117V183.864H308.355V184.802H301.145V187.966H310.133V186.86H302.573V185.824H309.769V182.772H306.199V181.708H311.211ZM319.078 185.404V183.248H323.026V182.086H315.452V180.322H322.746V176.318H314.01V177.48H321.318V179.174H314.038V183.248H317.636V185.404H312.652V186.594H324.104V185.404H319.078ZM333.337 176.486H331.895V178.558C331.895 180.994 330.579 183.416 328.563 184.326L329.417 185.53C330.943 184.788 332.063 183.29 332.637 181.456C333.211 183.164 334.317 184.564 335.773 185.25L336.613 184.102C334.625 183.206 333.337 180.882 333.337 178.558V176.486ZM337.621 175.422V188.106H339.077V175.422H337.621ZM348.988 181.442C347.056 180.798 345.992 179.244 345.992 177.648V177.424H348.638V176.248H341.848V177.424H344.536V177.648C344.536 179.384 343.43 180.994 341.428 181.666L342.184 182.8C343.668 182.282 344.718 181.246 345.278 179.916C345.824 181.12 346.832 182.086 348.246 182.548L348.988 181.442ZM343.108 184.83H349.982V188.078H351.424V183.668H343.108V184.83ZM353.216 178.656H351.424V175.422H349.982V183.052H351.424V179.846H353.216V178.656ZM362.469 179.986H363.757V183.248H365.129V175.45H363.757V178.81H362.469V175.632H361.111V183.08H362.469V179.986ZM360.663 176.794H358.227V175.506H356.813V176.794H354.363V177.928H360.663V176.794ZM357.527 179.496C358.381 179.496 358.955 179.93 358.955 180.616C358.955 181.316 358.381 181.75 357.527 181.75C356.673 181.75 356.113 181.316 356.113 180.616C356.113 179.93 356.673 179.496 357.527 179.496ZM357.527 182.8C359.123 182.8 360.243 181.932 360.243 180.616C360.243 179.328 359.123 178.446 357.527 178.446C355.945 178.446 354.825 179.328 354.825 180.616C354.825 181.932 355.945 182.8 357.527 182.8ZM363.673 183.64H362.259V183.99C362.259 184.886 361.727 185.992 360.621 186.692C359.543 186.034 359.039 184.998 359.039 183.99V183.64H357.639V183.99C357.639 185.124 356.785 186.356 355.189 186.86L355.875 187.924C357.051 187.518 357.863 186.734 358.325 185.796C358.717 186.762 359.459 187.616 360.649 188.05C361.797 187.588 362.539 186.706 362.945 185.74C363.365 186.734 364.205 187.518 365.437 187.924L366.123 186.86C364.513 186.384 363.673 185.208 363.673 183.99V183.64ZM9.45 197.858C9.45 199.37 9.45 201.162 8.96 203.64L10.416 203.794C10.906 201.176 10.906 199.426 10.906 197.858V196.612H1.904V197.788H9.45V197.858ZM6.426 205.236V200.784H4.97V205.236H0.714V206.426H12.138V205.236H6.426ZM13.9849 209.8C15.4269 209.254 16.2809 208.12 16.2809 206.65C16.2809 205.572 15.8189 204.914 15.0349 204.914C14.4189 204.914 13.9149 205.32 13.9149 205.95C13.9149 206.622 14.4189 206.986 14.9929 206.986C15.0489 206.986 15.0909 206.986 15.1469 206.972C15.1469 207.784 14.5869 208.498 13.6209 208.89L13.9849 209.8ZM29.8534 195.422V208.106H31.3094V195.422H29.8534ZM21.5794 196.472V205.096H27.6554V196.472H26.2134V199.692H23.0074V196.472H21.5794ZM23.0074 200.84H26.2134V203.934H23.0074V200.84ZM43.9643 202.114H36.6703V200.378H43.5863V199.244H36.6703V197.62H43.8663V196.458H35.2003V203.276H43.9643V202.114ZM33.7863 205.348V206.524H45.2523V205.348H33.7863ZM47.6312 199.93L47.8272 201.148L55.2892 200.742C55.2192 201.568 55.0792 202.492 54.8552 203.542L56.2832 203.71C56.8432 201.036 56.8292 199.286 56.8292 197.746V196.584H47.9952V197.746H55.4012C55.4012 198.32 55.4012 198.95 55.3732 199.636L47.6312 199.93ZM52.3772 205.306V202.128H50.9212V205.306H46.6512V206.496H58.0892V205.306H52.3772ZM69.9601 195.436H68.5181V204.62H69.9601V195.436ZM61.1961 199.44C61.1961 198.278 62.0221 197.522 63.1421 197.522C64.2481 197.522 65.0881 198.278 65.0881 199.44C65.0881 200.588 64.2481 201.358 63.1421 201.358C62.0221 201.358 61.1961 200.588 61.1961 199.44ZM66.4881 199.44C66.4881 197.592 65.0461 196.276 63.1421 196.276C61.2381 196.276 59.7821 197.592 59.7821 199.44C59.7821 201.274 61.2381 202.604 63.1421 202.604C65.0461 202.604 66.4881 201.274 66.4881 199.44ZM63.1561 206.664V203.696H61.7001V207.84H70.3241V206.664H63.1561ZM81.369 195.422V208.106H82.825V195.422H81.369ZM76.091 196.36C74.215 196.36 72.843 198.096 72.843 200.812C72.843 203.556 74.215 205.278 76.091 205.278C77.981 205.278 79.353 203.556 79.353 200.812C79.353 198.096 77.981 196.36 76.091 196.36ZM76.091 197.662C77.197 197.662 77.967 198.852 77.967 200.812C77.967 202.8 77.197 203.99 76.091 203.99C74.999 203.99 74.229 202.8 74.229 200.812C74.229 198.852 74.999 197.662 76.091 197.662ZM89.4964 202.604C90.9944 202.156 92.0864 201.218 92.6324 200C93.1924 201.162 94.2844 202.058 95.7684 202.478L96.4124 201.358C94.5504 200.854 93.4304 199.594 93.3464 198.166H96.1044V197.004H93.3464V195.548H91.9044V197.004H89.1604V198.166H91.8904C91.8204 199.65 90.7144 200.966 88.8384 201.484L89.4964 202.604ZM93.3464 202.198H91.9044V204.368C90.6864 204.41 89.4964 204.41 88.5024 204.41L88.6844 205.6C90.9244 205.6 93.9484 205.586 96.7344 205.026L96.6224 203.976C95.5724 204.144 94.4524 204.242 93.3464 204.298V202.198ZM97.3924 195.422V208.106H98.8484V195.422H97.3924ZM102.375 203.136C104.503 202.8 106.211 201.82 107.051 200.392C107.877 201.82 109.585 202.8 111.713 203.136L112.259 201.974C109.599 201.61 107.863 200.168 107.779 198.474H111.727V197.298H107.765V195.66H106.323V197.298H102.347V198.474H106.309C106.225 200.168 104.489 201.61 101.829 201.974L102.375 203.136ZM107.765 205.376V202.688H106.323V205.376H101.325V206.552H112.777V205.376H107.765ZM118.278 196.318C116.304 196.318 114.848 197.564 114.848 199.356C114.848 201.148 116.304 202.394 118.278 202.394C120.252 202.394 121.722 201.148 121.722 199.356C121.722 197.564 120.252 196.318 118.278 196.318ZM118.278 197.55C119.454 197.55 120.308 198.25 120.308 199.356C120.308 200.448 119.454 201.162 118.278 201.162C117.116 201.162 116.262 200.448 116.262 199.356C116.262 198.25 117.116 197.55 118.278 197.55ZM123.15 195.422V208.092H124.606V195.422H123.15ZM114.442 205.418C116.682 205.418 119.706 205.39 122.492 204.858L122.394 203.808C119.678 204.214 116.528 204.228 114.26 204.228L114.442 205.418ZM131.796 199.16C131.796 198.082 132.608 197.368 133.742 197.368C134.876 197.368 135.702 198.082 135.702 199.16C135.702 200.28 134.876 200.98 133.742 200.98C132.608 200.98 131.796 200.28 131.796 199.16ZM137.116 199.16C137.116 197.396 135.674 196.164 133.742 196.164C131.824 196.164 130.382 197.396 130.382 199.16C130.382 200.952 131.824 202.198 133.742 202.198C135.674 202.198 137.116 200.952 137.116 199.16ZM133.448 204.424H138.684V206.776H133.448V204.424ZM132.02 207.924H140.098V203.276H132.02V207.924ZM141.89 198.39H140.098V195.436H138.656V202.688H140.098V199.58H141.89V198.39ZM153.971 197.158H149.533V195.604H148.091V197.158H143.625V198.32H153.971V197.158ZM146.061 201.47C146.061 200.644 147.069 200.168 148.791 200.168C150.527 200.168 151.535 200.644 151.535 201.47C151.535 202.31 150.527 202.786 148.791 202.786C147.069 202.786 146.061 202.31 146.061 201.47ZM149.533 205.516V203.892C151.703 203.724 153.005 202.87 153.005 201.47C153.005 199.944 151.381 199.048 148.791 199.048C146.215 199.048 144.591 199.944 144.591 201.47C144.591 202.87 145.921 203.738 148.091 203.892V205.516H143.093V206.706H154.559V205.516H149.533ZM163.573 196.892H160.549V195.478H159.107V196.892H156.055V198.054H163.573V196.892ZM158.155 201.05C158.155 200.266 158.841 199.79 159.835 199.79C160.829 199.79 161.501 200.266 161.501 201.05C161.501 201.82 160.829 202.296 159.835 202.296C158.841 202.296 158.155 201.82 158.155 201.05ZM160.549 203.346C161.949 203.122 162.859 202.254 162.859 201.05C162.859 199.622 161.627 198.684 159.835 198.684C158.029 198.684 156.797 199.622 156.797 201.05C156.797 202.254 157.707 203.108 159.107 203.346V204.578C157.931 204.62 156.797 204.62 155.831 204.62L156.027 205.81C158.197 205.81 161.123 205.782 163.825 205.306L163.713 204.242C162.705 204.396 161.627 204.466 160.549 204.522V203.346ZM167.661 200.714H165.869V195.422H164.427V208.078H165.869V201.904H167.661V200.714ZM171.202 198.096H172.504V203.85C172.07 203.864 171.636 203.878 171.202 203.892V198.096ZM173.792 198.096H174.73V196.934H168.976V198.096H169.9V203.92C169.466 203.92 169.074 203.92 168.724 203.92L168.892 205.11C170.53 205.11 173.106 205.054 175.038 204.704L174.968 203.654C174.604 203.696 174.212 203.724 173.792 203.766V198.096ZM175.892 198.978H174.436V200.154H175.892V201.596H174.436V202.772H175.892V207.448H177.25V195.716H175.892V198.978ZM178.356 195.422V208.078H179.742V195.422H178.356ZM190.717 195.436V202.226H192.159V195.436H190.717ZM183.899 202.814V207.924H192.159V202.814H190.731V204.214H185.327V202.814H183.899ZM185.327 205.334H190.731V206.762H185.327V205.334ZM185.341 196.01C183.409 196.01 181.981 197.214 181.981 198.95C181.981 200.686 183.409 201.89 185.341 201.89C187.273 201.89 188.687 200.686 188.687 198.95C188.687 197.214 187.273 196.01 185.341 196.01ZM185.341 197.2C186.475 197.2 187.287 197.9 187.287 198.95C187.287 200.014 186.475 200.7 185.341 200.7C184.193 200.7 183.395 200.014 183.395 198.95C183.395 197.9 184.193 197.2 185.341 197.2ZM196.792 196.668H195.364V204.886H196.442C198.402 204.886 200.446 204.732 202.616 204.284L202.462 203.08C200.474 203.486 198.584 203.64 196.792 203.654V196.668ZM203.624 195.436V208.078H205.066V195.436H203.624ZM209.447 197.802H213.885V196.626H208.005V204.984H209.041C211.323 204.984 213.031 204.914 214.949 204.564L214.795 203.374C213.031 203.682 211.491 203.766 209.447 203.78V197.802ZM219.261 200.294H217.287V195.422H215.845V208.092H217.287V201.484H219.261V200.294ZM221.752 207.182C222.354 207.182 222.83 206.72 222.83 206.062C222.83 205.39 222.354 204.914 221.752 204.914C221.15 204.914 220.674 205.39 220.674 206.062C220.674 206.72 221.15 207.182 221.752 207.182Z" fill="#737373"/>
</g>
<defs>
<filter id="filter0_i" x="0" y="0" width="382" height="225" filterUnits="userSpaceOnUse" color-interpolation-filters="sRGB">
<feFlood flood-opacity="0" result="BackgroundImageFix"/>
<feBlend mode="normal" in="SourceGraphic" in2="BackgroundImageFix" result="shape"/>
<feColorMatrix in="SourceAlpha" type="matrix" values="0 0 0 0 0 0 0 0 0 0 0 0 0 0 0 0 0 0 127 0" result="hardAlpha"/>
<feOffset dy="-1"/>
<feComposite in2="hardAlpha" operator="arithmetic" k2="-1" k3="1"/>
<feColorMatrix type="matrix" values="0 0 0 0 0.92549 0 0 0 0 0.937255 0 0 0 0 0.945098 0 0 0 1 0"/>
<feBlend mode="normal" in2="shape" result="effect1_innerShadow"/>
</filter>
</defs>
</svg>
