<svg width="91" height="80" viewBox="0 0 91 80" fill="none" xmlns="http://www.w3.org/2000/svg">
<path d="M53 35H38L38.5 42.9999H56.5L58 41.4999V28.5999C58 30.9999 54.6667 34.3333 53 35Z" fill="#FFB11A"/>
<path d="M58 20H38C37.4 20 37 20.4 37 21V29H35C34.4 29 34 29.4 34 30V41.5C34 42.9 35.1 44 36.5 44C36.6 44 36.7 44 36.8 44C36.9 44 36.9 44 37 44H56C57.7 44 59 42.7 59 41V21C59 20.4 58.6 20 58 20ZM36 31H37V41V41.5C37 41.8 36.8 42 36.5 42C36.2 42 36 41.8 36 41.5V31ZM57 26V29V32V37V40V41C57 41.6 56.6 42 56 42H38.9C39 41.8 39 41.7 39 41.5V41V30V22H57V26Z" fill="black"/>
<path d="M40.9983 32.9973H47.9983C48.5983 32.9973 48.9983 32.5973 48.9983 31.9973V23.9973C48.9983 23.3973 48.5983 22.9973 47.9983 22.9973H40.9983C40.3983 22.9973 39.9983 23.3973 39.9983 23.9973V31.9973C39.9983 32.5973 40.3983 32.9973 40.9983 32.9973ZM41.9983 24.9973H46.9983V30.9973H41.9983V24.9973Z" fill="black"/>
<path d="M56 25.0015H51C50.4 25.0015 50 25.4015 50 26.0015C50 26.6015 50.4 27.0015 51 27.0015H56C56.6 27.0015 57 26.6015 57 26.0015C57 25.4015 56.6 25.0015 56 25.0015Z" fill="black"/>
<path d="M56 28.001H51C50.4 28.001 50 28.401 50 29.001C50 29.601 50.4 30.001 51 30.001H56C56.6 30.001 57 29.601 57 29.001C57 28.401 56.6 28.001 56 28.001Z" fill="black"/>
<path d="M56.0007 30.9976H51.0007C50.4007 30.9976 50.0007 31.3976 50.0007 31.9976C50.0007 32.5976 50.4007 32.9976 51.0007 32.9976H56.0007C56.6007 32.9976 57.0007 32.5976 57.0007 31.9976C57.0007 31.3976 56.6007 30.9976 56.0007 30.9976Z" fill="black"/>
<path d="M55.9998 36.0017H41.9998C41.3998 36.0017 40.9998 36.4017 40.9998 37.0017C40.9998 37.6017 41.3998 38.0017 41.9998 38.0017H55.9998C56.5998 38.0017 56.9998 37.6017 56.9998 37.0017C56.9998 36.4017 56.5998 36.0017 55.9998 36.0017Z" fill="black"/>
<path d="M55.9993 38.9905H41.9993C41.3993 38.9905 40.9993 39.3905 40.9993 39.9905C40.9993 40.5905 41.3993 40.9905 41.9993 40.9905H55.9993C56.5993 40.9905 56.9993 40.5905 56.9993 39.9905C56.9993 39.3905 56.5993 38.9905 55.9993 38.9905Z" fill="black"/>
<path d="M24.3139 51.301V62.975H25.3799V51.301H24.3139ZM16.5009 52.289V60.154H21.9869V52.289H20.9339V55.37H17.5539V52.289H16.5009ZM17.5539 56.215H20.9339V59.283H17.5539V56.215ZM35.9089 54.538H30.2409V53.42H35.9089V54.538ZM36.9619 51.509H35.9089V52.614H30.2409V51.509H29.1879V55.357H36.9619V51.509ZM30.1369 60.856H36.9879V58.256H29.0579V59.062H35.9349V60.089H29.0969V62.832H37.3389V62.013H30.1369V60.856ZM27.7839 56.345V57.19H38.3399V56.345H27.7839ZM40.9259 60.349H47.9719V62.858H49.0379V59.478H40.9259V60.349ZM45.5799 57.71V56.488H49.2199V55.656H42.1609V54.434H48.9729V51.6H41.0819V52.432H47.9199V53.641H41.1079V56.488H44.5009V57.71H39.7429V58.581H50.3249V57.71H45.5799ZM64.6841 56.995C62.6431 56.631 60.4201 54.915 60.4201 52.978V52.081H59.3021V52.978C59.3021 54.915 57.0921 56.631 55.0511 56.995L55.4931 57.879C57.2871 57.502 59.1071 56.293 59.8611 54.629C60.6151 56.293 62.4481 57.502 64.2291 57.879L64.6841 56.995ZM60.3941 60.57V57.736H59.3281V60.57H54.6221V61.441H65.2041V60.57H60.3941ZM73.6141 56.787C71.8851 56.189 70.6891 54.668 70.6891 52.991V51.847H69.6231V52.991C69.6231 54.733 68.4401 56.358 66.6851 56.995L67.2311 57.84C68.5961 57.32 69.6621 56.241 70.1691 54.863C70.6891 56.15 71.7421 57.151 73.0811 57.632L73.6141 56.787ZM68.3491 59.777H75.0831V62.975H76.1491V58.919H68.3491V59.777ZM75.0831 51.314V58.321H76.1491V51.314H75.0831Z" fill="black"/>
</svg>
