<svg width="91" height="80" viewBox="0 0 91 80" fill="none" xmlns="http://www.w3.org/2000/svg">
<path d="M57.75 38.5H35.25V42L36.75 43.5H55.25L57.75 42V38.5Z" fill="#FFB11A"/>
<path d="M56 25.9966H53.3L42.5 20.0966C42 19.8966 41.4 19.9966 41.1 20.4966C40.8 20.9966 41 21.5966 41.5 21.8966L49.1 25.9966H37C35.3 25.9966 34 27.2966 34 28.9966V40.9966C34 42.6966 35.3 43.9966 37 43.9966H56C57.7 43.9966 59 42.6966 59 40.9966V28.9966C59 27.2966 57.7 25.9966 56 25.9966ZM57 40.9966C57 41.5966 56.6 41.9966 56 41.9966H37C36.4 41.9966 36 41.5966 36 40.9966V28.9966C36 28.3966 36.4 27.9966 37 27.9966H56C56.6 27.9966 57 28.3966 57 28.9966V40.9966Z" fill="black"/>
<path d="M42.0011 29.9985C39.2011 29.9985 37.0011 32.1985 37.0011 34.9985C37.0011 37.7985 39.2011 39.9985 42.0011 39.9985C44.8011 39.9985 47.0011 37.7985 47.0011 34.9985C47.0011 32.1985 44.8011 29.9985 42.0011 29.9985ZM42.0011 37.9985C40.3011 37.9985 39.0011 36.6985 39.0011 34.9985C39.0011 33.2985 40.3011 31.9985 42.0011 31.9985C43.7011 31.9985 45.0011 33.2985 45.0011 34.9985C45.0011 36.6985 43.7011 37.9985 42.0011 37.9985Z" fill="black"/>
<path d="M55.0024 29.9985H49.0024C48.4024 29.9985 48.0024 30.3985 48.0024 30.9985C48.0024 31.5985 48.4024 31.9985 49.0024 31.9985H55.0024C55.6024 31.9985 56.0024 31.5985 56.0024 30.9985C56.0024 30.3985 55.6024 29.9985 55.0024 29.9985Z" fill="black"/>
<path d="M55.0024 34.0024H49.0024C48.4024 34.0024 48.0024 34.4024 48.0024 35.0024C48.0024 35.6024 48.4024 36.0024 49.0024 36.0024H55.0024C55.6024 36.0024 56.0024 35.6024 56.0024 35.0024C56.0024 34.4024 55.6024 34.0024 55.0024 34.0024Z" fill="black"/>
<path d="M55.0024 37.9988H49.0024C48.4024 37.9988 48.0024 38.3988 48.0024 38.9988C48.0024 39.5988 48.4024 39.9988 49.0024 39.9988H55.0024C55.6024 39.9988 56.0024 39.5988 56.0024 38.9988C56.0024 38.3988 55.6024 37.9988 55.0024 37.9988Z" fill="black"/>
<path d="M16.7999 56.033L16.9559 56.917L23.9889 56.527C23.9239 57.424 23.7939 58.386 23.5339 59.504L24.5869 59.608C25.0939 57.216 25.0939 55.643 25.0939 53.914V52.484H17.0989V53.355H24.0539V53.914C24.0539 54.512 24.0539 55.11 24.0279 55.721L16.7999 56.033ZM15.8509 60.466V61.337H26.3939V60.466H15.8509ZM34.8819 56.228C33.0359 56.527 31.5149 56.592 29.4479 56.592V55.019H33.6729V51.873H28.3689V52.731H32.6199V54.2H28.4079V57.463H29.3439C31.5019 57.463 33.0879 57.398 34.9989 57.086L34.8819 56.228ZM36.3119 61.935H30.8649V60.505H36.3119V61.935ZM36.3119 59.673H30.8649V58.295H29.8119V62.806H37.3649V58.295H36.3119V59.673ZM36.2989 51.314V57.71H37.3649V51.314H36.2989ZM45.5669 60.635V58.23H49.1289V57.359H42.1869V55.604H48.7519V54.759H42.1869V53.121H49.0119V52.25H41.1079V58.23H44.5009V60.635H39.7429V61.506H50.3379V60.635H45.5669ZM63.9171 55.24H57.0271V51.899H55.9611V56.098H63.9171V55.24ZM65.1651 57.775H54.6221V58.659H57.3521V62.962H58.4051V58.659H61.3691V62.962H62.4351V58.659H65.1651V57.775ZM76.6301 57.164C74.5891 56.774 72.3791 55.006 72.3791 53.017V52.12H71.2611V53.017C71.2611 55.006 69.0641 56.761 67.0231 57.164L67.5041 58.048C69.2591 57.632 71.0791 56.384 71.8201 54.681C72.5611 56.397 74.3811 57.645 76.1491 58.048L76.6301 57.164ZM66.5811 60.518V61.402H77.1501V60.518H66.5811Z" fill="black"/>
</svg>
