<svg width="91" height="80" viewBox="0 0 91 80" fill="none" xmlns="http://www.w3.org/2000/svg">
<g clip-path="url(#clip0)">
<path d="M50 30.5L56.5 29.5H57L57.5 34.5L56.5 36L51 35.5L49 34.5V32.5L50 30.5Z" fill="#FFB11A"/>
<path d="M52 21.5L52.5 24.5H36L35 23L36 21.5H52Z" fill="#FFB11A"/>
<path d="M50 30.5L56.5 29.5H57L57.5 34.5L56.5 36L51 35.5L49 34.5V32.5L50 30.5Z" stroke="black" stroke-linecap="round" stroke-linejoin="round"/>
<path d="M52 21.5L52.5 24.5H36L35 23L36 21.5H52Z" stroke="black" stroke-linecap="round" stroke-linejoin="round"/>
<path d="M56.5 23.913H53.5652V21.9565C53.5652 20.8804 52.6848 20 51.6087 20H36.9348C35.2717 20 34 21.2717 34 22.9348V24.8913V26.8478V42.0652C34 43.7283 35.2717 45 36.9348 45H55.5217C57.1848 45 58.4565 43.7283 58.4565 42.0652V36.6304V28.8043V25.8696C58.4565 24.7935 57.5761 23.913 56.5 23.913ZM36.9348 21.9565H51.6087V23.913H36.9348C36.3478 23.913 35.9565 23.5217 35.9565 22.9348C35.9565 22.3478 36.3478 21.9565 36.9348 21.9565ZM56.5 34.6739H51.6087C50.5326 34.6739 49.6522 33.7935 49.6522 32.7174C49.6522 31.6413 50.5326 30.7609 51.6087 30.7609H56.5V34.6739ZM51.6087 28.8043C49.4565 28.8043 47.6957 30.5652 47.6957 32.7174C47.6957 34.8696 49.4565 36.6304 51.6087 36.6304H56.5V42.0652C56.5 42.6522 56.1087 43.0435 55.5217 43.0435H36.9348C36.3478 43.0435 35.9565 42.6522 35.9565 42.0652V26.8478V25.6739C36.25 25.7717 36.5435 25.8696 36.9348 25.8696H56.5V28.8043H51.6087Z" fill="black"/>
<path d="M50.1411 32.7174C50.1411 33.5 50.8259 34.1848 51.6085 34.1848C52.3911 34.1848 53.0759 33.5 53.0759 32.7174C53.0759 31.9348 52.3911 31.25 51.6085 31.25C50.8259 31.25 50.1411 31.9348 50.1411 32.7174Z" fill="black"/>
<path d="M37.2525 51.314V57.567H38.3185V51.314H37.2525ZM30.8045 58.139V62.806H38.3185V58.139H37.2655V59.569H31.8575V58.139H30.8045ZM31.8575 60.401H37.2655V61.948H31.8575V60.401ZM32.0525 51.86C30.2975 51.86 29.0235 52.952 29.0235 54.538C29.0235 56.15 30.2975 57.229 32.0525 57.229C33.8205 57.229 35.1075 56.15 35.1075 54.538C35.1075 52.952 33.8205 51.86 32.0525 51.86ZM32.0525 52.744C33.2355 52.744 34.0675 53.485 34.0675 54.538C34.0675 55.604 33.2355 56.345 32.0525 56.345C30.8955 56.345 30.0635 55.604 30.0635 54.538C30.0635 53.485 30.8955 52.744 32.0525 52.744ZM41.5805 55.955C43.5435 55.799 45.2725 55.201 45.9875 54.122C46.7025 55.201 48.4185 55.799 50.3685 55.955L50.6935 55.149C48.5225 55.006 46.7675 54.291 46.5855 53.134H50.1735V52.328H46.5205V51.223H45.4545V52.328H41.7885V53.134H45.3895C45.2075 54.291 43.4265 55.006 41.2685 55.149L41.5805 55.955ZM51.2395 57.294V56.475H40.7225V57.294H45.4415V58.373H41.9705V59.166H48.8475V60.154H42.0095V62.832H50.2515V62.026H43.0495V60.921H49.9005V58.373H46.5205V57.294H51.2395ZM55.0085 59.517H60.8715V61.948H55.0085V59.517ZM53.9685 62.806H61.9245V58.659H53.9685V62.806ZM61.5735 56.215C61.8855 54.759 61.8855 53.693 61.8855 52.783V51.925H54.0075V52.783H60.8325C60.8325 53.693 60.8325 54.759 60.4945 56.215H52.6555V57.073H63.2505V56.215H61.5735Z" fill="black"/>
</g>
<defs>
<clipPath id="clip0">
<rect width="91" height="80" fill="white"/>
</clipPath>
</defs>
</svg>
