<svg width="91" height="80" viewBox="0 0 91 80" fill="none" xmlns="http://www.w3.org/2000/svg">
<path d="M53.25 33H34.75V37H50.75L57.25 41V29.5L53.25 33Z" fill="#FFB11A" stroke="#FFB11A" stroke-linecap="round" stroke-linejoin="round"/>
<path d="M57.25 41.9231C57.05 41.9231 56.85 41.8231 56.65 41.7231L50.95 37.9231H35.25C34.15 37.9231 33.25 37.0231 33.25 35.9231V23.9231C33.25 22.8231 34.15 21.9231 35.25 21.9231H56.25C57.35 21.9231 58.25 22.8231 58.25 23.9231V40.9231C58.25 41.3231 58.05 41.6231 57.75 41.8231C57.55 41.9231 57.45 41.9231 57.25 41.9231ZM35.25 23.9231V35.9231H51.25C51.45 35.9231 51.65 36.0231 51.85 36.1231L56.25 39.1231V23.9231H35.25Z" fill="black"/>
<path d="M52.2501 28.9261H38.2501C37.6501 28.9261 37.2501 28.5261 37.2501 27.9261C37.2501 27.3261 37.6501 26.9261 38.2501 26.9261H52.2501C52.8501 26.9261 53.2501 27.3261 53.2501 27.9261C53.2501 28.5261 52.8501 28.9261 52.2501 28.9261Z" fill="black"/>
<path d="M52.25 32.923H38.25C37.65 32.923 37.25 32.523 37.25 31.923C37.25 31.323 37.65 30.923 38.25 30.923H52.25C52.85 30.923 53.25 31.323 53.25 31.923C53.25 32.523 52.85 32.923 52.25 32.923Z" fill="black"/>
<path d="M23.3249 62H24.5339V57.723H28.1739V56.709H24.5339V53.485H28.8239V52.458H23.3249V62ZM31.6029 56.67C31.9409 55.591 32.2529 54.564 32.5519 53.446H32.6039C32.9159 54.551 33.2149 55.591 33.5659 56.67L34.0209 58.126H31.1349L31.6029 56.67ZM28.6909 62H29.9129L30.8359 59.088H34.3199L35.2299 62H36.5039L33.2669 52.458H31.9279L28.6909 62ZM41.2317 61.181C39.5157 61.181 38.3977 59.634 38.3977 57.203C38.3977 54.811 39.5157 53.342 41.2317 53.342C42.9347 53.342 44.0657 54.811 44.0657 57.203C44.0657 59.634 42.9347 61.181 41.2317 61.181ZM44.1437 64.392C44.7157 64.392 45.2227 64.288 45.5087 64.184L45.2747 63.248C45.0277 63.326 44.7027 63.391 44.2737 63.391C43.2467 63.391 42.3627 62.962 41.9337 62.117C43.9487 61.766 45.3007 59.946 45.3007 57.203C45.3007 54.148 43.6237 52.289 41.2317 52.289C38.8397 52.289 37.1627 54.148 37.1627 57.203C37.1627 59.998 38.5667 61.844 40.6467 62.13C41.1797 63.443 42.3887 64.392 44.1437 64.392ZM56.3011 51.314H55.2351V57.359H56.3011V51.314ZM53.8831 56.293C52.1541 55.786 50.9451 54.447 50.9451 52.952V52.822H53.5841V51.964H47.1881V52.822H49.8531V52.952C49.8531 54.538 48.6571 55.968 46.9021 56.527L47.4091 57.372C48.8261 56.891 49.9181 55.877 50.4121 54.59C50.9451 55.786 52.0241 56.709 53.3891 57.125L53.8831 56.293ZM49.8401 61.987V60.713H56.3141V57.918H48.7611V58.75H55.2611V59.92H48.7871V62.832H56.7041V61.987H49.8401ZM66.8431 55.084H61.0971V52.705H66.8431V55.084ZM67.8961 51.847H60.0571V55.942H67.8961V51.847ZM61.0971 59.374H60.0311V62.702H68.0911V61.831H61.0971V59.374ZM58.6791 57.268V58.126H63.5281V60.479H64.5941V58.126H69.2741V57.268H58.6791Z" fill="black"/>
</svg>
