<svg width="91" height="80" viewBox="0 0 91 80" fill="none" xmlns="http://www.w3.org/2000/svg">
<path d="M47.5 31V21H54V31.5L50.5 29.5L47.5 31Z" fill="#FFB11A" stroke="#FFB11A" stroke-linecap="round" stroke-linejoin="round"/>
<path d="M57.7692 23C57.7692 21.3 56.4692 20 54.7692 20H53.7692H47.7692H36C34.3 20 33 21.3 33 23V42C33 43.7 34.3 45 36 45H56.7692C57.2692 45 57.6692 44.7 57.7692 44.2C57.8692 43.7 57.6692 43.3 57.2692 43.1C56.6692 42.8 56.3692 42.4 56.3692 42C56.3692 41.6 56.7692 41.2 57.2692 40.9C57.3692 40.9 57.3692 40.8 57.4692 40.7C57.4692 40.7 57.4692 40.7 57.5692 40.7C57.6692 40.6 57.7692 40.5 57.7692 40.4V40.3C57.7692 40.2 57.7692 40.1 57.8692 40V23H57.7692ZM52.7692 22V29.6L51.4692 28.3C51.2692 28.1 51.0692 28 50.7692 28C50.4692 28 50.2692 28.1 50.0692 28.3L48.7692 29.6V22H52.7692ZM36 22H46.7692V32C46.7692 32.4 46.9692 32.8 47.3692 32.9C47.7692 33 48.1692 33 48.4692 32.7L50.7692 30.4L53.0692 32.7C53.2692 32.9 53.4692 33 53.7692 33C53.8692 33 54.0692 33 54.1692 32.9C54.5692 32.7 54.7692 32.4 54.7692 32V22C55.3692 22 55.7692 22.4 55.7692 23V39H36C35.6 39 35.3 39.1 35 39.2V23C35 22.4 35.4 22 36 22ZM54.4692 43H36C35.4 43 35 42.6 35 42C35 41.4 35.4 41 36 41H54.4692C54.3692 41.3 54.2692 41.7 54.2692 42C54.2692 42.3 54.3692 42.7 54.4692 43Z" fill="black"/>
<path d="M29.3745 52.549V53.433H33.6515C33.4045 56.189 31.8055 58.425 28.8285 59.92L29.4135 60.752C33.1835 58.867 34.7045 55.864 34.7045 52.549H29.3745ZM39.5925 56.033H37.7205V51.301H36.6545V62.962H37.7205V56.917H39.5925V56.033ZM49.1855 51.301V62.988H50.2515V51.301H49.1855ZM44.1025 52.198C42.3735 52.198 41.1385 53.784 41.1385 56.267C41.1385 58.75 42.3735 60.336 44.1025 60.336C45.8315 60.336 47.0665 58.75 47.0665 56.267C47.0665 53.784 45.8315 52.198 44.1025 52.198ZM44.1025 53.16C45.2335 53.16 46.0395 54.382 46.0395 56.267C46.0395 58.165 45.2335 59.387 44.1025 59.387C42.9585 59.387 42.1525 58.165 42.1525 56.267C42.1525 54.382 42.9585 53.16 44.1025 53.16ZM62.0155 56.891H55.0605V53.251H61.8985V52.367H54.0075V57.762H62.0155V56.891ZM52.6555 60.505V61.389H63.2375V60.505H52.6555Z" fill="black"/>
</svg>
