<svg width="91" height="80" viewBox="0 0 91 80" fill="none" xmlns="http://www.w3.org/2000/svg">
<path d="M52.8382 39.2222C52.8382 39.2222 42.0343 39.5926 37.75 39.2222V42H56.75L55.6324 37C55.4461 37.3704 52.8382 39.2222 52.8382 39.2222Z" fill="#FFB11A" stroke="#FFB11A" stroke-linecap="round" stroke-linejoin="round"/>
<path d="M51.15 34.9403H51.1624L51.1748 34.94C52.6259 34.904 54.0262 35.4254 55.0693 36.3793C56.1078 37.329 56.7073 38.6284 56.75 39.991V41.827C56.738 42.1333 56.6022 42.431 56.359 42.6535C56.1115 42.88 55.7736 43.0082 55.4184 42.9995L55.4063 42.9993H55.3942H38.1077H38.0952L38.0827 42.9996C37.7273 43.0084 37.3891 42.8804 37.1413 42.6538C36.898 42.4313 36.762 42.1335 36.75 41.827V39.991C36.7927 38.6284 37.3922 37.329 38.4307 36.3793C39.4738 35.4254 40.8741 34.904 42.3252 34.94L42.3376 34.9403H42.35H42.9757C44.1741 35.4142 45.4564 35.658 46.7509 35.658C48.0455 35.658 49.3277 35.4142 50.5262 34.9403H51.15ZM49.3949 30.573C48.6168 31.127 47.6843 31.4523 46.7116 31.505C45.3464 31.536 44.0299 31.0444 43.0487 30.1473C42.0691 29.2517 41.504 28.0268 41.4635 26.7426C41.4663 25.8257 41.746 24.9264 42.2728 24.1545C42.8026 23.3783 43.5605 22.7637 44.4566 22.392C45.3529 22.0201 46.3447 21.9093 47.3079 22.0747C48.271 22.2402 49.1582 22.6736 49.8613 23.3164C50.5641 23.9589 51.0517 24.7817 51.2698 25.6807C51.4877 26.5794 51.4281 27.5199 51.0971 28.3876C50.766 29.2556 50.1762 30.0167 49.3949 30.573Z" stroke="black" stroke-width="2"/>
<path d="M18.2995 53.329H21.5625V59.14H18.2995V53.329ZM17.2595 59.998H22.6025V52.471H17.2595V59.998ZM27.6855 55.955H25.7615V51.314H24.6955V62.962H25.7615V56.852H27.6855V55.955ZM37.2265 51.301V62.988H38.2925V51.301H37.2265ZM32.1435 52.198C30.4145 52.198 29.1795 53.784 29.1795 56.267C29.1795 58.75 30.4145 60.336 32.1435 60.336C33.8725 60.336 35.1075 58.75 35.1075 56.267C35.1075 53.784 33.8725 52.198 32.1435 52.198ZM32.1435 53.16C33.2745 53.16 34.0805 54.382 34.0805 56.267C34.0805 58.165 33.2745 59.387 32.1435 59.387C30.9995 59.387 30.1935 58.165 30.1935 56.267C30.1935 54.382 30.9995 53.16 32.1435 53.16ZM42.7505 53.641H44.2065V59.114C43.7125 59.14 43.2315 59.153 42.7505 59.166V53.641ZM45.1815 53.641H46.1435V52.783H40.8135V53.641H41.7755V59.192C41.3335 59.205 40.9435 59.205 40.5925 59.205L40.6965 60.089C42.2175 60.089 44.6615 60.037 46.4685 59.699L46.4035 58.919C46.0265 58.971 45.5975 59.01 45.1815 59.049V53.641ZM47.3915 55.747H45.7925V56.683H47.3915V62.351H48.3925V51.587H47.3915V55.747ZM49.6405 51.314V62.962H50.6675V51.314H49.6405ZM61.1445 51.301V62.988H62.2105V51.301H61.1445ZM56.0615 52.198C54.3325 52.198 53.0975 53.784 53.0975 56.267C53.0975 58.75 54.3325 60.336 56.0615 60.336C57.7905 60.336 59.0255 58.75 59.0255 56.267C59.0255 53.784 57.7905 52.198 56.0615 52.198ZM56.0615 53.16C57.1925 53.16 57.9985 54.382 57.9985 56.267C57.9985 58.165 57.1925 59.387 56.0615 59.387C54.9175 59.387 54.1115 58.165 54.1115 56.267C54.1115 54.382 54.9175 53.16 56.0615 53.16ZM68.7875 53.381H71.5305V52.497H65.0175V53.381H67.7215V54.863C67.7215 56.878 66.3045 59.075 64.6275 59.868L65.2515 60.726C66.5775 60.05 67.7215 58.581 68.2545 56.878C68.8135 58.477 69.9575 59.816 71.3095 60.44L71.9075 59.582C70.1915 58.854 68.7875 56.839 68.7875 54.863V53.381ZM73.1035 51.314V62.962H74.1695V51.314H73.1035Z" fill="black"/>
<rect x="61" y="21" width="20" height="20" rx="10" fill="black"/>
<path d="M64.75 31C64.75 30.4615 64.816 29.9398 64.9396 29.4412C65.2711 29.4592 65.601 29.3819 65.8927 29.2176C66.1845 29.0533 66.4268 28.8085 66.5928 28.5103C66.7589 28.2121 66.8422 27.872 66.8336 27.5278C66.825 27.1835 66.7248 26.8484 66.5441 26.5595C67.2695 25.819 68.1646 25.2823 69.1452 25C69.2958 25.3072 69.5254 25.5652 69.8086 25.7454C70.0918 25.9256 70.4175 26.0209 70.7497 26.0209C71.0819 26.0209 71.4076 25.9256 71.6908 25.7454C71.974 25.5652 72.2036 25.3072 72.3542 25C73.3348 25.2823 74.2299 25.819 74.9553 26.5595C74.7744 26.8484 74.6741 27.1836 74.6654 27.5281C74.6567 27.8725 74.7401 28.2128 74.9062 28.5111C75.0724 28.8095 75.3148 29.0543 75.6068 29.2186C75.8987 29.3828 76.2288 29.4601 76.5604 29.4418C76.684 29.9398 76.75 30.4615 76.75 31C76.75 31.5385 76.684 32.0602 76.5604 32.5588C76.2288 32.5406 75.8989 32.6179 75.6071 32.7821C75.3152 32.9464 75.0728 33.1911 74.9067 33.4894C74.7406 33.7876 74.6572 34.1277 74.6658 34.4721C74.6744 34.8164 74.7746 35.1516 74.9553 35.4405C74.2299 36.181 73.3348 36.7177 72.3542 37C72.2036 36.6928 71.974 36.4348 71.6908 36.2546C71.4076 36.0744 71.0819 35.9791 70.7497 35.9791C70.4175 35.9791 70.0918 36.0744 69.8086 36.2546C69.5254 36.4348 69.2958 36.6928 69.1452 37C68.1646 36.7177 67.2695 36.181 66.5441 35.4405C66.725 35.1516 66.8253 34.8164 66.834 34.4719C66.8427 34.1275 66.7593 33.7872 66.5932 33.4889C66.427 33.1905 66.1846 32.9457 65.8926 32.7814C65.6007 32.6172 65.2706 32.5399 64.939 32.5582C64.816 32.0608 64.75 31.5391 64.75 31ZM67.6325 32.8676C68.0106 33.5468 68.1186 34.3281 67.971 35.0614C68.2158 35.242 68.4762 35.3982 68.7492 35.5283C69.2992 35.0171 70.0119 34.7347 70.7503 34.7352C71.5063 34.7352 72.2132 35.0284 72.7514 35.5283C73.0244 35.3982 73.2848 35.242 73.5296 35.0614C73.3781 34.3119 73.4986 33.5307 73.8681 32.8676C74.2369 32.2042 74.8287 31.7054 75.5301 31.4669C75.5579 31.1563 75.5579 30.8437 75.5301 30.5331C74.8285 30.2947 74.2364 29.7959 73.8675 29.1324C73.498 28.4693 73.3775 27.6881 73.529 26.9386C73.2843 26.758 73.0237 26.6017 72.7508 26.4717C72.2009 26.9827 71.4885 27.2652 70.7503 27.2648C70.0119 27.2653 69.2992 26.9829 68.7492 26.4717C68.4763 26.6017 68.2157 26.758 67.971 26.9386C68.1225 27.6881 68.002 28.4693 67.6325 29.1324C67.2637 29.7958 66.6719 30.2946 65.9705 30.5331C65.9427 30.8437 65.9427 31.1563 65.9705 31.4669C66.6721 31.7053 67.2642 32.2041 67.6331 32.8676H67.6325ZM70.7503 32.8676C70.2729 32.8676 69.815 32.6708 69.4774 32.3206C69.1399 31.9704 68.9502 31.4953 68.9502 31C68.9502 30.5047 69.1399 30.0296 69.4774 29.6794C69.815 29.3292 70.2729 29.1324 70.7503 29.1324C71.2277 29.1324 71.6856 29.3292 72.0232 29.6794C72.3607 30.0296 72.5504 30.5047 72.5504 31C72.5504 31.4953 72.3607 31.9704 72.0232 32.3206C71.6856 32.6708 71.2277 32.8676 70.7503 32.8676ZM70.7503 31.6225C70.9094 31.6225 71.0621 31.5569 71.1746 31.4402C71.2871 31.3235 71.3503 31.1651 71.3503 31C71.3503 30.8349 71.2871 30.6765 71.1746 30.5598C71.0621 30.4431 70.9094 30.3775 70.7503 30.3775C70.5912 30.3775 70.4385 30.4431 70.326 30.5598C70.2135 30.6765 70.1503 30.8349 70.1503 31C70.1503 31.1651 70.2135 31.3235 70.326 31.4402C70.4385 31.5569 70.5912 31.6225 70.7503 31.6225Z" fill="white"/>
</svg>
