<svg width="91" height="80" viewBox="0 0 91 80" fill="none" xmlns="http://www.w3.org/2000/svg">
<path d="M55.25 26L50.25 31L41.25 40L44.25 43.5L55.75 32L55.25 26Z" fill="#FFB11A"/>
<path d="M56.8496 25.0813C56.8496 24.6748 56.6463 24.3699 56.4431 24.065C56.4431 21.8293 55.0203 20 53.0894 20C51.565 20 50.4472 21.1179 49.939 22.7439L47.8049 22.5407C47.5 22.5407 47.1951 22.6423 46.9919 22.8455L35.6098 34.3293C34.7967 35.1423 34.7967 36.3618 35.6098 37.1748L42.8252 44.3902C43.2317 44.7967 43.7398 45 44.248 45C44.7561 45 45.2642 44.7967 45.6707 44.3902L57.1545 32.9065C57.3577 32.7033 57.4594 32.3984 57.4594 32.0935L56.8496 25.0813ZM53.1911 22.0325C53.5976 22.0325 54.1057 22.439 54.3089 23.1504L52.1748 22.9472C52.378 22.3374 52.7846 22.0325 53.1911 22.0325ZM44.248 42.9675L37.0325 35.752L48.2114 24.5732L49.939 24.7764C50.1423 26.7073 51.4634 28.1301 53.1911 28.1301C53.8008 28.1301 54.2073 27.7236 54.2073 27.1138C54.2073 26.5041 53.8008 26.0976 53.1911 26.0976C52.7846 26.0976 52.2764 25.6911 52.0732 24.9797L54.8171 25.1829L55.4268 31.7886L44.248 42.9675Z" fill="black"/>
<path d="M48.5164 28.6381C48.1099 28.2316 47.5001 28.2316 47.0936 28.6381L40.5895 35.1422C40.183 35.5487 40.183 36.1585 40.5895 36.565C40.7928 36.7682 41.0977 36.8698 41.3009 36.8698C41.5042 36.8698 41.8091 36.7682 42.0123 36.565L48.5164 30.0609C48.9229 29.6544 48.9229 29.0446 48.5164 28.6381Z" fill="black"/>
<path d="M49.9391 31.4838L43.435 37.9879C43.0285 38.3944 43.0285 39.0042 43.435 39.4107C43.6383 39.6139 43.9431 39.7155 44.1464 39.7155C44.3496 39.7155 44.6545 39.6139 44.8578 39.4107L51.3618 32.9066C51.7683 32.5001 51.7683 31.8903 51.3618 31.4838C50.9553 31.0773 50.3456 31.0773 49.9391 31.4838Z" fill="black"/>
<path d="M23.6726 62H24.8166V56.995C24.8166 55.994 24.7256 54.98 24.6736 54.018H24.7256L25.7526 55.981L29.2236 62H30.4586V52.458H29.3146V57.424C29.3146 58.412 29.4056 59.478 29.4706 60.44H29.4056L28.3916 58.477L24.9206 52.458H23.6726V62ZM33.0544 62H34.2634V57.723H37.9034V56.709H34.2634V53.485H38.5534V52.458H33.0544V62ZM42.2162 62H43.4252V53.485H46.3112V52.458H39.3302V53.485H42.2162V62ZM48.9065 53.329H52.1695V59.14H48.9065V53.329ZM47.8665 59.998H53.2095V52.471H47.8665V59.998ZM58.2925 55.955H56.3685V51.314H55.3025V62.962H56.3685V56.852H58.2925V55.955ZM69.2375 51.314H68.2235V59.218H69.2375V51.314ZM65.9225 55.578V58.178H66.9235V51.509H65.9225V54.72H64.1675C64.4145 53.966 64.5315 53.147 64.5315 52.289H60.0075V53.16H63.4785C63.4395 53.628 63.3485 54.07 63.2185 54.499L59.4615 54.746L59.6305 55.617L62.8675 55.279C62.2565 56.41 61.1645 57.359 59.4745 58.087L59.9945 58.867C61.8795 58.035 63.1015 56.93 63.8035 55.578H65.9225ZM65.8575 58.542H64.7915V58.906C64.7915 60.466 62.8805 61.753 60.8265 62.078L61.2425 62.923C62.9975 62.611 64.6095 61.701 65.3245 60.388C66.0395 61.701 67.6775 62.611 69.4195 62.923L69.8485 62.078C67.7815 61.753 65.8575 60.466 65.8575 58.906V58.542Z" fill="black"/>
</svg>
