<svg width="91" height="80" viewBox="0 0 91 80" fill="none" xmlns="http://www.w3.org/2000/svg">
<rect x="37.75" y="29" width="2" height="9" fill="#FFB11A"/>
<rect x="53.75" y="29" width="2" height="9" fill="#FFB11A"/>
<path d="M59 33.5C59 32.1 58.2 30.9 57 30.3C56.9 29.2 56.1 28.2 55 28C54.8 23.5 51.1 20 46.5 20C41.9 20 38.3 23.6 38 28C36.9 28.2 36.1 29.2 36 30.3C34.8 30.9 34 32.1 34 33.5C34 34.9 34.8 36.1 36 36.7C36.1 38 37.2 39 38.5 39C39.9 39 41 37.9 41 36.5V30.5C41 29.7 40.6 29 40 28.5C40 24.9 42.9 22 46.5 22C50.1 22 53 24.9 53 28.5C52.4 29 52 29.7 52 30.5V36.5C52 37.7 52.8 38.7 54 38.9C53.8 41 52.7 41.9 48.8 42C48.5 41.4 47.8 41 47.1 41H44.1C43 41 42.1 41.9 42.1 43C42.1 44.1 43 45 44.1 45H47.1C47.8 45 48.5 44.6 48.8 44C53.1 43.9 55.9 42.8 56.1 38.5C56.7 38.1 57.1 37.4 57.1 36.7C58.2 36.1 59 34.9 59 33.5ZM39 36.5C39 36.8 38.8 37 38.5 37C38.2 37 38 36.8 38 36.5V30.5C38 30.2 38.2 30 38.5 30C38.8 30 39 30.2 39 30.5V36.5ZM54 30.5C54 30.2 54.2 30 54.5 30C54.8 30 55 30.2 55 30.5V36.5C55 36.8 54.8 37 54.5 37C54.2 37 54 36.8 54 36.5V30.5Z" fill="black"/>
<path d="M30.909 55.084H25.163V52.705H30.909V55.084ZM31.962 51.847H24.123V55.942H31.962V51.847ZM25.163 59.374H24.097V62.702H32.157V61.831H25.163V59.374ZM22.745 57.268V58.126H27.594V60.479H28.66V58.126H33.34V57.268H22.745ZM38.513 52.159C36.706 52.159 35.393 53.264 35.393 54.902C35.393 56.527 36.706 57.645 38.513 57.645C40.333 57.645 41.633 56.527 41.633 54.902C41.633 53.264 40.333 52.159 38.513 52.159ZM38.513 53.069C39.722 53.069 40.593 53.81 40.593 54.902C40.593 55.981 39.722 56.735 38.513 56.735C37.317 56.735 36.433 55.981 36.433 54.902C36.433 53.81 37.317 53.069 38.513 53.069ZM43.167 51.301V62.988H44.233V51.301H43.167ZM34.938 60.427C37.044 60.427 39.865 60.401 42.491 59.92L42.4 59.127C39.852 59.517 36.927 59.53 34.808 59.53L34.938 60.427ZM50.108 59.478C49.055 59.478 48.288 58.724 48.288 57.684C48.288 56.631 49.055 55.877 50.108 55.877C51.174 55.877 51.941 56.631 51.941 57.684C51.941 58.724 51.174 59.478 50.108 59.478ZM50.108 54.993C48.47 54.993 47.287 56.111 47.287 57.684C47.287 59.27 48.47 60.362 50.108 60.362C51.772 60.362 52.955 59.27 52.955 57.684C52.955 56.111 51.772 54.993 50.108 54.993ZM50.628 51.444H49.562V53.173H46.624V54.031H53.501V53.173H50.628V51.444ZM57.583 56.098H55.672V51.314H54.606V62.962H55.672V56.995H57.583V56.098ZM59.337 52.562V53.42H63.718C63.497 56.189 61.937 58.425 58.804 59.92L59.376 60.791C63.25 58.893 64.797 55.929 64.797 52.562H59.337ZM67.15 51.301V62.962H68.216V51.301H67.15Z" fill="black"/>
</svg>
