<svg width="91" height="80" viewBox="0 0 91 80" fill="none" xmlns="http://www.w3.org/2000/svg">
<path d="M40.5 39.5L37 37V42.5H55V37L52.5 39.5H40.5Z" fill="#FFB11A" stroke="#FFB11A" stroke-linecap="round" stroke-linejoin="round"/>
<path d="M51.8333 21V23.3H55.3415C55.9808 23.3 56.5 23.8117 56.5 24.442V42.858C56.5 43.4882 55.9808 44 55.3415 44H36.6585C36.0192 44 35.5 43.4882 35.5 42.858V24.442C35.5 23.8117 36.0192 23.3 36.6585 23.3H40.1667V21H51.8333ZM40.1667 25.6H37.8333V41.7H54.1667V25.6H51.8333V27.9H40.1667V25.6ZM42.5 37.1V39.4H40.1667V37.1H42.5ZM42.5 33.65V35.95H40.1667V33.65H42.5ZM42.5 30.2V32.5H40.1667V30.2H42.5ZM49.5 23.3H42.5V25.6H49.5V23.3Z" fill="black"/>
<path d="M31.247 51.301V62.988H32.313V51.301H31.247ZM26.164 52.198C24.435 52.198 23.2 53.784 23.2 56.267C23.2 58.75 24.435 60.336 26.164 60.336C27.893 60.336 29.128 58.75 29.128 56.267C29.128 53.784 27.893 52.198 26.164 52.198ZM26.164 53.16C27.295 53.16 28.101 54.382 28.101 56.267C28.101 58.165 27.295 59.387 26.164 59.387C25.02 59.387 24.214 58.165 24.214 56.267C24.214 54.382 25.02 53.16 26.164 53.16ZM39.995 62.13C38.162 62.13 37.083 61.675 37.083 60.882C37.083 60.089 38.162 59.634 39.995 59.634C41.815 59.634 42.907 60.089 42.907 60.882C42.907 61.675 41.815 62.13 39.995 62.13ZM39.995 58.802C37.499 58.802 36.004 59.543 36.004 60.882C36.004 62.221 37.499 62.949 39.995 62.949C42.504 62.949 43.986 62.221 43.986 60.882C43.986 59.543 42.504 58.802 39.995 58.802ZM38.383 55.708C38.864 55.786 39.41 55.838 39.995 55.838C40.593 55.838 41.139 55.786 41.62 55.708V57.073H38.383V55.708ZM36.992 53.68C36.992 52.835 38.136 52.341 39.995 52.341C41.854 52.341 42.998 52.835 42.998 53.68C42.998 54.512 41.854 55.019 39.995 55.019C38.136 55.019 36.992 54.512 36.992 53.68ZM42.673 57.073V55.422C43.57 55.058 44.09 54.46 44.09 53.68C44.09 52.315 42.53 51.509 39.995 51.509C37.473 51.509 35.9 52.315 35.9 53.68C35.9 54.473 36.407 55.058 37.33 55.435V57.073H34.717V57.931H45.273V57.073H42.673ZM47.95 54.993C47.95 53.849 48.808 53.043 49.952 53.043C51.096 53.043 51.954 53.849 51.954 54.993C51.954 56.137 51.096 56.943 49.952 56.943C48.808 56.943 47.95 56.137 47.95 54.993ZM52.994 54.993C52.994 53.303 51.694 52.12 49.952 52.12C48.21 52.12 46.91 53.303 46.91 54.993C46.91 56.683 48.21 57.866 49.952 57.866C51.694 57.866 52.994 56.683 52.994 54.993ZM49.549 59.01H48.483V62.702H56.257V61.831H49.549V59.01ZM55.737 54.85V51.301H54.671V59.881H55.737V55.734H57.453V54.85H55.737ZM60.286 52.718H59.22V59.933H59.961C61.222 59.933 62.561 59.868 64.134 59.569L64.03 58.646C62.639 58.919 61.404 58.997 60.286 59.01V52.718ZM67.514 51.301V56.046H65.863V51.561H64.862V62.364H65.863V56.93H67.514V62.949H68.541V51.301H67.514Z" fill="black"/>
</svg>
