<svg width="91" height="80" viewBox="0 0 91 80" fill="none" xmlns="http://www.w3.org/2000/svg">
<path d="M55 21H38L35 29L36 30.5L39.5 30L41.5 30.5L44.5 30L46.5 30.5L49 30L51 30.5L53.5 30L56 30.5L58.5 29L55 21Z" fill="#FFB11A"/>
<path d="M59 28.9721C59 28.8735 59 28.8735 59 28.9721C59 28.8735 59 28.7749 59 28.7749C59 28.6763 59 28.6763 59 28.5777L56.6042 21.4789C56.3958 20.5916 55.5625 20 54.625 20H38.4792C37.5417 20 36.7083 20.5916 36.3958 21.3803L34 28.5777C34 28.6763 34 28.6763 34 28.7749C34 28.7749 34 28.7749 34 28.8735C34 28.8735 34 28.8735 34 28.9721C34 28.9721 34 28.9721 34 29.0707C34 30.0566 34.625 30.9439 35.5625 31.4369V42.6766C35.5625 43.7612 36.5 44.6485 37.6458 44.6485H55.3542C56.5 44.6485 57.4375 43.7612 57.4375 42.6766V31.3383C58.375 30.8453 58.8958 29.958 59 28.9721ZM54.625 21.9719L56.9167 28.9721C56.8125 29.465 56.2917 29.8594 55.6667 29.8594C54.9375 29.8594 54.4167 29.465 54.4167 28.8735C54.4167 28.8735 54.4167 28.8735 54.4167 28.7749V28.6763L53.375 21.9719H54.625ZM41.8125 21.9719H43.7917L43.1667 28.7749C43.1667 29.3664 42.6458 29.7608 41.9167 29.7608C41.2917 29.8594 40.6667 29.465 40.6667 28.8735L41.8125 21.9719ZM45.875 21.9719H47.125L47.75 28.8735C47.75 29.3664 47.2292 29.8594 46.5 29.8594C45.7708 29.8594 45.25 29.465 45.25 28.8735L45.875 21.9719ZM49.2083 21.9719H51.2917L52.4375 28.8735C52.4375 29.3664 51.9167 29.8594 51.1875 29.8594C50.4583 29.8594 49.9375 29.465 49.9375 28.8735L49.2083 21.9719ZM38.4792 21.9719H39.8333L38.5833 28.6763V28.7749V28.8735C38.5833 29.465 38.0625 29.8594 37.3333 29.8594C36.7083 29.8594 36.1875 29.465 36.0833 28.9721L38.4792 21.9719ZM37.6458 31.8313C38.375 31.7327 39.1042 31.5355 39.625 31.0425C40.25 31.5355 40.9792 31.8313 41.9167 31.8313C42.2292 31.8313 42.5417 31.7327 42.8542 31.7327V35.7751C42.8542 35.1835 42.4375 34.7891 41.8125 34.7891C41.1875 34.7891 40.7708 35.1835 40.7708 35.7751V36.761C40.7708 37.3526 41.1875 37.7469 41.8125 37.7469C42.4375 37.7469 42.8542 37.3526 42.8542 36.761V42.6766H37.6458V31.8313ZM44.9375 42.6766V31.4369C45.3542 31.6341 45.9792 31.8313 46.5 31.8313C47.4375 31.8313 48.1667 31.5355 48.7917 31.0425C49.4167 31.5355 50.1458 31.8313 51.0833 31.8313C52.0208 31.8313 52.75 31.5355 53.375 31.0425C53.8958 31.4369 54.625 31.7327 55.3542 31.8313V42.6766H44.9375Z" fill="black"/>
<path d="M50.8748 34.4927C51.2915 34.0984 51.2915 33.5068 50.8748 33.1124C50.4582 32.7181 49.8332 32.7181 49.4165 33.1124L46.2915 36.0703C45.8748 36.4646 45.8748 37.0562 46.2915 37.4506C46.4998 37.6478 46.8123 37.7464 47.0207 37.7464C47.229 37.7464 47.5415 37.6478 47.7498 37.4506L50.8748 34.4927Z" fill="black"/>
<path d="M51.4998 35.0919L47.3331 39.0357C46.9165 39.4301 46.9165 40.0216 47.3331 40.416C47.5415 40.6132 47.854 40.7118 48.0623 40.7118C48.2706 40.7118 48.5831 40.6132 48.7915 40.416L52.9581 36.4722C53.3748 36.0779 53.3748 35.4863 52.9581 35.0919C52.5415 34.6975 51.9165 34.6975 51.4998 35.0919Z" fill="black"/>
<path d="M28.582 60.635V58.23H32.144V57.359H25.202V55.604H31.767V54.759H25.202V53.121H32.027V52.25H24.123V58.23H27.516V60.635H22.758V61.506H33.353V60.635H28.582ZM37.122 59.062H36.056V62.702H44.181V61.831H37.122V59.062ZM43.622 57.047C43.947 55.292 43.947 54.031 43.947 52.926V51.925H36.069V52.783H42.894V52.926C42.894 53.329 42.894 53.771 42.868 54.252L35.783 54.486L35.926 55.357L42.829 55.045C42.777 55.643 42.699 56.306 42.543 57.047H34.717V57.918H45.312V57.047H43.622ZM50.147 52.406H49.12V54.629C49.12 56.631 48.158 58.724 46.559 59.66L47.222 60.453C48.379 59.738 49.224 58.425 49.64 56.878C50.056 58.295 50.836 59.53 51.941 60.206L52.552 59.374C51.018 58.438 50.147 56.462 50.147 54.59V52.406ZM53.215 55.487H51.291V56.371H53.215V62.39H54.216V51.561H53.215V55.487ZM55.581 51.301V62.962H56.595V51.301H55.581ZM68.216 51.301H67.15V57.281H68.216V51.301ZM59.948 54.317C59.948 53.303 60.793 52.588 61.924 52.588C63.068 52.588 63.9 53.303 63.9 54.317C63.9 55.318 63.068 56.033 61.924 56.033C60.793 56.033 59.948 55.318 59.948 54.317ZM64.94 54.317C64.94 52.77 63.666 51.717 61.924 51.717C60.182 51.717 58.921 52.77 58.921 54.317C58.921 55.851 60.182 56.891 61.924 56.891C63.666 56.891 64.94 55.851 64.94 54.317ZM61.742 61.961V60.674H68.216V57.853H60.663V58.698H67.163V59.881H60.689V62.806H68.606V61.961H61.742Z" fill="black"/>
</svg>
