<svg width="91" height="80" viewBox="0 0 91 80" fill="none" xmlns="http://www.w3.org/2000/svg">
<rect x="52" y="21" width="5" height="23" fill="#FFB11A"/>
<rect x="44" y="27" width="5" height="17" fill="#FFB11A"/>
<path d="M40.6083 45H36.1365C35.5999 45 35.2422 44.64 35.2422 44.1V31.7004C35.2422 31.1604 35.5999 30.8004 36.1365 30.8004H40.6083C41.1449 30.8004 41.5026 31.1604 41.5026 31.7004V44.1C41.5026 44.64 41.1449 45 40.6083 45ZM37.0309 43.2H39.7139V32.6004H37.0309V43.2Z" fill="black"/>
<path d="M48.658 44.9988H44.1862C43.6496 44.9988 43.2919 44.6388 43.2919 44.0988V26.7493C43.2919 26.2094 43.6496 25.8494 44.1862 25.8494H48.658C49.1946 25.8494 49.5523 26.2094 49.5523 26.7493V44.0988C49.5523 44.6388 49.1946 44.9988 48.658 44.9988ZM45.0806 43.1988H47.7636V27.6493H45.0806V43.1988Z" fill="black"/>
<path d="M56.7064 44.9992H52.2347C51.6981 44.9992 51.3403 44.6392 51.3403 44.0992V20.9C51.3403 20.36 51.6981 20 52.2347 20H56.7064C57.243 20 57.6008 20.36 57.6008 20.9V44.0992C57.6008 44.6392 57.243 44.9992 56.7064 44.9992ZM53.129 43.1993H55.8121V21.7999H53.129V43.1993Z" fill="black"/>
<path d="M29.2575 52.562V53.42H33.5085C33.3135 56.15 31.8705 58.373 28.7375 59.907L29.3225 60.739C33.1965 58.828 34.5745 55.877 34.5745 52.562H29.2575ZM37.2785 51.314V55.981H34.5485V56.852H37.2785V62.962H38.3445V51.314H37.2785ZM42.1265 56.67H45.4415V52.575H41.0605V53.446H44.4015V55.799H41.0995V60.167H41.8665C43.3095 60.167 44.6225 60.115 46.2345 59.842L46.1565 58.958C44.6745 59.218 43.4525 59.27 42.1265 59.283V56.67ZM49.5885 51.301V55.903H47.9375V51.561H46.9365V62.364H47.9375V56.774H49.5885V62.949H50.6155V51.301H49.5885ZM62.7305 56.995C60.6895 56.631 58.4665 54.915 58.4665 52.978V52.081H57.3485V52.978C57.3485 54.915 55.1385 56.631 53.0975 56.995L53.5395 57.879C55.3335 57.502 57.1535 56.293 57.9075 54.629C58.6615 56.293 60.4945 57.502 62.2755 57.879L62.7305 56.995ZM58.4405 60.57V57.736H57.3745V60.57H52.6685V61.441H63.2505V60.57H58.4405Z" fill="black"/>
</svg>
