<svg width="91" height="80" viewBox="0 0 91 80" fill="none" xmlns="http://www.w3.org/2000/svg">
<g clip-path="url(#clip0)">
<path d="M35.25 43.5V39.5C40.5833 39.6667 51.95 39.9 54.75 39.5C56.8707 39.197 57.5955 36.5804 57.75 34.3872V32.5C57.7904 33.0256 57.7995 33.6847 57.75 34.3872V43.5H35.25Z" fill="#FFB11A"/>
<path d="M56.9253 20H35.9935C34.8971 20 34 20.9926 34 22.2059V24.4118V27.7206V42.7941C34 44.0074 34.8971 45 35.9935 45H56.9253C58.0218 45 58.9188 44.0074 58.9188 42.7941V27.7206V24.4118V22.2059C58.9188 20.9926 58.0218 20 56.9253 20ZM56.9253 22.2059V23.3088H35.9935V22.2059H56.9253ZM35.9935 25.5147H56.9253V26.6176H35.9935V25.5147ZM35.9935 42.7941V28.8235H56.9253V42.7941H35.9935Z" fill="black"/>
<path d="M54.2912 33.75H49.8414C49.3074 33.75 48.9514 34 48.9514 34.375C48.9514 34.75 49.3074 35 49.8414 35H54.2912C54.8251 35 55.1811 34.75 55.1811 34.375C55.1811 34 54.8251 33.75 54.2912 33.75Z" fill="black"/>
<path d="M23.278 52.562V53.42H27.529C27.334 56.15 25.891 58.373 22.758 59.907L23.343 60.739C27.217 58.828 28.595 55.877 28.595 52.562H23.278ZM31.299 51.314V55.981H28.569V56.852H31.299V62.962H32.365V51.314H31.299ZM36.147 56.67H39.462V52.575H35.081V53.446H38.422V55.799H35.12V60.167H35.887C37.33 60.167 38.643 60.115 40.255 59.842L40.177 58.958C38.695 59.218 37.473 59.27 36.147 59.283V56.67ZM43.609 51.301V55.903H41.958V51.561H40.957V62.364H41.958V56.774H43.609V62.949H44.636V51.301H43.609ZM48.327 52.718H47.261V59.933H48.002C49.263 59.933 50.602 59.868 52.175 59.569L52.071 58.646C50.68 58.919 49.445 58.997 48.327 59.01V52.718ZM55.555 51.301V56.046H53.904V51.561H52.903V62.364H53.904V56.93H55.555V62.949H56.582V51.301H55.555ZM60.455 59.686H67.176V62.975H68.255V58.815H60.455V59.686ZM64.693 55.63C64.771 55.357 64.823 55.071 64.823 54.746C64.823 54.434 64.771 54.148 64.693 53.875H67.176V55.63H64.693ZM61.82 56.657C60.689 56.657 59.844 55.864 59.844 54.746C59.844 53.654 60.689 52.861 61.82 52.861C62.964 52.861 63.809 53.654 63.809 54.746C63.809 55.864 62.964 56.657 61.82 56.657ZM67.176 51.314V53.017H64.238C63.692 52.354 62.834 51.951 61.82 51.951C60.104 51.951 58.83 53.108 58.83 54.746C58.83 56.397 60.104 57.567 61.82 57.567C62.834 57.567 63.679 57.164 64.225 56.501H67.176V58.178H68.255V51.301L67.176 51.314Z" fill="black"/>
</g>
<defs>
<clipPath id="clip0">
<rect width="91" height="80" fill="white"/>
</clipPath>
</defs>
</svg>
